<svg id="Layer_1" data-name="Layer 1" xmlns="http://www.w3.org/2000/svg" xmlns:xlink="http://www.w3.org/1999/xlink" viewBox="0 0 196.69 185.15"><defs><style>.cls-1{fill:#eae3d6;}.cls-2,.cls-3,.cls-4{opacity:0.6;}.cls-3,.cls-5,.cls-6,.cls-7,.cls-8{fill:#fff;}.cls-11,.cls-15,.cls-3,.cls-4,.cls-5,.cls-6,.cls-7,.cls-8{isolation:isolate;}.cls-11,.cls-24,.cls-30,.cls-5{stroke:#231f20;}.cls-11,.cls-5{stroke-width:0.29px;opacity:0.59;}.cls-6{opacity:0.37;}.cls-7{opacity:0.48;}.cls-8{opacity:0.5;}.cls-9{mask:url(#mask);}.cls-10{fill:#96c0e0;}.cls-11,.cls-17,.cls-19,.cls-24,.cls-30{fill:none;}.cls-12{fill:#c08a64;}.cls-13{fill:#c78f68;}.cls-14{fill:#2d9e9e;}.cls-15,.cls-23{fill:#231f20;}.cls-15{opacity:0.17;}.cls-16{fill:#9fcced;}.cls-17,.cls-18{stroke:#464547;}.cls-17,.cls-18,.cls-19,.cls-30{stroke-linecap:round;}.cls-17,.cls-18,.cls-19{stroke-miterlimit:10;}.cls-17{stroke-width:1.5px;}.cls-18{fill:#6b6c6f;stroke-width:0.85px;}.cls-19{stroke:#919396;stroke-width:0.9px;}.cls-20{fill:#545456;}.cls-21{fill:#2a1e2b;}.cls-22{fill:#4d4d4f;}.cls-24{stroke-width:0.11px;}.cls-25{mask:url(#mask-2);}.cls-26{fill:#321700;}.cls-27{fill:#804727;}.cls-28{fill:#0b1c3a;}.cls-29{fill:#3671b8;}.cls-30{stroke-width:0.32px;}.cls-31{fill:#48484a;}.cls-32{fill:#3065a4;}.cls-33{fill:#336bae;}</style><mask id="mask" x="11.53" y="0" width="185.15" height="185.15" maskUnits="userSpaceOnUse"><g transform="translate(-42.61 -13.6)"><g id="mask0"><path class="cls-1" d="M146.72,198.75a92.58,92.58,0,1,0-92.58-92.58A92.57,92.57,0,0,0,146.72,198.75Z"/></g></g></mask><mask id="mask-2" x="-25.79" y="0" width="223.21" height="185.15" maskUnits="userSpaceOnUse"><g transform="translate(-42.61 -13.6)"><g id="mask1"><path class="cls-1" d="M147.45,198.75a92.58,92.58,0,1,0,0-185.15c-223.37,0-92.57,41.45-92.57,92.57A92.57,92.57,0,0,0,147.45,198.75Z"/></g></g></mask></defs><path class="cls-1" d="M146.72,198.75a92.58,92.58,0,1,0-92.58-92.58A92.57,92.57,0,0,0,146.72,198.75Z" transform="translate(-42.61 -13.6)"/><g class="cls-2"><path class="cls-3" d="M226.92,61.83H156.56v74h70.36Z" transform="translate(-42.61 -13.6)"/><g class="cls-2"><path class="cls-3" d="M184.68,113.15a8.49,8.49,0,0,0,3.42-1,21.19,21.19,0,0,0,6.75-5.52,2.55,2.55,0,0,1,.71-.55c.82-.45,1.69-.81,2.48-1.31a5.37,5.37,0,0,0,2.8-5.6,3.27,3.27,0,0,0-3.14-3.11,10,10,0,0,0-2.25.26,1.23,1.23,0,0,1-.78-.08c-1.89-.84-3.76-1.71-5.68-2.47a11.42,11.42,0,0,0-8.2-.18,44.63,44.63,0,0,0-6,2.59,1.19,1.19,0,0,1-.48.16,1.1,1.1,0,0,1-.51,0,6.45,6.45,0,0,0-1.38-.25,3.29,3.29,0,0,0-3.73,2.37,5.11,5.11,0,0,0,2,5.9c1,.69,2.11,1.19,3.16,1.79a1.73,1.73,0,0,1,.55.46,19.93,19.93,0,0,0,4.21,4.39A9.63,9.63,0,0,0,184.68,113.15Zm8.74-31.83h.1c.29,1.34.57,2.68.84,4h1.43l.93-3.94h.09v3.92h1.6V79.58c-.65,0-1.25,0-1.85,0-.39,0-.55.13-.64.5-.21,1-.47,1.92-.74,3-.29-1.27-.51-2.37-.75-3.5H192v5.71h1.44Zm18.42-1.71v5.7h1.55c.36-.7-.31-1.64.63-2.21.38.62.74,1.23,1.12,1.82.11.17.31.39.48.4.55.05,1.11,0,1.79,0-.67-1-1.23-1.93-1.85-2.81a.7.7,0,0,1,.08-1.1c.57-.54,1.05-1.15,1.68-1.86-.57,0-1,0-1.39,0a1,1,0,0,0-1,.51c-.39.57-.85,1.1-1.4,1.8V79.61Zm-6.59,5.74c-.48-1.46-.92-2.82-1.38-4.18-.55-1.64-.57-1.63-2.28-1.59A.55.55,0,0,0,201,80c-.32,1.08-.68,2.15-1,3.22l-.66,2.09c.44,0,.79,0,1.14,0s.63-.11.69-.51.34-.66.82-.6a6.27,6.27,0,0,1,.75,0c.19,0,.48.2.51.36a.81.81,0,0,0,1.06.72,8,8,0,0,1,1,0Zm-27.8,0c-.64-1.92-1.25-3.73-1.85-5.55-.57-.07-1.14-.17-1.71-.2a1.34,1.34,0,0,0-.64.23c-.07,0-.07.19-.1.28l-.9,2.8-.77,2.44c.45,0,.83,0,1.2,0s.57-.12.61-.46c.06-.57.39-.71.9-.64a6.26,6.26,0,0,1,.75,0c.17,0,.4.18.43.31.12.73.57.85,1.2.77a6.46,6.46,0,0,1,.88,0Zm28.31-1.76a1.76,1.76,0,0,0,1.29,1.62,7.11,7.11,0,0,0,2.39.08,1.6,1.6,0,0,0,1.47-1.54A1.64,1.64,0,0,0,209.62,82c-.48-.19-1-.29-1.48-.48-.19-.07-.32-.32-.47-.49.21-.13.42-.36.63-.37A1.81,1.81,0,0,1,209,81c.13.07.24.24.37.25.43,0,.85,0,1.36,0a1.71,1.71,0,0,0-1.11-1.51,3.5,3.5,0,0,0-2.45-.07,1.68,1.68,0,0,0-.85.56,1.77,1.77,0,0,0-.37.94,1.49,1.49,0,0,0,.24,1,1.47,1.47,0,0,0,.78.6c.45.19.95.28,1.42.46s1,.2.72.78-.72.38-1.14.25c-.16,0-.28-.24-.42-.34a1.18,1.18,0,0,0-.49-.27c-.4,0-.8,0-1.29,0ZM188.65,83V81.72h-2.57v-.86h2.67V79.64h-4.37v5.71c1.43,0,2.74,0,4.05,0a.64.64,0,0,0,.26-.13.81.81,0,0,0,.17-.24,4.24,4.24,0,0,0,.12-.88h-2.09c-.95,0-1-.09-.74-1.09Zm-5.32-1.51a2.36,2.36,0,0,0-2.78-2,2.81,2.81,0,0,0-2.71,3.06,2.68,2.68,0,0,0,2.82,2.91c1.5,0,2.57-.76,2.66-2-.44,0-.87,0-1.31,0-.14,0-.28.19-.42.27-.32.18-.67.52-1,.48a1.18,1.18,0,0,1-.5-.25,1.07,1.07,0,0,1-.31-.45,6.68,6.68,0,0,1,0-2.14,1,1,0,0,1,.32-.42,1.06,1.06,0,0,1,.48-.22c.28,0,.62.28.94.44s.34.28.53.28A9.88,9.88,0,0,0,183.33,81.48ZM168.7,83.19h2.45V81.93h-2.41V80.85h2.58V79.64h-4.27v5.68h1.64ZM197,75.75h-.12c-.15-.68-.31-1.36-.44-2-.07-.42-.35-.38-.64-.37s-.57-.06-.65.38c-.13.73-.32,1.46-.53,2.34-.1-.65-.16-1.14-.26-1.62-.24-1.24.1-1.11-1.34-1.09,0,0-.06,0-.12.08.32,1.32.65,2.65,1,4a3.71,3.71,0,0,1,.47,0c.66.12.92-.19,1-.82a13.53,13.53,0,0,1,.4-1.67c.17.77.35,1.36.44,2s.28.54.71.55.78-.1.85-.63a10.86,10.86,0,0,1,.31-1.28c.19-.71.37-1.43.57-2.18h-1.18Zm-16.64,46.09.12,0c.34.69.65,1.4,1,2.06a1.18,1.18,0,0,0,.67.41,3.78,3.78,0,0,0,.89,0v-4.16h-1.1v2.49c-.4-.83-.71-1.49-1-2.13a.73.73,0,0,0-.43-.38,8,8,0,0,0-1.2,0v4.15h1.07Zm28.4-45.92c1-.11,1.13,0,1.1.86,0,.5.12.74.66.66l.65,0c-.13-.71-.25-1.36-.37-2.09a1,1,0,0,0,.33-.55,1,1,0,0,0-.05-.63,1,1,0,0,0-.4-.55,1.09,1.09,0,0,0-.65-.2c-.81,0-1.61,0-2.42,0v4h1.14ZM195.56,120a2.05,2.05,0,0,0-2.16,2.24,2,2,0,0,0,2.09,2.16,2.05,2.05,0,0,0,1.58-.58,2.07,2.07,0,0,0,.48-.72,2.23,2.23,0,0,0,.14-.85A2,2,0,0,0,195.56,120Zm-25.4.12v4.13h1.24v-1.61h1.28v1.61h1.19v-4.12h-1.16l-.07,1.52h-1.28v-1.53Zm28.24,0c0,1.07-.06,2.06,0,3,.07.79.7,1.2,1.62,1.24s1.86-.28,2-1a28.63,28.63,0,0,0,0-3.21h-1.14v2.4c0,.47,0,1-.66,1s-.66-.5-.66-1v-2.4ZM185,124.26c.29-.49-.22-1.2.5-1.57.59.84.86,2.11,2.36,1.5a19,19,0,0,0-1-1.64c-.4-.51-.45-.93.1-1.38a9,9,0,0,0,.86-1c-1.46-.57-1.89.67-2.66,1.52l-.06-1.57H183.9v4.13Zm3.91-50h1.89v-.85H187.7v4.06h2.48c.76,0,.83-.09.66-1h-2l0-.74h1.8v-.9h-1.8Zm28.18,3.21c-.36-1.07-.7-2.06-1-3-.38-1.17-.42-1.21-1.65-1a.44.44,0,0,0-.22.1.55.55,0,0,0-.16.18c-.43,1.24-.82,2.49-1.28,3.94.53-.15,1.19-.17,1.26-.38.19-.62.6-.49,1-.53s.59.16.69.53c0,.11.23.22.37.23a8.19,8.19,0,0,0,1,0Zm-10.14,0c-.35-1.06-.69-2.06-1-3.07s-.41-1.17-1.63-1a.5.5,0,0,0-.23.09.74.74,0,0,0-.16.19c-.42,1.24-.82,2.48-1.23,3.78.6,0,1.25.32,1.4-.59.45,0,1.26-.11,1.31,0,.31.89.94.52,1.56.57Zm-23.93,0c-.39-1.17-.8-2.28-1.11-3.38-.15-.57-.4-.82-1-.71-.16,0-.34,0-.49,0a.69.69,0,0,0-.45.3c-.43,1.23-.82,2.48-1.24,3.78.61,0,1.27.28,1.41-.62.46,0,1.26-.09,1.31.06.3.9.93.51,1.55.57Zm3.75-2.8c-.11-1.19-1.19-1.66-2.35-1.27a1.12,1.12,0,0,0-.63.38,1.15,1.15,0,0,0-.28.69,1.08,1.08,0,0,0,.76,1.16c.4.16.83.26,1.23.43a.5.5,0,0,1,.17.15.45.45,0,0,1,.08.22.39.39,0,0,1-.12.19.49.49,0,0,1-.2.11c-.21,0-.53,0-.63-.14-.39-.52-.88-.28-1.39-.28a1.3,1.3,0,0,0,.07.33,2.11,2.11,0,0,0,2.72.8,1.19,1.19,0,0,0,.61-.42,1.17,1.17,0,0,0,.24-.71,1.14,1.14,0,0,0-.17-.7,1.06,1.06,0,0,0-.56-.44c-.36-.16-.75-.25-1.12-.4a1.2,1.2,0,0,1-.41-.33s.1-.27.16-.27a1.75,1.75,0,0,1,.6,0l1.21.45Zm15.38-1.25h-3.08v4.07h2.46c.74,0,.77,0,.72-.9h-2v-.79h1.81v-.89h-1.78c-.13-.45,0-.63.38-.62s1,0,1.51,0ZM178.71,124.3c-.44-1.35-.83-2.59-1.27-3.82a.72.72,0,0,0-.22-.24,1,1,0,0,0-.31-.14,2.66,2.66,0,0,0-.89,0,.67.67,0,0,0-.21.09.64.64,0,0,0-.16.17c-.42,1.28-.82,2.57-1.24,3.89h1.19l-.09-.13c.24-.21.45-.55.71-.6.44-.09,1-.21,1.14.54,0,.09.25.2.39.22.32,0,.64,0,1,0Zm-.6-49.43h-1.19c-.36,0-.82.09-.57-.65h1.86v-.85H175.1v4l.4,0h2.72l.15-.91h-2.09v-.77h1.82ZM168.33,76a10.51,10.51,0,0,0,1.25-.09,1.19,1.19,0,0,0,.81-.42,1.25,1.25,0,0,0,.3-.87,1.28,1.28,0,0,0-.33-.86,1.22,1.22,0,0,0-.84-.38c-.77-.07-1.56,0-2.37,0v4h1.18ZM192,124.28c-.46-1.71.82-2.77,1.35-4.1-1.17-.21-1.17-.21-1.62.79-.1.23-.22.47-.37.81-.26-.57-.35-1.14-.69-1.42s-.88-.23-1.49-.35c.69,1.53,1.86,2.64,1.48,4.27ZM166.07,121a2.45,2.45,0,0,0,.38,0c.69-.12.88.18.84.85s0,1.61,0,2.42h1.22V121c.36,0,.72.1,1,0s.22-.47.35-.8h-3.74Zm5.28-43.5h2.38c.79,0,.81,0,.69-.93h-1.86V73.39h-1.2Zm33.05,42.76H203c.08.86.14,1.68.22,2.72.43-.22.91-.32,1-.51a18.43,18.43,0,0,0,.17-2.22Zm-.13,4.07c.18-1.21,0-1.35-1.07-1v1Z" transform="translate(-42.61 -13.6)"/><path class="cls-4" d="M184.68,113.15a9.63,9.63,0,0,1-6.12-2.15,20.12,20.12,0,0,1-4.2-4.39,1.73,1.73,0,0,0-.55-.46c-1.05-.6-2.18-1.1-3.16-1.79a5.12,5.12,0,0,1-2-5.9,3.3,3.3,0,0,1,3.74-2.37,6.45,6.45,0,0,1,1.38.25,1.06,1.06,0,0,0,.5,0,1.14,1.14,0,0,0,.48-.16,44.22,44.22,0,0,1,6.05-2.59,11.42,11.42,0,0,1,8.2.18c1.91.77,3.79,1.63,5.67,2.47a1.24,1.24,0,0,0,.78.08,10.11,10.11,0,0,1,2.26-.26,3.27,3.27,0,0,1,3.13,3.11,5.34,5.34,0,0,1-2.8,5.6c-.78.5-1.65.86-2.47,1.31a2.6,2.6,0,0,0-.72.55,21.09,21.09,0,0,1-6.75,5.52A8.49,8.49,0,0,1,184.68,113.15Zm9.6-11.62V97.62a.49.49,0,0,0-.05-.31.58.58,0,0,0-.23-.21,40.24,40.24,0,0,0-6.12-2.53,9.3,9.3,0,0,0-4.5-.44,30.28,30.28,0,0,0-8.07,3,.52.52,0,0,0-.17.19.55.55,0,0,0-.07.25q0,3.92,0,7.82a.93.93,0,0,0,.17.53,18.19,18.19,0,0,0,4.63,4.63,7.35,7.35,0,0,0,7.86.61,20.7,20.7,0,0,0,6.21-5.07,1.3,1.3,0,0,0,.28-.46,1.37,1.37,0,0,0,.08-.53C194.27,103.94,194.28,102.74,194.28,101.53Zm1,3.53a12,12,0,0,0,3.11-1.87,4.08,4.08,0,0,0,1.13-1.53,4.18,4.18,0,0,0,.3-1.88,2.43,2.43,0,0,0-2.85-2.6c-.42,0-.83.15-1.25.21s-.44.22-.44.57c0,2,0,4,0,6Zm-21.42,0c.06-.06.07-.07.07-.08,0-2.4,0-4.8,0-7.2a.38.38,0,0,0-.08-.17.4.4,0,0,0-.16-.12,13.47,13.47,0,0,0-2.2-.25,1.94,1.94,0,0,0-1.79,1.28,4.07,4.07,0,0,0,.79,4.36A10.85,10.85,0,0,0,173.9,105Z" transform="translate(-42.61 -13.6)"/><path class="cls-4" d="M193.42,81.32v4H192v-5.7h2.45l.74,3.5c.29-1.14.53-2.08.75-3a.53.53,0,0,1,.63-.5c.6,0,1.21,0,1.86,0V85.3h-1.6V81.39h-.1l-.93,3.94h-1.42c-.29-1.33-.57-2.67-.84-4Z" transform="translate(-42.61 -13.6)"/><path class="cls-4" d="M211.84,79.61h1.65v2.28c.55-.7,1-1.23,1.4-1.81a1,1,0,0,1,.44-.41,1,1,0,0,1,.6-.09c.4,0,.81,0,1.39,0-.63.7-1.13,1.31-1.68,1.85-.41.39-.38.68-.08,1.11.62.88,1.18,1.79,1.85,2.81-.68,0-1.24,0-1.79,0a.85.85,0,0,1-.48-.41c-.38-.59-.74-1.2-1.12-1.82-.94.57-.28,1.51-.63,2.22h-1.55Z" transform="translate(-42.61 -13.6)"/><path class="cls-4" d="M205.25,85.35a8.34,8.34,0,0,0-1,0,.81.81,0,0,1-1.05-.72c0-.16-.32-.31-.52-.36a6.11,6.11,0,0,0-.74,0c-.48-.06-.76.11-.82.6a.54.54,0,0,1-.69.51,10.8,10.8,0,0,0-1.14,0c.23-.75.45-1.42.66-2.09.34-1.07.69-2.14,1-3.22a.5.5,0,0,1,.21-.35.51.51,0,0,1,.4-.11c1.73,0,1.73,0,2.28,1.59C204.33,82.52,204.77,83.89,205.25,85.35Zm-3-4.4-.11,0c-.17.65-.32,1.3-.49,2h1.16C202.59,82.25,202.41,81.6,202.22,81Z" transform="translate(-42.61 -13.6)"/><path class="cls-4" d="M177.45,85.35a6.32,6.32,0,0,0-.87,0c-.64.09-1.09,0-1.21-.77,0-.13-.26-.29-.42-.31s-.5,0-.75,0c-.51-.06-.86.08-.91.65,0,.34-.24.49-.61.46s-.74,0-1.2,0l.77-2.44.9-2.8c0-.1,0-.25.1-.29a1.44,1.44,0,0,1,.64-.22c.57,0,1.14.13,1.71.2C176.2,81.61,176.81,83.43,177.45,85.35Zm-3-4.39h-.11c-.16.65-.32,1.3-.5,2H175C174.78,82.25,174.59,81.6,174.41,81Z" transform="translate(-42.61 -13.6)"/><path class="cls-4" d="M205.76,83.59c.49,0,.89,0,1.28,0a1.29,1.29,0,0,1,.49.26c.15.11.26.29.42.35.42.13,1,.25,1.14-.26s-.35-.65-.72-.78-1-.26-1.43-.46a1.5,1.5,0,0,1-.78-.6,1.53,1.53,0,0,1-.23-1,1.72,1.72,0,0,1,.37-.94,1.7,1.7,0,0,1,.85-.56,3.53,3.53,0,0,1,2.44.07,1.7,1.7,0,0,1,1.12,1.51c-.5,0-.93,0-1.36,0-.13,0-.24-.18-.37-.25s-.46-.33-.69-.32-.42.23-.63.36c.15.17.28.42.47.5.48.2,1,.28,1.48.47a1.66,1.66,0,0,1,1.29,1.77,1.6,1.6,0,0,1-1.47,1.54A7.39,7.39,0,0,1,207,85.2,1.71,1.71,0,0,1,205.76,83.59Z" transform="translate(-42.61 -13.6)"/><path class="cls-4" d="M188.65,83h-2.5c-.28,1-.21,1.09.74,1.09H189a4.24,4.24,0,0,1-.12.88.81.81,0,0,1-.17.24.64.64,0,0,1-.26.13c-1.31,0-2.62,0-4.05,0V79.63h4.37v1.22h-2.67v.85h2.56Z" transform="translate(-42.61 -13.6)"/><path class="cls-4" d="M183.33,81.48a9.9,9.9,0,0,1-1.22,0c-.19,0-.35-.2-.53-.28s-.65-.47-.94-.44a1.11,1.11,0,0,0-.8.63,6.68,6.68,0,0,0,0,2.14,1.11,1.11,0,0,0,.31.46,1.18,1.18,0,0,0,.5.25c.28,0,.64-.29,1-.48.15-.09.29-.26.42-.27.44,0,.87,0,1.31,0-.09,1.25-1.16,2-2.66,2a2.68,2.68,0,0,1-2.82-2.91,2.81,2.81,0,0,1,2.71-3.06A2.31,2.31,0,0,1,183.33,81.48Z" transform="translate(-42.61 -13.6)"/><path class="cls-4" d="M168.7,83.19v2.13h-1.64V79.63h4.27v1.21h-2.58v1.08h2.41v1.27Z" transform="translate(-42.61 -13.6)"/><path class="cls-4" d="M197,75.74l.44-2.38h1.18c-.2.76-.39,1.47-.57,2.18a11.36,11.36,0,0,0-.31,1.28c-.07.54-.36.65-.86.63s-.64-.09-.71-.55-.26-1.17-.44-2a16.16,16.16,0,0,0-.39,1.67c-.07.64-.33.94-1,.82a3.59,3.59,0,0,0-.47,0c-.33-1.34-.65-2.67-1-4,.06,0,.09-.08.12-.08,1.44,0,1.09-.15,1.34,1.09.09.49.15,1,.26,1.62.2-.88.39-1.61.52-2.34.08-.44.36-.38.65-.38s.57,0,.65.37c.12.69.28,1.36.44,2Z" transform="translate(-42.61 -13.6)"/><path class="cls-4" d="M180.31,121.83v2.41h-1.07v-4.15a9.61,9.61,0,0,1,1.2,0,.72.72,0,0,1,.43.39c.34.63.65,1.29,1,2.12v-2.48H183v4.16a3.78,3.78,0,0,1-.89,0,1.13,1.13,0,0,1-.67-.41c-.38-.66-.69-1.37-1-2.06Z" transform="translate(-42.61 -13.6)"/><path class="cls-4" d="M208.71,75.92V77.4h-1.14v-4c.81,0,1.62,0,2.42,0a1.05,1.05,0,0,1,1,.74.91.91,0,0,1,.05.63,1,1,0,0,1-.33.55c.12.73.24,1.38.37,2.09l-.65,0c-.54.08-.68-.16-.66-.66C209.84,75.93,209.67,75.81,208.71,75.92Zm.14-1.83-.17.21c.06.23.08.65.19.68a1.81,1.81,0,0,0,.89-.11c.06,0,.1-.41.06-.42A8.72,8.72,0,0,0,208.85,74.09Z" transform="translate(-42.61 -13.6)"/><path class="cls-4" d="M195.56,120a2,2,0,0,1,2.13,2.25,2.23,2.23,0,0,1-.14.85,2.07,2.07,0,0,1-1.21,1.18,2,2,0,0,1-.85.12,2,2,0,0,1-2.09-2.16A2.07,2.07,0,0,1,195.56,120Zm.85,2.23c0-.2,0-.37,0-.54-.09-.46-.32-.81-.85-.8a.8.8,0,0,0-.3.06.82.82,0,0,0-.25.16.9.9,0,0,0-.17.26.77.77,0,0,0-.06.3,2.65,2.65,0,0,0,.08,1.19,1,1,0,0,0,.3.39,1.16,1.16,0,0,0,.45.21c.26,0,.55-.37.75-.63s.08-.41.11-.6Z" transform="translate(-42.61 -13.6)"/><path class="cls-4" d="M170.16,120.12h1.2v1.53h1.28l.07-1.53h1.16v4.13h-1.19v-1.62H171.4v1.61h-1.24Z" transform="translate(-42.61 -13.6)"/><path class="cls-4" d="M198.4,120.13h1.17v2.39c0,.47,0,1,.66,1s.66-.48.66-.95v-2.41H202a28.63,28.63,0,0,1,0,3.21c-.09.76-.89,1.1-1.95,1.06s-1.55-.46-1.62-1.25C198.34,122.18,198.4,121.19,198.4,120.13Z" transform="translate(-42.61 -13.6)"/><path class="cls-4" d="M185,124.26h-1.08v-4.13h1.14l.07,1.57c.77-.85,1.2-2.08,2.65-1.52a7.28,7.28,0,0,1-.85,1c-.57.45-.52.85-.11,1.39a18.12,18.12,0,0,1,1.06,1.63c-1.5.61-1.77-.66-2.36-1.49C184.77,123.07,185.28,123.77,185,124.26Z" transform="translate(-42.61 -13.6)"/><path class="cls-4" d="M188.9,74.22v.63h1.8v.9h-1.8l0,.74h2c.17.86.1,1-.66.94H187.7V73.37h3.09v.86Z" transform="translate(-42.61 -13.6)"/><path class="cls-4" d="M217.08,77.44a8.17,8.17,0,0,1-1,0c-.14,0-.35-.13-.37-.24-.1-.37-.26-.57-.69-.53s-.83-.08-1,.53c-.07.21-.73.23-1.26.38.46-1.44.86-2.69,1.28-3.93a.49.49,0,0,1,.16-.19.55.55,0,0,1,.22-.1c1.23-.15,1.27-.12,1.65,1C216.38,75.37,216.72,76.35,217.08,77.44Zm-2.62-1.75h.83c-.14-.48-.25-.89-.42-1.46C214.72,74.8,214.59,75.22,214.46,75.69Z" transform="translate(-42.61 -13.6)"/><path class="cls-4" d="M206.94,77.42c-.62,0-1.25.32-1.56-.57,0-.14-.85,0-1.31,0-.15.91-.8.57-1.4.59.41-1.3.81-2.55,1.23-3.78a.74.74,0,0,1,.16-.19.67.67,0,0,1,.23-.1c1.22-.15,1.25-.12,1.63,1S206.59,76.35,206.94,77.42Zm-1.77-1.71c-.15-.5-.27-.91-.39-1.33l-.11,0c-.1.43-.21.86-.32,1.31Z" transform="translate(-42.61 -13.6)"/><path class="cls-4" d="M183,77.42c-.62-.06-1.25.33-1.55-.57,0-.15-.86,0-1.32-.06-.14.91-.8.6-1.4.62.42-1.3.81-2.55,1.23-3.78,0-.14.29-.24.45-.3a1.68,1.68,0,0,1,.5,0c.58-.1.83.15,1,.71C182.2,75.15,182.61,76.24,183,77.42Zm-1.78-1.71c-.14-.5-.25-.91-.37-1.32h-.1l-.34,1.32Z" transform="translate(-42.61 -13.6)"/><path class="cls-4" d="M186.75,74.62c-.41-.15-.82-.31-1.24-.44a1.47,1.47,0,0,0-.59-.06c-.06,0-.18.24-.16.27a1.23,1.23,0,0,0,.41.34c.37.15.76.23,1.12.39a1.08,1.08,0,0,1,.56.45,1.11,1.11,0,0,1,.17.69,1.13,1.13,0,0,1-.24.71,1.15,1.15,0,0,1-.61.43,2.12,2.12,0,0,1-2.72-.8,1.28,1.28,0,0,1-.07-.34c.51,0,1-.22,1.39.29.1.13.42.15.63.14a.49.49,0,0,0,.2-.11.26.26,0,0,0,0-.41.35.35,0,0,0-.17-.15c-.4-.17-.83-.29-1.23-.44a1,1,0,0,1-.59-.44,1.08,1.08,0,0,1-.17-.72,1.15,1.15,0,0,1,.28-.68,1.13,1.13,0,0,1,.63-.39C185.56,73,186.64,73.42,186.75,74.62Z" transform="translate(-42.61 -13.6)"/><path class="cls-4" d="M202.14,73.37v.87c-.52,0-1,0-1.51,0s-.51.17-.38.62H202v.89h-1.81v.79h2c.05.85,0,.9-.72.9h-2.44V73.37Z" transform="translate(-42.61 -13.6)"/><path class="cls-4" d="M178.71,124.29a8,8,0,0,1-1,0c-.14,0-.37-.13-.38-.22-.12-.75-.69-.62-1.14-.53-.27,0-.48.39-.72.6l.1.13h-1.2c.42-1.34.82-2.62,1.25-3.89a.41.41,0,0,1,.15-.17.4.4,0,0,1,.21-.09,2.66,2.66,0,0,1,.89,0,.85.85,0,0,1,.31.13.92.92,0,0,1,.23.25C177.87,121.7,178.26,123,178.71,124.29Zm-2.16-3.09-.13,0-.33,1.37h.82C176.77,122.05,176.66,121.62,176.55,121.2Z" transform="translate(-42.61 -13.6)"/><path class="cls-4" d="M178.1,74.86v.9h-1.82v.76h2.09l-.15.91H175.5a3.37,3.37,0,0,1-.4,0v-4h3.1v.85h-1.87c-.24.74.22.64.57.64Z" transform="translate(-42.61 -13.6)"/><path class="cls-4" d="M168.32,76v1.4h-1.17v-4c.81,0,1.59,0,2.37,0a1.18,1.18,0,0,1,.83.38,1.24,1.24,0,0,1,.34.86,1.28,1.28,0,0,1-.3.87,1.24,1.24,0,0,1-.81.42Q169,76,168.32,76Zm.05-.82a7.39,7.39,0,0,0,1-.32c.05,0,0-.4,0-.43a8.83,8.83,0,0,0-1-.3Z" transform="translate(-42.61 -13.6)"/><path class="cls-4" d="M192,124.27h-1.34c.38-1.64-.78-2.75-1.48-4.27.61.13,1.19.09,1.5.35a4.47,4.47,0,0,1,.68,1.42c.16-.33.27-.57.38-.81.45-1,.45-1,1.62-.79C192.81,121.5,191.53,122.57,192,124.27Z" transform="translate(-42.61 -13.6)"/><path class="cls-4" d="M166.07,120.93v-.79h3.73c-.13.33-.16.71-.35.8s-.61,0-1,0v3.27h-1.22c0-.81,0-1.62,0-2.42s-.14-1-.84-.85A1.55,1.55,0,0,1,166.07,120.93Z" transform="translate(-42.61 -13.6)"/><path class="cls-4" d="M171.35,77.44V73.37h1.21v3.14h1.86c.12.9.1.92-.68.92Z" transform="translate(-42.61 -13.6)"/><path class="cls-4" d="M204.38,120.2a18.11,18.11,0,0,1-.17,2.21c0,.18-.52.28-1,.5-.08-1-.14-1.84-.22-2.71Z" transform="translate(-42.61 -13.6)"/><path class="cls-4" d="M204.25,124.26h-1.07v-1C204.28,122.92,204.43,123.07,204.25,124.26Z" transform="translate(-42.61 -13.6)"/><path class="cls-3" d="M194.28,101.53v3.61a1.37,1.37,0,0,1-.08.53,1.43,1.43,0,0,1-.27.46,20.86,20.86,0,0,1-6.22,5.07,7.35,7.35,0,0,1-7.86-.61,18.19,18.19,0,0,1-4.63-4.63.93.93,0,0,1-.17-.53q0-3.9,0-7.82a.55.55,0,0,1,.07-.25.52.52,0,0,1,.17-.19,30,30,0,0,1,8.07-3,9.42,9.42,0,0,1,4.5.44A40.24,40.24,0,0,1,194,97.1a.58.58,0,0,1,.23.21.49.49,0,0,1,0,.31v3.91Zm-3.54,4.91,0-.15c-1.9.41-3.79.83-5.7,1.23a1.72,1.72,0,0,1-.64,0c-1.08-.23-2.16-.49-3.25-.72-.85-.18-1.73-.33-2.59-.49,0,.1.07.14.12.15,1.93.57,3.85,1.12,5.78,1.66a1.11,1.11,0,0,0,.57,0c.9-.23,1.81-.47,2.71-.73S189.73,106.75,190.74,106.44Zm-12.2-4.14v.12l.41.09,3.64.57a11.42,11.42,0,0,0,2.18.21c1.18-.07,2.36-.27,3.53-.43.8-.12,1.6-.27,2.4-.41a.26.26,0,0,0-.11-.07.22.22,0,0,0-.14,0c-1.14.06-2.31.1-3.46.2a19.7,19.7,0,0,1-4,0C181.53,102.44,180,102.4,178.54,102.3Zm0-4,0,.1.73-.08,4.66-.5a4.46,4.46,0,0,1,1-.09c1.17.13,2.34.31,3.52.44.77.09,1.54.14,2.31.2a.16.16,0,0,0-.06-.08.13.13,0,0,0-.09-.05c-1.33-.26-2.66-.55-4-.79a8.21,8.21,0,0,0-2.3-.23c-1.56.19-3.11.54-4.66.83-.36.07-.72.16-1.08.25Z" transform="translate(-42.61 -13.6)"/><path class="cls-3" d="M195.32,105.06V97.94c0-.34.11-.51.45-.57s.83-.18,1.25-.21a2.42,2.42,0,0,1,2.84,2.6,4,4,0,0,1-.29,1.88,4.19,4.19,0,0,1-1.13,1.54A12.28,12.28,0,0,1,195.32,105.06Z" transform="translate(-42.61 -13.6)"/><path class="cls-3" d="M173.9,105a10.67,10.67,0,0,1-3.37-2.18,4.11,4.11,0,0,1-.78-4.37,2,2,0,0,1,.7-.92,2,2,0,0,1,1.09-.36,12.58,12.58,0,0,1,2.21.26.33.33,0,0,1,.15.11.32.32,0,0,1,.09.17v7.2S174,105,173.9,105Z" transform="translate(-42.61 -13.6)"/><path class="cls-3" d="M202.22,81c.19.65.37,1.3.57,2h-1.17c.17-.68.32-1.33.49-2Z" transform="translate(-42.61 -13.6)"/><path class="cls-3" d="M174.41,81c.18.64.37,1.29.57,2h-1.17c.17-.69.34-1.34.5-2Z" transform="translate(-42.61 -13.6)"/><path class="cls-3" d="M208.85,74.09a8.72,8.72,0,0,1,1,.36s0,.4-.06.42a1.81,1.81,0,0,1-.89.11c-.11,0-.13-.45-.19-.68Z" transform="translate(-42.61 -13.6)"/><path class="cls-3" d="M196.42,122.23a1.64,1.64,0,0,1-.1.6c-.2.26-.49.62-.75.63a1,1,0,0,1-.45-.21,1.07,1.07,0,0,1-.31-.39,2.65,2.65,0,0,1-.07-1.19.77.77,0,0,1,.06-.3.62.62,0,0,1,.17-.26.72.72,0,0,1,.25-.16.8.8,0,0,1,.3-.06c.53,0,.75.34.84.8C196.39,121.86,196.4,122,196.42,122.23Z" transform="translate(-42.61 -13.6)"/><path class="cls-3" d="M214.46,75.69l.41-1.46c.17.57.28,1,.42,1.46Z" transform="translate(-42.61 -13.6)"/><path class="cls-3" d="M205.17,75.72h-.82c.11-.47.22-.89.32-1.32h.11Z" transform="translate(-42.61 -13.6)"/><path class="cls-3" d="M181.22,75.71h-.81l.34-1.32h.1C181,74.8,181.08,75.21,181.22,75.71Z" transform="translate(-42.61 -13.6)"/><path class="cls-3" d="M176.55,121.2c.11.42.23.85.36,1.34h-.82l.33-1.37Z" transform="translate(-42.61 -13.6)"/><path class="cls-3" d="M168.37,75.18V74.13a8.1,8.1,0,0,1,1,.3c.06,0,.07.41,0,.43A6.73,6.73,0,0,1,168.37,75.18Z" transform="translate(-42.61 -13.6)"/><path class="cls-4" d="M190.74,106.44c-1,.31-2,.63-3.05.92s-1.8.5-2.71.73a1.1,1.1,0,0,1-.57,0c-1.92-.54-3.85-1.1-5.77-1.66,0,0-.1,0-.12-.15.85.16,1.73.31,2.59.49l3.25.72a1.72,1.72,0,0,0,.64,0c1.9-.4,3.79-.82,5.7-1.23Z" transform="translate(-42.61 -13.6)"/><path class="cls-4" d="M178.54,102.3c1.49.1,3,.14,4.46.31a20.45,20.45,0,0,0,4-.06c1.14-.09,2.31-.13,3.46-.2a.32.32,0,0,1,.14,0,.28.28,0,0,1,.11.08c-.8.13-1.6.28-2.4.4-1.17.17-2.35.37-3.53.44a11.42,11.42,0,0,1-2.18-.21l-3.64-.57-.41-.1Z" transform="translate(-42.61 -13.6)"/><path class="cls-4" d="M178.52,98.3c.36-.09.72-.18,1.08-.25,1.55-.29,3.1-.64,4.66-.83a8.21,8.21,0,0,1,2.3.23c1.34.24,2.67.53,4,.79a.2.2,0,0,1,.09.05.22.22,0,0,1,.05.08c-.77-.06-1.54-.11-2.31-.2-1.17-.13-2.34-.31-3.52-.44a4.31,4.31,0,0,0-.95.09l-4.67.5-.72.08Z" transform="translate(-42.61 -13.6)"/></g></g><path class="cls-5" d="M149.53,147.37l-2.37-11s-.26-1.2-1.86-.86S144,137,144,137L146.43,148Z" transform="translate(-42.61 -13.6)"/><path class="cls-6" d="M155,65.85l5.18-7.15,3,1.25L155,68.88Z" transform="translate(-42.61 -13.6)"/><path class="cls-7" d="M153.19,130.48,155,128l7.32,8.93-1.78.89Z" transform="translate(-42.61 -13.6)"/><path class="cls-8" d="M220.66,61.68l1.86-1.3,6.43,8-1.69,1.43Z" transform="translate(-42.61 -13.6)"/><g class="cls-9"><path class="cls-10" d="M153.4,148.93a49.38,49.38,0,0,1-5.94-3.91c-1.44-1.33-5.18-9.82-6.05-11.25s-6.21-6.88-7.73-4.85c-.75,1,1.42,3,1.42,3s-1.9-1.21-2.84.18c-.66,1,.8,2.78.8,2.78s-1.86-.72-2.38.44a4.16,4.16,0,0,0,.32,2.89s-1.71-.75-2.38.41c-1,1.75,4.43,8.35,8.76,11.16,1.77,1.14,9.25,8.49,9.25,8.49Z" transform="translate(-42.61 -13.6)"/><path class="cls-5" d="M149.53,147.37l-2.37-11s-.26-1.2-1.86-.86S144,137,144,137L146.43,148Z" transform="translate(-42.61 -13.6)"/><path class="cls-11" d="M145.23,135.36l-1.14-5.29" transform="translate(-42.61 -13.6)"/><path class="cls-12" d="M170.13,137.28l-7.57,18.23s6.65,3.93-12.74-7.72l-6.8,5.48s13,14,16.63,16.69,6,3.47,7.84,1.84,15.72-22.32,15.72-22.32Z" transform="translate(-42.61 -13.6)"/><path class="cls-13" d="M190.84,103.7c-.14.55-.26,1.11-.6,1.24-4.4,1.71-6.94,2.63-6.94,2.63l9.54,38,27.8-37s-9.26-3.06-11.51-5.39" transform="translate(-42.61 -13.6)"/><path class="cls-14" d="M182.69,107.72s-9.58,2.24-13.24,18.86l-3.1,12.11,8.17,6.2Z" transform="translate(-42.61 -13.6)"/><path class="cls-15" d="M212.73,105.05s17.09,6.55,18.54,8.94,2.25,28.62-7.82,53l1.25,13.07-49.65-.49V151.21s-9.1-9.25,0-37.51c0,0,.32-4,14.62-8.64a35.64,35.64,0,0,0-.6,22.73S206.88,106.48,212.73,105.05Z" transform="translate(-42.61 -13.6)"/><path class="cls-14" d="M213.07,104.88s17.1,6.55,18.55,8.94,2.25,28.61-7.82,53l6.48,21.39-61.91,8.92,7-38.62s-9.1-16.71,0-45c0,0,.32-4,14.62-8.64,0,0-4.23,8-.33,20C189.68,124.89,207.23,106.31,213.07,104.88Z" transform="translate(-42.61 -13.6)"/><path class="cls-15" d="M190,104.88l-3.9,1.38s-2.47,13.35,2.3,23.79c0,0,24.19-23.84,27.56-24l-2.9-1.14s-4.84.37-23.39,20C189.68,124.89,185.78,114,190,104.88Z" transform="translate(-42.61 -13.6)"/><path class="cls-13" d="M209.43,143l-3.86,23.3s-13.22-5.69-39.22-9l-4.65,9s38.71,14.89,43.87,16,8,.85,9.17-1.71S229,149.88,229,149.88Z" transform="translate(-42.61 -13.6)"/><path class="cls-15" d="M227.6,113s-13.15-.85-17,16.35c-4,17.57-3.65,20.93-3.65,20.93l21.15,4.63S241.89,116.29,227.6,113Z" transform="translate(-42.61 -13.6)"/><path class="cls-14" d="M228,111.65s-12-3.33-15.59,11.29-5.53,27.29-5.53,27.29L228,155.1S242.32,115,228,111.65Z" transform="translate(-42.61 -13.6)"/><path class="cls-16" d="M170.68,156.88a58.3,58.3,0,0,1-8.12-1.37c-2.15-.74-10.08-8-11.66-9.12s-9.8-4.39-10.45-1.51c-.33,1.43,2.89,2.52,2.89,2.52s-2.59-.39-2.94,1.52c-.24,1.33,2.15,2.58,2.15,2.58s-2.31.11-2.32,1.58,1.69,2.91,1.69,2.91-2.16,0-2.33,1.54c-.24,2.33,8.6,6.78,14.5,7.75,2.4.39,13.76,4.68,13.76,4.68Z" transform="translate(-42.61 -13.6)"/><path class="cls-17" d="M205.31,99s13.19-1-1.35,34.32" transform="translate(-42.61 -13.6)"/><path class="cls-18" d="M201.92,139.21a4.06,4.06,0,1,0-4.06-4.06A4.06,4.06,0,0,0,201.92,139.21Z" transform="translate(-42.61 -13.6)"/><path class="cls-17" d="M191.91,102.89s-7.7,2.16-8.55,17.19" transform="translate(-42.61 -13.6)"/><path class="cls-19" d="M180.5,145.52s5.34-.26,6.77-1.07,2.57-10.92,1.8-14.8" transform="translate(-42.61 -13.6)"/><path class="cls-20" d="M179,146.48l1.84.14a.77.77,0,0,0,.82-.69l.06-.86a.75.75,0,0,0-.7-.81l-1.84-.14a.75.75,0,0,0-.81.69l-.07.86A.75.75,0,0,0,179,146.48Z" transform="translate(-42.61 -13.6)"/><path class="cls-19" d="M182.14,148.54s-5.25-1.06-6.54-2.09-.85-11.17.48-14.9" transform="translate(-42.61 -13.6)"/><path class="cls-20" d="M183.61,147.31l-1.84-.14a.75.75,0,0,0-.81.7l-.07.85a.76.76,0,0,0,.7.82l1.84.14a.75.75,0,0,0,.81-.7l.07-.85A.76.76,0,0,0,183.61,147.31Z" transform="translate(-42.61 -13.6)"/><path class="cls-17" d="M176.26,131.57s1.32-11.94,7.1-11.49,5.92,12.49,5.92,12.49" transform="translate(-42.61 -13.6)"/><path class="cls-13" d="M208.27,104.88c-.33-.22,1.1-1.4.86-1.68-2.82-3.17-3.25-14.47-3.25-14.47L190,90.14s2.13,8.74,1.12,12.59l-.68,2-1,2.28,1.47,2.06" transform="translate(-42.61 -13.6)"/><path class="cls-21" d="M190.22,98.57c-3.93,2.07-8.9.39-12.33-2.45a6.86,6.86,0,0,1-2-2.42c-.81-1.85-.17-4,.69-5.83s1.93-3.66,2-5.68c.12-4.18-3.66-7.7-3.42-11.87.29-5.13,9.55-8.51,12.39-10" transform="translate(-42.61 -13.6)"/><path class="cls-13" d="M209.29,91.9s-10.89,8.54-19.13,9.11-14.72-27.67,0-40.62,26.78,7.07,25.61,16.19A31.92,31.92,0,0,1,209.29,91.9Z" transform="translate(-42.61 -13.6)"/><path class="cls-22" d="M206.32,84.42c-.46-1-11.86-.16-13.71-1.5-4.54-3.28-5.53-.55-7.55,0-1.79.48-1.31.16-3.8.16-1.18,0,.76,6.66,1.21,8.68,0,0,2.11,8.61,6.19,9.37,8.79,1.65,17.48-6.14,17.79-6.92,0,0-3-2.28-.24-8A2.5,2.5,0,0,0,206.32,84.42Z" transform="translate(-42.61 -13.6)"/><path class="cls-21" d="M205.14,76.81c1.82,0,2.53,1.4,2.4,3.21a19.87,19.87,0,0,1-1.61,5.19A22.38,22.38,0,0,0,204.81,96a2.74,2.74,0,0,0,.91,2,3,3,0,0,0,1.85.28c5.52-.38,4.66,2.91,15.44.11,5.25-1.36,5.84-3.32,6.14-4.27s-.67-2-.79-3.07c-.24-2,1.64-3.61,2.76-5.34,2.61-4,.28-10.33-4.34-11.71-1.67-.5-3.66-.51-4.83-1.81-1.33-1.49-.85-3.79-1-5.78a8.49,8.49,0,0,0-8.32-7.52c-1.43,0-2.91.41-4.23-.1-1.62-.64-2.44-2.39-3.53-3.76-3.08-3.86-10.48-4.48-14.37-1.42s-8.75,9.85-5.72,13.75C184.76,67.38,189.45,76.8,205.14,76.81Z" transform="translate(-42.61 -13.6)"/><path class="cls-23" d="M181.89,78.4l1.11-.48a3.71,3.71,0,0,1,.46-.19,3.3,3.3,0,0,1,.62-.15,2.85,2.85,0,0,1,.41,0h.34a3.63,3.63,0,0,1,.57.13,3.5,3.5,0,0,1,.65.3l1,.62a2.13,2.13,0,0,0-.86-.9,3.06,3.06,0,0,0-.71-.33,3.61,3.61,0,0,0-.65-.15h-.4l-.44,0a5.2,5.2,0,0,0-.68.17,4.19,4.19,0,0,0-.49.2A2.4,2.4,0,0,0,181.89,78.4Z" transform="translate(-42.61 -13.6)"/><path class="cls-23" d="M197.23,78.38a2.67,2.67,0,0,0-1.09-.78l-.53-.19a8.27,8.27,0,0,0-.83-.19l-.55,0h-.13a2.18,2.18,0,0,0-.34,0,4.36,4.36,0,0,0-.8.16,4.45,4.45,0,0,0-.78.33,2.42,2.42,0,0,0-1,.9c.41-.22.69-.34,1.14-.59a4.51,4.51,0,0,1,.72-.29,4.29,4.29,0,0,1,.73-.15h.42a2.74,2.74,0,0,1,.5,0,4.91,4.91,0,0,1,.78.17c.29.09.43.15.51.18C196.49,78.13,196.79,78.22,197.23,78.38Z" transform="translate(-42.61 -13.6)"/><path class="cls-21" d="M187.64,63.81s-6,11.81-6.22,16.84c-.14,2.87-2.85-11.48-2.85-11.48S182.35,59.87,187.64,63.81Z" transform="translate(-42.61 -13.6)"/><path class="cls-24" d="M147.46,139.22l-1,.24" transform="translate(-42.61 -13.6)"/><path class="cls-24" d="M147.89,141.19l-1,.24" transform="translate(-42.61 -13.6)"/><path class="cls-24" d="M148.35,143.16l-1,.24" transform="translate(-42.61 -13.6)"/></g><g class="cls-25"><path class="cls-26" d="M88.58,54.29c-.75-2.18-1.5-4.91-3.74-5.46-1.35-.33-2.77.32-4.15.12-1.57-.22-2.73-1.47-4-2.4A92.17,92.17,0,0,0,55.77,93.3c1.9.55,4.27.76,4.4,2.57.1,1.46-.78,2.94-.33,4.34.7,2.18,3.82,2.2,6,1.39s4.62-2,6.57-.77c-.57,2.34,1.51,4.66,3.85,5.24s4.78-.07,7.09-.73a3.45,3.45,0,0,0,1.94-1c.46-.59.93-1.68.41-2.28-3.38-3.76.88-4.33-1-8.28-1.52-3.28-6.38-1.82-2.92-4.65,2.42-1.57,1.63-3.7.43-5.17s-2.85-3.37-1.82-5c1.21-1.88,4.33-.5,6.31-1.55,3.45-1.84.45-7.25,1.8-10.12.85-1.82,2.7-2.11,3.88-3.7A7.87,7.87,0,0,0,93.57,59C93.29,56.67,89.34,56.47,88.58,54.29Z" transform="translate(-42.61 -13.6)"/><path class="cls-27" d="M149.73,166.79c.23,4.29-24.47,25.07-26.84,28.66l-17.4-5S128,168.22,128,166.11c.12-4-6.31-14.07-8.68-17.33-3.41-4.71-4.49-10.94-8.51-15.15a4.83,4.83,0,0,1-1.54-2.24,3.8,3.8,0,0,1,.21-1.8c1.62-5.37,5.65-9.69,10.32-12.77,4.29-2.85,6.88.68,10.31,6.49C136.06,133.35,149.08,154.54,149.73,166.79Z" transform="translate(-42.61 -13.6)"/><path class="cls-28" d="M128,117.94a39.9,39.9,0,0,0-7.93-7.08c-3.23-2.65-10.2-5.44-10.2-5.44-1,4.63,2.18,5.82-14.77,14.06-4.34,2.1-31.62-21.75-31.62-21.75s-2.15.8-6.75,2.28c0,0-13.63,3.57-14.11,9s5.68,28.65,5.68,28.65,1.42,28.44,9.92,51.62h50.05c-.32-2.3.36-9.8.67-14.2.28-4.18,5.87-9.37,8.14-12.88,5.73-8.83,2.28-15.06,2-18.14C118.33,132.85,128,117.94,128,117.94Z" transform="translate(-42.61 -13.6)"/><path class="cls-26" d="M81.14,50.68c-1.8-6.43,7.37-13.51,14.11-10.35,1.23.57,7.72,5.66,9,6,4.12,1,8.85-2.33,12.47-.11s3.44,8.47,7.44,9.74c1.67.54,3.77,0,5,1.24,2.38,2.3-1.68,6-1.47,9.28.14,2.25,2.22,3.78,3.91,5.26a8.59,8.59,0,0,1,2.19,2.82,2.38,2.38,0,0,1,.19,1.06,2.49,2.49,0,0,1-.29,1,2.31,2.31,0,0,1-.73.79,2.42,2.42,0,0,1-1,.4l-3.52.51c1.51,2.82,3.08,5.83,2.84,9s-3,6.41-6.18,5.79c.33,2.88-.08,6-1.89,8.26s-5.3,3.33-7.77,1.81c-1.72-1.07-3.93-3.18-5.22-1.62.79,2.1,3.86,2.9,2.36,6.29-4.36,1.26-9,.9-12.21-2.3,1.22,1.64-1,3.31-3,3.19s-3.54-2.19-3.7-4.23-13.2,5.86-8.26-7.41c.71-1.91,12.25-1.82,12.84-3.78C99.89,88,96.6,82,98.76,76.88c.46-1.1,1.16-2.09,1.68-3.17,1.63-3.36,1.43-7.28,1.18-11-.25-4-5,.16-6.74-3.37s-7.67-1.88-11.6-1.49" transform="translate(-42.61 -13.6)"/><path class="cls-27" d="M74.4,87.26s7.2,11.15,4.77,21.37L96,138.2l6.52-28S95.24,105,97.8,97.64,74.4,87.26,74.4,87.26Z" transform="translate(-42.61 -13.6)"/><path class="cls-29" d="M65.73,91.26a11,11,0,0,0-4.38,7.28,8.37,8.37,0,0,0,2.27,6.52c.74.78,1.63,1.41,2.35,2.21,3.42,3.74,2.13,9.64,3.35,14.56a14.4,14.4,0,0,0,12.49,10.6,6.54,6.54,0,0,1,2.46.43c1.67.83,2,3.08,3.4,4.36,1.69,1.6,4.35,1.29,6.64.88,3.48-.62,7.07-1.29,10-3.21s5.18-5.47,4.47-8.94c-.44-2.17-2-4.09-2-6.31a23,23,0,0,1,.67-3.91c.2-1.31,0-2.85-1.09-3.61-.63-.45-1.52-.62-1.85-1.31-.24-.5-.09-1.12-.3-1.63a1.71,1.71,0,0,0-2.43-.57,4,4,0,0,0-1.51,2.33,14.67,14.67,0,0,0-.6,5.78,16.76,16.76,0,0,1,.27,4.11,3.22,3.22,0,0,1-2.52,2.88,3.74,3.74,0,0,1-3-1.57c-4-4.64-3.21-12-7.21-16.64-2.85-3.29-8-5-8.75-9.33C78,93.35,80.73,88.34,77,87,73.9,85.91,68,89.4,65.73,91.26Z" transform="translate(-42.61 -13.6)"/><path class="cls-27" d="M73.38,77.54c3.89,9.79,8.51,20.24,19.5,24.06a8.25,8.25,0,0,0,2.83.89,5.63,5.63,0,0,0,2.89-1.25,30.92,30.92,0,0,0,5.12-45.91s-8-10.66-23.18.8C70.74,63.56,73.38,77.54,73.38,77.54Z" transform="translate(-42.61 -13.6)"/><path class="cls-26" d="M87.65,57.26a10.7,10.7,0,0,0-1.81,1.53c-1.39,1.91.63,4.6,2.85,5.41s4.81.78,6.7,2.21C98.81,69,98.3,75,102,77.08c3.1,1.76,7-.38,10.54.26a3.56,3.56,0,0,1,2.11,1.08c.41.49.61,1.14,1,1.65,1.51,2.14,5.24,1.26,6.51-1s.68-5.17-.32-7.59-2.43-4.72-2.85-7.31c-.37-2.33.07-4.86-1-6.94-1-1.79-2.85-2.85-4.71-3.62a58.94,58.94,0,0,0-10.39-2.85l-5.69-1.19C94.7,49,89,47.32,87.89,50,87,52.24,90.72,54.6,87.65,57.26Z" transform="translate(-42.61 -13.6)"/><path class="cls-30" d="M97.12,77.49a1.93,1.93,0,0,1-1.77,0c-.93-.3-2.45-1.92-2.23-2.84" transform="translate(-42.61 -13.6)"/><path class="cls-30" d="M98,77.88a2,2,0,0,1-1.86-2.59" transform="translate(-42.61 -13.6)"/><path class="cls-30" d="M98.47,78.08c-.67.15-1-1.36-.81-1.87" transform="translate(-42.61 -13.6)"/><path class="cls-30" d="M106.78,79.69a1.65,1.65,0,0,0,1.45.78c.84.1,3.42-1.13,3.61-2.06" transform="translate(-42.61 -13.6)"/><path class="cls-30" d="M105.94,79.7a1.88,1.88,0,0,0,2.6-1.57" transform="translate(-42.61 -13.6)"/><path class="cls-30" d="M105.43,79.67c.49.41,1.39-.81,1.45-1.35" transform="translate(-42.61 -13.6)"/><path class="cls-31" d="M81.62,83.86s15-.46,18.9.4c2.39.52,2.71-.06,4.12.42,1.85.62,1.54,1.14,3.13,2.83a8.21,8.21,0,0,1,1.28,1.71s-8,14.76-14,13.33C87.43,100.76,80.25,91.27,81.62,83.86Z" transform="translate(-42.61 -13.6)"/><path class="cls-26" d="M86.72,77.39c-2,1.06-5.1-.33-6.31,1.56-1,1.6.62,3.5,1.82,5s2,3.6-.43,5.17c-3.46,2.82,1.4,1.36,2.91,4.65,1.84,4-2.42,4.52,1,8.28.52.58.07,1.64-.41,2.28a3.34,3.34,0,0,1-1.94,1c-2.31.65-4.76,1.32-7.1.73s-4.42-2.91-3.84-5.24c-1.95-1.22-4.42,0-6.57.76s-5.27.8-6-1.39c-.45-1.39.43-2.88.33-4.34-.22-2.91-6.27-1.65-6.75-4.42a6.74,6.74,0,0,1,1-2.71,6.51,6.51,0,0,1,2.06-2c-.84-2.36-3.5-3.4-5.73-4.54S46.2,78.82,47,76.43c.95-3,5.5-2.89,7.34-5.41,1.48-2,.67-4.82,0-7.23s-.79-5.53,1.33-6.86c1.86-1.16,10.53-1.18,12.48-.17,1-3.34-4.11-5.79-1.74-8.36s6.39-4,9.46-2.32c1.66.91,3,2.63,4.82,2.89,1.38.2,2.8-.45,4.15-.12,2.24.55,3,3.28,3.74,5.46s4.71,2.38,5,4.67a7.87,7.87,0,0,1-1.16,4.61c-1.18,1.59-3,1.89-3.89,3.7C87.17,70.14,90.17,75.56,86.72,77.39Z" transform="translate(-42.61 -13.6)"/><path class="cls-32" d="M99.32,113.18c.68,2.85-1.59,4.81.29,10.34.66,2,.48,6.06-2.9,7.54-1.89.82-3.71.19-5.35,1.42-3.47,2.59-4.27,2.05-4.67,2.34-1.21.85,3,.81,4.1,1.77A6.3,6.3,0,0,0,95,137.67c1.55,0,3.26-.2,4.33-1.33s1.21-3.08,2.28-4.33a14.35,14.35,0,0,1,1.22-1.11,8.75,8.75,0,0,0,2.52-5.6,26.41,26.41,0,0,0-.38-6.27c-.48-3.34-4.72-10.87-6.55-13.53C97.6,108.33,98.63,110.33,99.32,113.18Z" transform="translate(-42.61 -13.6)"/><path class="cls-33" d="M106.73,108.24a21.8,21.8,0,0,0,5.93-.11c2.35-.25,4.56,4.79,5.22,6.69,1.17,3.33.77,7.74,1.05,11.26s.52,7.29-1,10.51a17,17,0,0,1-3.8,4.93c-3.76,3.65-8.49,6.77-13.73,6.87s-10.78-3.79-10.9-9a16.4,16.4,0,0,1-12.78-4c-1.51-1.35-2.65-4-1-5.15.93-.63,2.18-.3,3.25,0a26,26,0,0,1,7.52,3.36,9.53,9.53,0,0,0,2,1.33c1.55.63,3.3.11,4.88-.42a21.84,21.84,0,0,0,6.17-2.8A7.42,7.42,0,0,0,102.9,126c0-3.07-2.33-5.52-2.66-8.52-.16-1.52.49-3.1.12-4.6s-1.73-2.48-2-4c-.5-3.06,0-3.41,0-3.41C100.08,104.91,103.14,107.83,106.73,108.24Z" transform="translate(-42.61 -13.6)"/><path class="cls-29" d="M109,114.3c-.25,8,10.17,6-1.42,22.33-1.68,2.36,2.8,3.76-2.42,8.4-3.4,3-5.78,2.9-5.22,3.37,1,.85,6.17-.86,9.11-2.22,4.1-1.91,8.11-4.71,10-8.83a18.2,18.2,0,0,0,1.31-6.62,57.38,57.38,0,0,0-1.22-15.07c-.74-3.39-2.41-8.33-6.4-7.67a18.77,18.77,0,0,1-4.18.37l-1.74-.13S109.1,110,109,114.3Z" transform="translate(-42.61 -13.6)"/><path class="cls-26" d="M86.72,77.39c-2,1.06-5.1-.33-6.31,1.56-1,1.6.62,3.5,1.82,5s2,3.6-.43,5.17c-3.46,2.82,1.4,1.36,2.91,4.65,1.84,4-2.42,4.52,1,8.28.52.58.07,1.64-.41,2.28a3.34,3.34,0,0,1-1.94,1c-2.31.65-4.76,1.32-7.1.73s-4.42-2.91-3.84-5.24c-1.95-1.22-4.42,0-6.57.76s-5.27.8-6-1.39c-.45-1.39.43-2.88.33-4.34-.22-2.91-6.27-1.65-6.75-4.42a6.74,6.74,0,0,1,1-2.71,6.51,6.51,0,0,1,2.06-2c-.84-2.36-3.5-3.4-5.73-4.54S46.2,78.82,47,76.43c.95-3,5.5-2.89,7.34-5.41,1.48-2,.67-4.82,0-7.23s-.79-5.53,1.33-6.86c1.86-1.16,10.53-1.18,12.48-.17,1-3.34-4.11-5.79-1.74-8.36s6.39-4,9.46-2.32c1.66.91,3,2.63,4.82,2.89,1.38.2,2.8-.45,4.15-.12,2.24.55,3,3.28,3.74,5.46s4.71,2.38,5,4.67a7.87,7.87,0,0,1-1.16,4.61c-1.18,1.59-3,1.89-3.89,3.7C87.17,70.14,90.17,75.56,86.72,77.39Z" transform="translate(-42.61 -13.6)"/></g></svg>