<svg id="Layer_1" data-name="Layer 1" xmlns="http://www.w3.org/2000/svg" xmlns:xlink="http://www.w3.org/1999/xlink" viewBox="0 0 105.87 145.45"><defs><style>.cls-1{fill:#eae3d6;}.cls-2{mask:url(#mask);}.cls-3{fill:#96c0e0;}.cls-4{fill:#fff;}.cls-18,.cls-4,.cls-5{stroke:#231f20;}.cls-4,.cls-5{stroke-width:0.29px;opacity:0.59;}.cls-4,.cls-5,.cls-9{isolation:isolate;}.cls-11,.cls-13,.cls-18,.cls-5{fill:none;}.cls-6{fill:#c08a64;}.cls-7{fill:#c78f68;}.cls-8{fill:#2d9e9e;}.cls-17,.cls-9{fill:#231f20;}.cls-9{opacity:0.17;}.cls-10{fill:#9fcced;}.cls-11,.cls-12{stroke:#464547;}.cls-11,.cls-12,.cls-13{stroke-linecap:round;stroke-miterlimit:10;}.cls-11{stroke-width:1.5px;}.cls-12{fill:#6b6c6f;stroke-width:0.85px;}.cls-13{stroke:#919396;stroke-width:0.9px;}.cls-14{fill:#545456;}.cls-15{fill:#2a1e2b;}.cls-16{fill:#4d4d4f;}.cls-18{stroke-width:0.11px;}</style><mask id="mask" x="-74.36" y="-38.07" width="185.15" height="185.15" maskUnits="userSpaceOnUse"><g transform="translate(-128.5 -51.67)"><g id="mask0"><path class="cls-1" d="M146.72,198.75a92.58,92.58,0,1,0-92.58-92.58A92.57,92.57,0,0,0,146.72,198.75Z"/></g></g></mask></defs><g class="cls-2"><path class="cls-3" d="M153.4,148.93a49.38,49.38,0,0,1-5.94-3.91c-1.44-1.33-5.18-9.82-6.05-11.25s-6.21-6.88-7.73-4.85c-.75,1,1.42,3,1.42,3s-1.9-1.21-2.84.18c-.66,1,.8,2.78.8,2.78s-1.86-.72-2.38.44a4.16,4.16,0,0,0,.32,2.89s-1.71-.75-2.38.41c-1,1.75,4.43,8.35,8.76,11.16,1.77,1.14,9.25,8.49,9.25,8.49Z" transform="translate(-128.5 -51.67)"/><path class="cls-4" d="M149.53,147.37l-2.37-11s-.26-1.2-1.86-.86S144,137,144,137L146.43,148Z" transform="translate(-128.5 -51.67)"/><path class="cls-5" d="M145.23,135.36l-1.14-5.29" transform="translate(-128.5 -51.67)"/><path class="cls-6" d="M170.13,137.28l-7.57,18.23s6.65,3.93-12.74-7.72l-6.8,5.48s13,14,16.63,16.69,6,3.47,7.84,1.84,15.72-22.32,15.72-22.32Z" transform="translate(-128.5 -51.67)"/><path class="cls-7" d="M190.84,103.7c-.14.55-.26,1.11-.6,1.24-4.4,1.71-6.94,2.63-6.94,2.63l9.54,38,27.8-37s-9.26-3.06-11.51-5.39" transform="translate(-128.5 -51.67)"/><path class="cls-8" d="M182.69,107.72s-9.58,2.24-13.24,18.86l-3.1,12.11,8.17,6.2Z" transform="translate(-128.5 -51.67)"/><path class="cls-9" d="M212.73,105.05s17.09,6.55,18.54,8.94,2.25,28.62-7.82,53l1.25,13.07-49.65-.49V151.21s-9.1-9.25,0-37.51c0,0,.32-4,14.62-8.64a35.64,35.64,0,0,0-.6,22.73S206.88,106.48,212.73,105.05Z" transform="translate(-128.5 -51.67)"/><path class="cls-8" d="M213.07,104.88s17.1,6.55,18.55,8.94,2.25,28.61-7.82,53l6.48,21.39-61.91,8.92,7-38.62s-9.1-16.71,0-45c0,0,.32-4,14.62-8.64,0,0-4.23,8-.33,20C189.68,124.89,207.23,106.31,213.07,104.88Z" transform="translate(-128.5 -51.67)"/><path class="cls-9" d="M190,104.88l-3.9,1.38s-2.47,13.35,2.3,23.79c0,0,24.19-23.84,27.56-24l-2.9-1.14s-4.84.37-23.39,20C189.68,124.89,185.78,114,190,104.88Z" transform="translate(-128.5 -51.67)"/><path class="cls-7" d="M209.43,143l-3.86,23.3s-13.22-5.69-39.22-9l-4.65,9s38.71,14.89,43.87,16,8,.85,9.17-1.71S229,149.88,229,149.88Z" transform="translate(-128.5 -51.67)"/><path class="cls-9" d="M227.6,113s-13.15-.85-17,16.35c-4,17.57-3.65,20.93-3.65,20.93l21.15,4.63S241.89,116.29,227.6,113Z" transform="translate(-128.5 -51.67)"/><path class="cls-8" d="M228,111.65s-12-3.33-15.59,11.29-5.53,27.29-5.53,27.29L228,155.1S242.32,115,228,111.65Z" transform="translate(-128.5 -51.67)"/><path class="cls-10" d="M170.68,156.88a58.3,58.3,0,0,1-8.12-1.37c-2.15-.74-10.08-8-11.66-9.12s-9.8-4.39-10.45-1.51c-.33,1.43,2.89,2.52,2.89,2.52s-2.59-.39-2.94,1.52c-.24,1.33,2.15,2.58,2.15,2.58s-2.31.11-2.32,1.58,1.69,2.91,1.69,2.91-2.16,0-2.33,1.54c-.24,2.33,8.6,6.78,14.5,7.75,2.4.39,13.76,4.68,13.76,4.68Z" transform="translate(-128.5 -51.67)"/><path class="cls-11" d="M205.31,99s13.19-1-1.35,34.32" transform="translate(-128.5 -51.67)"/><path class="cls-12" d="M201.92,139.21a4.06,4.06,0,1,0-4.06-4.06A4.06,4.06,0,0,0,201.92,139.21Z" transform="translate(-128.5 -51.67)"/><path class="cls-11" d="M191.91,102.89s-7.7,2.16-8.55,17.19" transform="translate(-128.5 -51.67)"/><path class="cls-13" d="M180.5,145.52s5.34-.26,6.77-1.07,2.57-10.92,1.8-14.8" transform="translate(-128.5 -51.67)"/><path class="cls-14" d="M179,146.48l1.84.14a.77.77,0,0,0,.82-.69l.06-.86a.75.75,0,0,0-.7-.81l-1.84-.14a.75.75,0,0,0-.81.69l-.07.86A.75.75,0,0,0,179,146.48Z" transform="translate(-128.5 -51.67)"/><path class="cls-13" d="M182.14,148.54s-5.25-1.06-6.54-2.09-.85-11.17.48-14.9" transform="translate(-128.5 -51.67)"/><path class="cls-14" d="M183.61,147.31l-1.84-.14a.75.75,0,0,0-.81.7l-.07.85a.76.76,0,0,0,.7.82l1.84.14a.75.75,0,0,0,.81-.7l.07-.85A.76.76,0,0,0,183.61,147.31Z" transform="translate(-128.5 -51.67)"/><path class="cls-11" d="M176.26,131.57s1.32-11.94,7.1-11.49,5.92,12.49,5.92,12.49" transform="translate(-128.5 -51.67)"/><path class="cls-7" d="M208.27,104.88c-.33-.22,1.1-1.4.86-1.68-2.82-3.17-3.25-14.47-3.25-14.47L190,90.14s2.13,8.74,1.12,12.59l-.68,2-1,2.28,1.47,2.06" transform="translate(-128.5 -51.67)"/><path class="cls-15" d="M190.22,98.57c-3.93,2.07-8.9.39-12.33-2.45a6.86,6.86,0,0,1-2-2.42c-.81-1.85-.17-4,.69-5.83s1.93-3.66,2-5.68c.12-4.18-3.66-7.7-3.42-11.87.29-5.13,9.55-8.51,12.39-10" transform="translate(-128.5 -51.67)"/><path class="cls-7" d="M209.29,91.9s-10.89,8.54-19.13,9.11-14.72-27.67,0-40.62,26.78,7.07,25.61,16.19A31.92,31.92,0,0,1,209.29,91.9Z" transform="translate(-128.5 -51.67)"/><path class="cls-16" d="M206.32,84.42c-.46-1-11.86-.16-13.71-1.5-4.54-3.28-5.53-.55-7.55,0-1.79.48-1.31.16-3.8.16-1.18,0,.76,6.66,1.21,8.68,0,0,2.11,8.61,6.19,9.37,8.79,1.65,17.48-6.14,17.79-6.92,0,0-3-2.28-.24-8A2.5,2.5,0,0,0,206.32,84.42Z" transform="translate(-128.5 -51.67)"/><path class="cls-15" d="M205.14,76.81c1.82,0,2.53,1.4,2.4,3.21a19.87,19.87,0,0,1-1.61,5.19A22.38,22.38,0,0,0,204.81,96a2.74,2.74,0,0,0,.91,2,3,3,0,0,0,1.85.28c5.52-.38,4.66,2.91,15.44.11,5.25-1.36,5.84-3.32,6.14-4.27s-.67-2-.79-3.07c-.24-2,1.64-3.61,2.76-5.34,2.61-4,.28-10.33-4.34-11.71-1.67-.5-3.66-.51-4.83-1.81-1.33-1.49-.85-3.79-1-5.78a8.49,8.49,0,0,0-8.32-7.52c-1.43,0-2.91.41-4.23-.1-1.62-.64-2.44-2.39-3.53-3.76-3.08-3.86-10.48-4.48-14.37-1.42s-8.75,9.85-5.72,13.75C184.76,67.38,189.45,76.8,205.14,76.81Z" transform="translate(-128.5 -51.67)"/><path class="cls-17" d="M181.89,78.4l1.11-.48a3.71,3.71,0,0,1,.46-.19,3.3,3.3,0,0,1,.62-.15,2.85,2.85,0,0,1,.41,0h.34a3.63,3.63,0,0,1,.57.13,3.5,3.5,0,0,1,.65.3l1,.62a2.13,2.13,0,0,0-.86-.9,3.06,3.06,0,0,0-.71-.33,3.61,3.61,0,0,0-.65-.15h-.4l-.44,0a5.2,5.2,0,0,0-.68.17,4.19,4.19,0,0,0-.49.2A2.4,2.4,0,0,0,181.89,78.4Z" transform="translate(-128.5 -51.67)"/><path class="cls-17" d="M197.23,78.38a2.67,2.67,0,0,0-1.09-.78l-.53-.19a8.27,8.27,0,0,0-.83-.19l-.55,0h-.13a2.18,2.18,0,0,0-.34,0,4.36,4.36,0,0,0-.8.16,4.45,4.45,0,0,0-.78.33,2.42,2.42,0,0,0-1,.9c.41-.22.69-.34,1.14-.59a4.51,4.51,0,0,1,.72-.29,4.29,4.29,0,0,1,.73-.15h.42a2.74,2.74,0,0,1,.5,0,4.91,4.91,0,0,1,.78.17c.29.09.43.15.51.18C196.49,78.13,196.79,78.22,197.23,78.38Z" transform="translate(-128.5 -51.67)"/><path class="cls-15" d="M187.64,63.81s-6,11.81-6.22,16.84c-.14,2.87-2.85-11.48-2.85-11.48S182.35,59.87,187.64,63.81Z" transform="translate(-128.5 -51.67)"/><path class="cls-18" d="M147.46,139.22l-1,.24" transform="translate(-128.5 -51.67)"/><path class="cls-18" d="M147.89,141.19l-1,.24" transform="translate(-128.5 -51.67)"/><path class="cls-18" d="M148.35,143.16l-1,.24" transform="translate(-128.5 -51.67)"/></g></svg>