<svg id="Layer_1" data-name="Layer 1" xmlns="http://www.w3.org/2000/svg" viewBox="0 0 84 84"><defs><style>.cls-1{fill:#eda621;}.cls-2{fill:#eae3d6;}.cls-3{fill:#c68f68;}.cls-4{fill:#2a9e9e;}.cls-12,.cls-5{fill:#231f20;}.cls-5{opacity:0.17;isolation:isolate;}.cls-6,.cls-8{fill:none;}.cls-6,.cls-7{stroke:#464547;}.cls-6,.cls-7,.cls-8{stroke-linecap:round;stroke-miterlimit:10;}.cls-6{stroke-width:4.07px;}.cls-7{fill:#6c6c6f;stroke-width:2.31px;}.cls-8{stroke:#919396;stroke-width:2.44px;}.cls-9{fill:#555556;}.cls-10{fill:#2a1e2b;}.cls-11{fill:#4e4e4f;}</style></defs><path class="cls-1" d="M306.38,438.4a42,42,0,1,0-42-42A42,42,0,0,0,306.38,438.4Z" transform="translate(-264.38 -354.4)"/><path class="cls-2" d="M306.38,435.94a39.55,39.55,0,1,0-39.55-39.54A39.54,39.54,0,0,0,306.38,435.94Z" transform="translate(-264.38 -354.4)"/><path class="cls-3" d="M283.64,428.76a41,41,0,0,0,6.44,3.68l1.14-4.95-6.74-.92Z" transform="translate(-264.38 -354.4)"/><path class="cls-3" d="M301.11,402.81c-.1.38-.18.76-.41.85-3,1.16-4.71,1.77-4.71,1.77l6.48,25.84,18.87-25.13s-6.28-2.07-7.81-3.66" transform="translate(-264.38 -354.4)"/><path class="cls-4" d="M295.57,405.53s-6.5,1.54-9,12.81l-2.1,8.23,5.56,4.21Z" transform="translate(-264.38 -354.4)"/><path class="cls-4" d="M316.37,401.43c-4,1-15.89,13.58-15.89,13.58-2.64-8.17.22-13.58.22-13.58-9.7,3.18-9.92,5.86-9.92,5.86l-2.93,24a39.59,39.59,0,0,0,40-1.7c2.33-11.42,1.85-21,1.14-22.13C328,405.87,316.37,401.43,316.37,401.43Z" transform="translate(-264.38 -354.4)"/><path class="cls-5" d="M300.54,403.61l-2.65.94s-1.67,9.06,1.57,16.15c0,0,16.42-16.19,18.72-16.32l-2-.77s-3.29.25-15.88,13.59C300.32,417.21,297.67,409.8,300.54,403.61Z" transform="translate(-264.38 -354.4)"/><path class="cls-4" d="M326.36,408.21s-8.18-2.27-10.59,7.66S312,434.4,312,434.4l2.76.66a39.33,39.33,0,0,0,14.16-6.17C330.92,420.7,332.4,409.62,326.36,408.21Z" transform="translate(-264.38 -354.4)"/><path class="cls-6" d="M310.93,399.63s9-.68-.91,23.3" transform="translate(-264.38 -354.4)"/><path class="cls-7" d="M308.63,426.93a2.76,2.76,0,1,0-2.75-2.76A2.76,2.76,0,0,0,308.63,426.93Z" transform="translate(-264.38 -354.4)"/><path class="cls-6" d="M301.83,402.26s-5.23,1.47-5.79,11.67" transform="translate(-264.38 -354.4)"/><path class="cls-8" d="M294.08,431.2s3.63-.17,4.61-.72,1.73-7.41,1.22-10.05" transform="translate(-264.38 -354.4)"/><path class="cls-9" d="M293.4,431.88l.67.05a.8.8,0,0,0,.86-.74h0a.79.79,0,0,0-.74-.86l-.67-.05a.8.8,0,0,0-.86.74h0A.81.81,0,0,0,293.4,431.88Z" transform="translate(-264.38 -354.4)"/><path class="cls-8" d="M295.2,433.26s-3.56-.72-4.44-1.42-.59-7.59.33-10.12" transform="translate(-264.38 -354.4)"/><path class="cls-9" d="M295.9,432.41l-.68-.05a.8.8,0,0,0-.86.74h0a.8.8,0,0,0,.74.86l.67,0a.81.81,0,0,0,.87-.74h0A.81.81,0,0,0,295.9,432.41Z" transform="translate(-264.38 -354.4)"/><path class="cls-6" d="M291.22,421.73s.89-8.1,4.82-7.79,4,8.47,4,8.47" transform="translate(-264.38 -354.4)"/><path class="cls-3" d="M313,403.61c-.23-.15.74-.95.58-1.14-1.92-2.15-2.21-9.81-2.21-9.81l-10.77,1s1.45,5.92.76,8.54l-.46,1.38-.68,1.55,1,1.39" transform="translate(-264.38 -354.4)"/><path class="cls-10" d="M300.69,399.33c-2.67,1.4-6.05.26-8.38-1.67a4.66,4.66,0,0,1-1.38-1.64,4.93,4.93,0,0,1,.47-4,10.2,10.2,0,0,0,1.35-3.85c.09-2.84-2.48-5.24-2.32-8.06.2-3.48,6.48-5.8,8.41-6.78" transform="translate(-264.38 -354.4)"/><path class="cls-3" d="M313.64,394.79s-7.4,5.8-13,6.22-10-18.81,0-27.61,18.19,4.8,17.38,11A21.69,21.69,0,0,1,313.64,394.79Z" transform="translate(-264.38 -354.4)"/><path class="cls-11" d="M311.62,389.73c-.32-.71-8.05-.11-9.31-1-3.08-2.22-3.76-.37-5.13,0s-.88.11-2.58.11c-.8,0,.52,4.52.82,5.89,0,0,1.43,5.84,4.2,6.36,6,1.12,11.88-4.17,12.09-4.7,0,0-2-1.54-.16-5.43A1.69,1.69,0,0,0,311.62,389.73Z" transform="translate(-264.38 -354.4)"/><path class="cls-10" d="M310.83,384.55c1.23,0,1.72.95,1.63,2.18a12.48,12.48,0,0,1-1.09,3.52,15.22,15.22,0,0,0-.76,7.36,1.86,1.86,0,0,0,.62,1.33,2,2,0,0,0,1.25.19c3.76-.25,3.17,2,10.49.08,3.56-.93,4-2.26,4.17-2.9s-.45-1.36-.54-2.08c-.16-1.38,1.12-2.45,1.88-3.62a5.57,5.57,0,0,0-3-8c-1.14-.32-2.48-.35-3.27-1.23s-.58-2.57-.69-3.93a5.84,5.84,0,0,0-5.68-5.1,7.47,7.47,0,0,1-2.87-.07c-1.1-.43-1.66-1.64-2.4-2.55-2.09-2.62-7.12-3-9.75-1s-5.95,6.71-3.89,9.36C297,378.15,300.17,384.54,310.83,384.55Z" transform="translate(-264.38 -354.4)"/><path class="cls-12" d="M295,385.63a1.26,1.26,0,0,0,.54-.13,2.9,2.9,0,0,1,.7-.3,2.18,2.18,0,0,1,.57-.08,1.77,1.77,0,0,1,.56.09,2.72,2.72,0,0,1,.65.35,1.07,1.07,0,0,0,.51.2.71.71,0,0,0-.09-.28.67.67,0,0,0-.19-.22,2.85,2.85,0,0,0-.77-.41,2.25,2.25,0,0,0-.68-.11,2.84,2.84,0,0,0-.65.1,3.36,3.36,0,0,0-.79.32.83.83,0,0,0-.22.2A.7.7,0,0,0,295,385.63Z" transform="translate(-264.38 -354.4)"/><path class="cls-12" d="M305.45,385.61a.84.84,0,0,0-.43-.46,4.7,4.7,0,0,0-.91-.33,3.08,3.08,0,0,0-.75-.09,2.84,2.84,0,0,0-.76.1,3.5,3.5,0,0,0-.88.4.76.76,0,0,0-.24.23.83.83,0,0,0-.14.3,1.53,1.53,0,0,0,.59-.2,3.15,3.15,0,0,1,.77-.35,2.13,2.13,0,0,1,.66-.08,2.82,2.82,0,0,1,.65.08,3.48,3.48,0,0,1,.82.29A1.45,1.45,0,0,0,305.45,385.61Z" transform="translate(-264.38 -354.4)"/><path class="cls-10" d="M298.93,375.72s-4.06,8-4.22,11.43c-.09,2-1.93-7.79-1.93-7.79S295.35,373,298.93,375.72Z" transform="translate(-264.38 -354.4)"/></svg>