<svg id="Layer_1" data-name="Layer 1" xmlns="http://www.w3.org/2000/svg" viewBox="0 0 83 83"><defs><style>.cls-1{fill:#eda620;}.cls-2{fill:#eae3d6;}.cls-3{fill:#c08c5a;}.cls-4{fill:#a5c532;}.cls-5{fill:#93aa26;}.cls-6{fill:#e4b517;}.cls-7{fill:#f0cd06;}</style></defs><path class="cls-1" d="M144,321.07a41.5,41.5,0,1,0-41.5-41.5A41.5,41.5,0,0,0,144,321.07Z" transform="translate(-102.51 -238.07)"/><path class="cls-2" d="M144,318.57a39.07,39.07,0,1,0-39.07-39.07A39.07,39.07,0,0,0,144,318.57Z" transform="translate(-102.51 -238.07)"/><path class="cls-3" d="M161,279.57c-1.67,5.76-4.46,18.43-9.16,29.51-1.31,3.08-2.82,6.3-4.33,9.34.52,0,1-.1,1.55-.16,1.46-3.26,2.91-6.69,4.06-10,4.2-11.76,6.44-19.58,6.75-20.89,1.36-5.72,6.26-22.28,6.26-22.28l-.5.27S162.63,273.82,161,279.57Z" transform="translate(-102.51 -238.07)"/><path class="cls-3" d="M168.45,277.29a7.62,7.62,0,0,1-4.43,2c-3.31.28-3.79,4.46-2.89,5.32s2.61,1.08,4.61-1.17A11.84,11.84,0,0,0,168.45,277.29Z" transform="translate(-102.51 -238.07)"/><path class="cls-3" d="M166.61,283.75a7.67,7.67,0,0,1-4.43,2c-3.3.27-3.79,4.44-2.89,5.31s2.61,1.08,4.61-1.17A11.84,11.84,0,0,0,166.61,283.75Z" transform="translate(-102.51 -238.07)"/><path class="cls-3" d="M164.84,290a7.63,7.63,0,0,1-4.43,2c-3.31.28-3.79,4.45-2.89,5.32s2.61,1.07,4.61-1.18A11.8,11.8,0,0,0,164.84,290Z" transform="translate(-102.51 -238.07)"/><path class="cls-3" d="M163,296.46a7.63,7.63,0,0,1-4.44,2c-3.3.27-3.79,4.45-2.88,5.32s2.6,1.07,4.6-1.18A11.82,11.82,0,0,0,163,296.46Z" transform="translate(-102.51 -238.07)"/><path class="cls-3" d="M170.31,270.71a7.61,7.61,0,0,1-4.43,2c-3.3.28-3.79,4.45-2.89,5.32s2.61,1.08,4.61-1.18A11.8,11.8,0,0,0,170.31,270.71Z" transform="translate(-102.51 -238.07)"/><path class="cls-3" d="M157.53,272.23a7.58,7.58,0,0,0,2.72,4c2.66,2,.89,5.78-.33,6s-2.78-.45-3.3-3.42A11.77,11.77,0,0,1,157.53,272.23Z" transform="translate(-102.51 -238.07)"/><path class="cls-3" d="M155.7,278.69a7.62,7.62,0,0,0,2.71,4c2.67,2,.89,5.78-.32,6s-2.78-.45-3.3-3.42A11.77,11.77,0,0,1,155.7,278.69Z" transform="translate(-102.51 -238.07)"/><path class="cls-3" d="M153.92,284.93a7.62,7.62,0,0,0,2.72,4c2.66,2,.89,5.78-.33,6s-2.78-.45-3.3-3.42A11.82,11.82,0,0,1,153.92,284.93Z" transform="translate(-102.51 -238.07)"/><path class="cls-3" d="M152.09,291.4a7.64,7.64,0,0,0,2.72,4c2.66,2,.89,5.77-.33,6s-2.78-.44-3.3-3.41A11.81,11.81,0,0,1,152.09,291.4Z" transform="translate(-102.51 -238.07)"/><path class="cls-3" d="M159.4,265.65a7.61,7.61,0,0,0,2.71,4c2.67,2,.9,5.78-.32,6s-2.78-.45-3.3-3.42A11.82,11.82,0,0,1,159.4,265.65Z" transform="translate(-102.51 -238.07)"/><path class="cls-3" d="M172.17,264.15a7.58,7.58,0,0,1-4.43,2c-3.3.27-3.79,4.45-2.88,5.32s2.6,1.07,4.6-1.18A11.8,11.8,0,0,0,172.17,264.15Z" transform="translate(-102.51 -238.07)"/><path class="cls-3" d="M168.53,255.78a7.61,7.61,0,0,1-2.7,4c-2.66,2-.87,5.79.36,6s2.78-.46,3.28-3.43A11.79,11.79,0,0,0,168.53,255.78Z" transform="translate(-102.51 -238.07)"/><path class="cls-3" d="M161.26,259.08a7.58,7.58,0,0,0,2.72,4c2.66,2,.88,5.78-.33,6s-2.78-.45-3.3-3.42A11.77,11.77,0,0,1,161.26,259.08Z" transform="translate(-102.51 -238.07)"/><path class="cls-4" d="M146.15,257.05s2.86,2.11.4,9.62,4.47,8.66,4.85,26-6,18-10,18.56c0,0-.43-32.64.79-36.77S148.63,262.4,146.15,257.05Z" transform="translate(-102.51 -238.07)"/><path class="cls-5" d="M125.26,278.77c-.55-.25,4.83,14.62,4.92,20.32s9.9,18,9.9,18S135.38,283.28,125.26,278.77Z" transform="translate(-102.51 -238.07)"/><path class="cls-6" d="M133,255.48c1.72.14,3.61.72,6.3,4.75,2.56,3.85,8,23.74,8,31.92s1.58,19.87-6.62,21.07S130.49,300,130.49,300,123.64,254.75,133,255.48Z" transform="translate(-102.51 -238.07)"/><path class="cls-7" d="M132,257.74s0-.79,2.09-1c1-.11,1.7,1.46,1.55,1.92s-.78.3-1.89.72S132.18,259.8,132,257.74Z" transform="translate(-102.51 -238.07)"/><path class="cls-7" d="M132.77,260s.12-.36,1.25-.62,1.61-.32,1.69.14.68,1.85.15,2.09-1.18.18-1.62.36-1.09.6-1.19.07S132.45,260.32,132.77,260Z" transform="translate(-102.51 -238.07)"/><path class="cls-7" d="M134.19,262.24c.86-.18,1.52-.41,1.89-.18a2.61,2.61,0,0,1,.46,2.28c-.31.53-1.9.57-2.32.62a.81.81,0,0,1-1-.86C133.18,263.29,133,262.5,134.19,262.24Z" transform="translate(-102.51 -238.07)"/><path class="cls-7" d="M137.06,265.81c.15.79.27,1.51-.24,1.94a3,3,0,0,1-1.86.68c-.6,0-1.06.41-1.31-.5s-.47-2.13.17-2.32a11.73,11.73,0,0,1,1.75-.52C136.3,265,136.9,265,137.06,265.81Z" transform="translate(-102.51 -238.07)"/><path class="cls-7" d="M136.68,269c.32.08.68,0,.86.75s.46,1.94-.4,2.08-2.19.74-2.81.52-.75-.35-.86-1.13-.07-1.61.45-1.82A8.43,8.43,0,0,1,136.68,269Z" transform="translate(-102.51 -238.07)"/><path class="cls-7" d="M137.85,272.67a3,3,0,0,1,.54,2.21c-.19.79-.88.92-2,.94s-1.58.72-2-.22-1-2.36-.54-2.7a7.73,7.73,0,0,1,3.51-.78C137.86,272.33,137.85,272.67,137.85,272.67Z" transform="translate(-102.51 -238.07)"/><path class="cls-7" d="M138.61,277.19c.24,1.11.21,1.38-.44,2a2.94,2.94,0,0,1-.95.69,2.86,2.86,0,0,1-1.15.24c-1.09.1-1.44.71-1.91-.29s-.72-2.37-.16-2.76a3.84,3.84,0,0,1,2.26-.87C137.12,276.23,138.3,275.72,138.61,277.19Z" transform="translate(-102.51 -238.07)"/><path class="cls-7" d="M138.54,280.53a2.81,2.81,0,0,1,1.08,1.33,2.86,2.86,0,0,1,.09,1.71c-.38,1.22-3,1.46-3.65,1.4s-1.29.67-1.47-.9-.45-2.74.37-3.07S137.84,280.13,138.54,280.53Z" transform="translate(-102.51 -238.07)"/><path class="cls-7" d="M140.2,286.67c.2.84.26,1.38-1.86,2s-3.09.59-3.23-.83-.43-2.15,1.8-2.59S139.84,285.08,140.2,286.67Z" transform="translate(-102.51 -238.07)"/><path class="cls-7" d="M140.37,290.58c.17,1.11.13,2-1.84,2.31s-2.49.13-2.63-1.07,0-2.2,1.86-2.44S140.19,289.36,140.37,290.58Z" transform="translate(-102.51 -238.07)"/><path class="cls-7" d="M140.88,294.84c.25,1,.38,1.92-1.56,2.27s-2.43-.2-2.52-1.48.29-2.07,1.94-2.15S140.61,293.8,140.88,294.84Z" transform="translate(-102.51 -238.07)"/><path class="cls-7" d="M141.22,299.44c.14.91-.2,1.52-1.52,1.71s-2.32.12-2.45-.82-.06-2.49,1.69-2.54S141,297.67,141.22,299.44Z" transform="translate(-102.51 -238.07)"/><path class="cls-7" d="M141.73,303.4c.11.76.32,1.88-1.11,2.08s-2.51.58-2.67-.51-.67-2.16.63-2.65S141.41,301.2,141.73,303.4Z" transform="translate(-102.51 -238.07)"/><path class="cls-7" d="M141.71,306.29c.37.7,1.07,2.14.44,2.7a2.7,2.7,0,0,1-2.32.52,3.07,3.07,0,0,1-1.37-2c-.09-.8.18-1.24.64-1.37S141.22,305.34,141.71,306.29Z" transform="translate(-102.51 -238.07)"/><path class="cls-7" d="M135.85,257.08c-.64.16-.1,1.87.51,1.73.9-.2.83.29.89-.24S136.57,256.9,135.85,257.08Z" transform="translate(-102.51 -238.07)"/><path class="cls-7" d="M136,259.26a2,2,0,0,0,.62,2c.42.25.52.35,1.08.08s.92-.36.69-.81-.67-1.52-1.22-1.38S136.14,258.93,136,259.26Z" transform="translate(-102.51 -238.07)"/><path class="cls-7" d="M138.22,262c.57.24.89.2,1.1,1s.13,1.59-.82,1.66-1.55-.15-1.64-.82S136.51,261.25,138.22,262Z" transform="translate(-102.51 -238.07)"/><path class="cls-7" d="M140.22,266.57c.21.9.17,1.29-.81,1.47s-1.74,0-1.91-.94-.37-2.42,1-2.21S140,265.58,140.22,266.57Z" transform="translate(-102.51 -238.07)"/><path class="cls-7" d="M140.71,269.46c.6,1.21.94,1.65.41,2.05s-.65,1-1.62.64-1.41-.14-1.44-1.44.09-2.09,1.18-2S140.36,268.77,140.71,269.46Z" transform="translate(-102.51 -238.07)"/><path class="cls-7" d="M141.39,272.83c.4.72,1,2.31-.73,2.58s-1.75-1-1.81-1.58-.19-1.76,1-1.4S141.07,272.23,141.39,272.83Z" transform="translate(-102.51 -238.07)"/><path class="cls-7" d="M142.59,277.37c.22.84.48,2-1.37,2.31s-1.74-1.46-1.75-1.6-.29-1.9,1.21-2a1.88,1.88,0,0,1,1.91,1.29Z" transform="translate(-102.51 -238.07)"/><path class="cls-7" d="M143.3,281.94c.18.93.37,1.87-1.37,2s-1.94-1.63-1.86-2.21,0-2.24,1.56-1.54S143.1,280.87,143.3,281.94Z" transform="translate(-102.51 -238.07)"/><path class="cls-7" d="M143.82,285.86c.23,1.08-.1,1.73-1.48,1.82s-1.8-.33-1.76-1.22,0-2.21,1.57-2A1.74,1.74,0,0,1,143.82,285.86Z" transform="translate(-102.51 -238.07)"/><path class="cls-7" d="M144.14,289.51s1,1.74-1.3,2-2.06-2.09-2.06-2.09,0-1.39,1.29-1.43S144.14,289.51,144.14,289.51Z" transform="translate(-102.51 -238.07)"/><path class="cls-7" d="M144.65,293.1c.12.74-.05,1.84-1.24,1.94s-2-.13-2.08-1.35.58-2.09,1.75-2S144.65,293.1,144.65,293.1Z" transform="translate(-102.51 -238.07)"/><path class="cls-7" d="M145.1,296.55s.82,1.35-1.51,1.64-2.06-1.71-2.06-1.71a1.58,1.58,0,0,1,.61-1,1.54,1.54,0,0,1,1.12-.29,2,2,0,0,1,1.13.4A2.08,2.08,0,0,1,145.1,296.55Z" transform="translate(-102.51 -238.07)"/><path class="cls-7" d="M145.32,299.71c.19,1.21-.33,1.66-1.62,1.92a1.35,1.35,0,0,1-1.7-1.52,1.63,1.63,0,0,1,1.68-1.64A1.6,1.6,0,0,1,145.32,299.71Z" transform="translate(-102.51 -238.07)"/><path class="cls-7" d="M145.28,303.14a1.18,1.18,0,0,1-1,1.53c-.84.11-1.59-.12-1.58-.95s.33-1.62,1.2-1.62S145.28,303.14,145.28,303.14Z" transform="translate(-102.51 -238.07)"/><path class="cls-7" d="M145.1,305.7a1.86,1.86,0,0,1-1.1,1.94c-1,.35-1.36-1-1.12-1.65s.75-1.12,1.32-.93A2,2,0,0,1,145.1,305.7Z" transform="translate(-102.51 -238.07)"/><path class="cls-7" d="M130.86,258.15a.79.79,0,0,1,.48,0,.81.81,0,0,1,.4.28,2.15,2.15,0,0,1,.43,1,.67.67,0,0,1,0,.44.53.53,0,0,1-.26.15l-1.2.38a.36.36,0,0,1-.25,0,.47.47,0,0,1-.11-.13.44.44,0,0,1-.06-.16,1.7,1.7,0,0,1,.88-2" transform="translate(-102.51 -238.07)"/><path class="cls-7" d="M132,260.63c.32.32.29.93.45,1.4a1.18,1.18,0,0,1,.1.4.63.63,0,0,1-.12.33.7.7,0,0,1-.28.23,3.92,3.92,0,0,1-.58.29,1.29,1.29,0,0,1-.61.13.56.56,0,0,1-.31-.09.76.76,0,0,1-.24-.23,2.69,2.69,0,0,1,.05-1.77C130.71,260.78,131.49,260.69,132,260.63Z" transform="translate(-102.51 -238.07)"/><path class="cls-7" d="M132.18,263.54a.15.15,0,0,1,.13,0,.26.26,0,0,1,.12.15,6.19,6.19,0,0,1,.32.85,1,1,0,0,1,0,.65.86.86,0,0,1-.31.32,7.29,7.29,0,0,1-1.65.83c-.3.1-.71.13-.86-.2a1,1,0,0,1-.06-.35,3.93,3.93,0,0,1,0-1C130.15,263.7,131.39,263.74,132.18,263.54Z" transform="translate(-102.51 -238.07)"/><path class="cls-7" d="M132,266.31c.26-.1.58-.19.77.05a.93.93,0,0,1,.13.35l.15.62a2.29,2.29,0,0,1,.11.86,1.77,1.77,0,0,1-.29.74,1.86,1.86,0,0,1-.59.53,3.85,3.85,0,0,1-1.49.59.86.86,0,0,1-.45,0,.78.78,0,0,1-.38-.22,1,1,0,0,1-.16-.41c-.2-.69-.5-1.72,0-2.23A6.74,6.74,0,0,1,132,266.31Z" transform="translate(-102.51 -238.07)"/><path class="cls-7" d="M132.18,269.92a.88.88,0,0,1,.32-.07,1,1,0,0,1,.33.07,1.16,1.16,0,0,1,.38.87c0,.33.09.74.12,1.11a1.52,1.52,0,0,1-.07.79c-.21.44-.72.48-1.14.61a7,7,0,0,1-1,.39c-1.15.25-1.4-1.33-1.19-2.33S131.37,270.18,132.18,269.92Z" transform="translate(-102.51 -238.07)"/><path class="cls-7" d="M132.89,273.76a1.32,1.32,0,0,1,.27.78c.05.39.1.78.14,1.18a1.1,1.1,0,0,1,0,.62,1,1,0,0,1-.23.27,4.92,4.92,0,0,1-1.29.88,1.53,1.53,0,0,1-.76.13,1.73,1.73,0,0,1-.73-.26,2.6,2.6,0,0,1-.22-3.09C130.51,273.82,132.36,273.23,132.89,273.76Z" transform="translate(-102.51 -238.07)"/><path class="cls-7" d="M132.36,277.94a.86.86,0,0,1,.5.07,1.28,1.28,0,0,1,.46.86l.33,1.29a1.35,1.35,0,0,1,0,1,.91.91,0,0,1-.55.3l-2.4.61a.26.26,0,0,1-.17,0,.44.44,0,0,1-.16-.06.58.58,0,0,1-.08-.22c-.18-.86-.7-2.29-.24-3.1S131.66,278,132.36,277.94Z" transform="translate(-102.51 -238.07)"/><path class="cls-7" d="M133.38,282.06a.46.46,0,0,1,.26,0,.62.62,0,0,1,.24.37,9.07,9.07,0,0,1,.43,2.12,1.11,1.11,0,0,1-.08.65.77.77,0,0,1-.48.32,12.45,12.45,0,0,1-2.07.57.55.55,0,0,1-.42,0,.81.81,0,0,1-.24-.28c-.42-.73-1-2.16-.41-2.91S132.62,282.17,133.38,282.06Z" transform="translate(-102.51 -238.07)"/><path class="cls-7" d="M132.93,286.34a1.57,1.57,0,0,1,1.5.23,1.94,1.94,0,0,1,.43,1,7.69,7.69,0,0,1,.11,1.27.37.37,0,0,1-.27.46c-.81.3-1.62.56-2.45.78a1,1,0,0,1-.39.05c-.32-.05-.56-.43-.71-.79-.25-.61-.82-2-.28-2.58C131.28,286.4,132.43,286.45,132.93,286.34Z" transform="translate(-102.51 -238.07)"/><path class="cls-7" d="M133.93,290.4a1.63,1.63,0,0,1,.54-.06,1.34,1.34,0,0,1,.5.23,1.32,1.32,0,0,1,.36.42,4.57,4.57,0,0,1,.47,1.06,1.81,1.81,0,0,1,.14.61,1.69,1.69,0,0,1-.08.5l-.14.57a.82.82,0,0,1-.15.36.68.68,0,0,1-.29.18,12.55,12.55,0,0,1-1.9.56.94.94,0,0,1-1-.22,1.43,1.43,0,0,1-.18-.47c-.18-.77-.63-2.11-.32-2.87S133.31,290.53,133.93,290.4Z" transform="translate(-102.51 -238.07)"/><path class="cls-7" d="M132.48,295.73a8.5,8.5,0,0,1,1.38-.52,2.59,2.59,0,0,1,1-.11,1.43,1.43,0,0,1,.5.18,1.38,1.38,0,0,1,.39.37,2.43,2.43,0,0,1,.32,1l.22,1.16a.74.74,0,0,1,0,.21.33.33,0,0,1-.21.21,9.45,9.45,0,0,1-2.91.79.45.45,0,0,1-.28,0,.65.65,0,0,1-.16-.21.52.52,0,0,1-.07-.25l-.23-1.13a2.64,2.64,0,0,1-.05-1.31,1,1,0,0,1,.33-.51,1,1,0,0,1,.57-.22" transform="translate(-102.51 -238.07)"/><path class="cls-7" d="M133.2,299.88c-.06-.23.16-.4.35-.47a8.51,8.51,0,0,1,2.64-.45.57.57,0,0,1,.29,0,.49.49,0,0,1,.24.14.75.75,0,0,1,.14.41l.22,1.35a1.8,1.8,0,0,1,0,.73,1.16,1.16,0,0,1-.32.44,1.14,1.14,0,0,1-.47.26,8.59,8.59,0,0,1-1.82.5.65.65,0,0,1-.31,0,.64.64,0,0,1-.3-.11,1.09,1.09,0,0,1-.28-.68l-.32-1.78a.94.94,0,0,1,0-.41.56.56,0,0,1,.14-.25,1,1,0,0,1,.24-.15,2.8,2.8,0,0,0,.51-.18" transform="translate(-102.51 -238.07)"/><path class="cls-7" d="M137.52,304.33a1.83,1.83,0,0,1-.08,1.24c-.26.56-2-1.11-1.83-1.91C135.9,302.07,137.26,303.34,137.52,304.33Z" transform="translate(-102.51 -238.07)"/><path class="cls-7" d="M129.77,259.46a4.92,4.92,0,0,1,.32,1.24c0,.3,0,.65-.2.79a.42.42,0,0,1-.29,0,1.13,1.13,0,0,1-.51-.38,1,1,0,0,1-.19-.61,1.14,1.14,0,0,1,.23-.69,1.1,1.1,0,0,1,.61-.38" transform="translate(-102.51 -238.07)"/><path class="cls-7" d="M129.21,262.17c.28-.16.65-.32.89-.06a1,1,0,0,1,.18.4c.12.56-.05,1.27-.53,1.4s-.89-.34-.9-.86a.91.91,0,0,1,.23-.65.94.94,0,0,1,.6-.32" transform="translate(-102.51 -238.07)"/><path class="cls-7" d="M128.87,264.89a.27.27,0,0,1,0-.17.37.37,0,0,1,.13-.12.32.32,0,0,1,.17,0,.27.27,0,0,1,.17.06,1.09,1.09,0,0,1,.36.67,1.25,1.25,0,0,1-.32,1.3c-.16.19-.4.4-.6.25a.48.48,0,0,1-.17-.29,3.5,3.5,0,0,1-.06-1.29,1.35,1.35,0,0,1,.1-.56.3.3,0,0,1,.17-.18.29.29,0,0,1,.24,0" transform="translate(-102.51 -238.07)"/><path class="cls-7" d="M128.16,268.21a1,1,0,0,1,.17-.46,1,1,0,0,1,.36-.33.11.11,0,0,1,.07,0h.08s.08.09.11.15a5.35,5.35,0,0,1,.39,1.35,2,2,0,0,1-.27,1.33c-.15.2-.42.36-.61.19a.67.67,0,0,1-.17-.32,5.22,5.22,0,0,1-.22-1.71c0-.14,0-.32.17-.36" transform="translate(-102.51 -238.07)"/><path class="cls-7" d="M129.74,272.26a.91.91,0,0,1,.07.43,1,1,0,0,1-.1.43c-.05.06-.11.11-.16.18s-.14.54-.32.71a.44.44,0,0,1-.31.09.49.49,0,0,1-.3-.14,2.61,2.61,0,0,1-.44-2.62C128.76,270.35,129.57,271.49,129.74,272.26Z" transform="translate(-102.51 -238.07)"/><path class="cls-7" d="M130.63,285.19a1.36,1.36,0,0,1-.11,1,.62.62,0,0,1-.2.15.72.72,0,0,1-.5,0,1,1,0,0,1-.22-.13,2.39,2.39,0,0,1-.32-2.64C130,282.67,130.54,284.56,130.63,285.19Z" transform="translate(-102.51 -238.07)"/><path class="cls-7" d="M130.91,288.42a7.8,7.8,0,0,1-.12,1.81.81.81,0,0,1-.22.53.47.47,0,0,1-.31,0,.43.43,0,0,1-.26-.2,1.49,1.49,0,0,1-.23-.68,4.06,4.06,0,0,1,.37-3A2.15,2.15,0,0,1,130.91,288.42Z" transform="translate(-102.51 -238.07)"/><path class="cls-7" d="M131.7,293.6a2.42,2.42,0,0,1,0,.89l-.06.17a.58.58,0,0,1-.18.25.55.55,0,0,1-.3.11c-.32,0-.52-.4-.64-.75-.24-.67-.33-1.67.32-2.09S131.6,293,131.7,293.6Z" transform="translate(-102.51 -238.07)"/><path class="cls-7" d="M131,297.1a2.66,2.66,0,0,1,.36-.85.52.52,0,0,1,.17-.19.5.5,0,0,1,.23-.09c.19,0,.32.2.45.39a3.87,3.87,0,0,1,.25,3.1.69.69,0,0,1-.21.32.39.39,0,0,1-.26,0,.4.4,0,0,1-.22-.12,1.49,1.49,0,0,1-.32-.48l-.49-1a1.5,1.5,0,0,1-.17-.46,1.26,1.26,0,0,1,.09-.54c.12-.36.35-.73.69-.77" transform="translate(-102.51 -238.07)"/><path class="cls-7" d="M131.74,300.52a2.81,2.81,0,0,1,1-.34.2.2,0,0,1,.15,0,.3.3,0,0,1,.12.15,4.12,4.12,0,0,1,.24.67,2.25,2.25,0,0,1,.12,1,.84.84,0,0,1-.12.31,1.14,1.14,0,0,1-.24.25,1.07,1.07,0,0,1-.31.13.78.78,0,0,1-.34,0,1.22,1.22,0,0,1-.78-1.13,2.48,2.48,0,0,1,.11-.81c.06-.23.22-.52.42-.42" transform="translate(-102.51 -238.07)"/><path class="cls-7" d="M129.3,275.46a6.79,6.79,0,0,1,.29,1.16,2.09,2.09,0,0,1,0,.56,2.43,2.43,0,0,1-.17.52,1.36,1.36,0,0,1-.21.37,1.15,1.15,0,0,1-.33.21.43.43,0,0,1-.21.11.45.45,0,0,1-.23,0,.38.38,0,0,1-.18-.15.36.36,0,0,1-.07-.22,2.28,2.28,0,0,1,0-.45,14.63,14.63,0,0,1-.2-1.72C128,274.91,129,274.48,129.3,275.46Z" transform="translate(-102.51 -238.07)"/><path class="cls-7" d="M129.24,279.2a.36.36,0,0,1,.12.08.27.27,0,0,1,.06.17l.18.8a6.19,6.19,0,0,1,.21,1.91,1,1,0,0,1-.18.54.71.71,0,0,1-.4.25.53.53,0,0,1-.25,0,.61.61,0,0,1-.3-.15.73.73,0,0,1-.2-.26,2.1,2.1,0,0,1-.16-.7C128.25,281.17,128.17,278.86,129.24,279.2Z" transform="translate(-102.51 -238.07)"/><path class="cls-7" d="M140,262c.05.16.1.37,0,.47a.44.44,0,0,1-.16.06.6.6,0,0,1-.23,0,.62.62,0,0,1-.22-.1.45.45,0,0,1-.14-.19c-.17-.32-.47-1.32,0-1.5S139.86,261.64,140,262Z" transform="translate(-102.51 -238.07)"/><path class="cls-7" d="M140.33,263.35c.22-.07.43.15.58.37a4.51,4.51,0,0,1,.66,2,.42.42,0,0,1,0,.27.29.29,0,0,1-.13.14.41.41,0,0,1-.19,0,.79.79,0,0,1-.55-.23,2.1,2.1,0,0,1-.48-1.06C140.11,264.51,139.8,263.54,140.33,263.35Z" transform="translate(-102.51 -238.07)"/><path class="cls-7" d="M142.27,268.15a1.13,1.13,0,0,1,0,.79c-.26.46-.76.23-1-.17a2.78,2.78,0,0,1-.23-1.45C141.17,265.84,142.12,267.51,142.27,268.15Z" transform="translate(-102.51 -238.07)"/><path class="cls-7" d="M141.79,270a1,1,0,0,1,.5-.31.31.31,0,0,1,.34,0,.52.52,0,0,1,.11.19,8.94,8.94,0,0,1,.46,1.74.65.65,0,0,1,0,.34.76.76,0,0,1-.13.31.27.27,0,0,1-.12.06.22.22,0,0,1-.14,0,1,1,0,0,1-.33-.15,1,1,0,0,1-.25-.26,3.67,3.67,0,0,1-.36-.6C141.74,271,141.52,270.34,141.79,270Z" transform="translate(-102.51 -238.07)"/><path class="cls-7" d="M143.31,273.19a5.52,5.52,0,0,1,.56,1.27,2.34,2.34,0,0,1,.12.63.8.8,0,0,1-.06.3.6.6,0,0,1-.19.23.52.52,0,0,1-.16.06.55.55,0,0,1-.18,0,1.13,1.13,0,0,1-.68-.65,4,4,0,0,1-.37-1.81C142.48,272.59,143.05,272.81,143.31,273.19Z" transform="translate(-102.51 -238.07)"/><path class="cls-7" d="M143.28,277.82a.84.84,0,0,1-.19-.43.81.81,0,0,1,.07-.46.89.89,0,0,1,.27-.34,1,1,0,0,1,.39-.16.25.25,0,0,1,.17,0,.37.37,0,0,1,.17.13,3.17,3.17,0,0,1,.6,1.48c.11.48.21,1,.3,1.46a.48.48,0,0,1,0,.37.32.32,0,0,1-.12.11.47.47,0,0,1-.16,0,.86.86,0,0,1-1.1-.41,3.54,3.54,0,0,1-.51-1.24,3.36,3.36,0,0,1,0-1.34" transform="translate(-102.51 -238.07)"/><path class="cls-7" d="M144.09,281.09a.9.9,0,0,1,.08-.23.47.47,0,0,1,.27-.16.7.7,0,0,1,.43.07.82.82,0,0,1,.34.27,2.57,2.57,0,0,1,.41.87,7.22,7.22,0,0,1,.3,2,.89.89,0,0,1,0,.36.5.5,0,0,1-.22.21.44.44,0,0,1-.3,0,1.19,1.19,0,0,1-.52-.36,2.94,2.94,0,0,1-.8-1.4A2.9,2.9,0,0,1,144.09,281.09Z" transform="translate(-102.51 -238.07)"/><path class="cls-7" d="M144.74,285a.64.64,0,0,1,.35-.1.71.71,0,0,1,.35.07,2,2,0,0,1,1.05,2,1.2,1.2,0,0,1-.3.83.9.9,0,0,1-.34.2.88.88,0,0,1-.42.11A.92.92,0,0,1,145,288a1,1,0,0,1-.35-.61c-.06-.24-.08-.49-.13-.73a4.35,4.35,0,0,1-.1-.52C144.38,285.8,144.47,285.2,144.74,285Z" transform="translate(-102.51 -238.07)"/><path class="cls-7" d="M145.75,288.65a.35.35,0,0,1,.15.12,3.88,3.88,0,0,1,.64,1.67,2.33,2.33,0,0,1,.08.83.7.7,0,0,1-.11.37.89.89,0,0,1-.29.26c-.68.23-1.42-.89-1.52-1.56a3.65,3.65,0,0,1,.05-1.19.84.84,0,0,1,.41-.44A.8.8,0,0,1,145.75,288.65Z" transform="translate(-102.51 -238.07)"/><path class="cls-7" d="M147.12,293.34a1.5,1.5,0,0,1,.07.7,1.3,1.3,0,0,1-.38.71,2.46,2.46,0,0,1-.65.41.62.62,0,0,1-.24.08.53.53,0,0,1-.24-.06c-.36-.24-.32-1.24-.36-1.65s-.24-.8-.09-1.08C145.67,291.56,146.92,292.72,147.12,293.34Z" transform="translate(-102.51 -238.07)"/><path class="cls-7" d="M145.58,297.16a1.89,1.89,0,0,1,.08-1.27,1.33,1.33,0,0,1,1.05-.48.45.45,0,0,1,.23,0,.41.41,0,0,1,.19.18,2.66,2.66,0,0,1,.27,1.61,3,3,0,0,1-.38,1.59.56.56,0,0,1-.24.24.54.54,0,0,1-.33.08.78.78,0,0,1-.32-.18.81.81,0,0,1-.21-.31,3.11,3.11,0,0,1-.37-1.69c0-.19.08-.41.24-.43" transform="translate(-102.51 -238.07)"/><path class="cls-7" d="M147,299.66a1.57,1.57,0,0,1,.3.64,2.19,2.19,0,0,1,0,1.19,1.29,1.29,0,0,1-.26.49,1.16,1.16,0,0,1-.44.32.28.28,0,0,1-.22,0c-.14-.06-.19-.26-.22-.43a5.18,5.18,0,0,1-.17-1.65C146.13,299.73,146.61,299.19,147,299.66Z" transform="translate(-102.51 -238.07)"/><path class="cls-7" d="M145.82,303.18a1.32,1.32,0,0,1,.16-.51.46.46,0,0,1,.17-.17.51.51,0,0,1,.24,0c.21,0,.35.28.42.51a2.13,2.13,0,0,1,.06,1.2,2.16,2.16,0,0,1-.57,1.06.34.34,0,0,1-.12.09.41.41,0,0,1-.16,0,.42.42,0,0,1-.14-.09.28.28,0,0,1-.08-.15,1.08,1.08,0,0,1-.05-.36,13.74,13.74,0,0,1,.1-1.43c0-.24.09-.52.29-.6" transform="translate(-102.51 -238.07)"/><path class="cls-7" d="M132.64,255.88a2.06,2.06,0,0,1,.88-.17.87.87,0,0,1,.44.16.9.9,0,0,1,.29.38,1.91,1.91,0,0,1-.8.44,2,2,0,0,1-.92,0c-.14,0-.31-.11-.32-.28s.37-.37.48-.64" transform="translate(-102.51 -238.07)"/><path class="cls-7" d="M130.75,256.46a1.81,1.81,0,0,1,.79-.23.71.71,0,0,1,.41.13.73.73,0,0,1,.27.33.86.86,0,0,1,0,.59.84.84,0,0,1-.4.43,1.84,1.84,0,0,1-1.09.05.86.86,0,0,1-.11-.47.91.91,0,0,1,.16-.46,2,2,0,0,1,.71-.53" transform="translate(-102.51 -238.07)"/><path class="cls-5" d="M159.49,281.12s-2.16-7.73-8.19-5.41-5.8,11.71-3.26,20.73c1.34,4.77-4.1,6.38-6.28,10.67s-.61,11.14-.61,11.14l2.63.44s-1.4-3.64,1.89-7.43c5.47-6.29,12.61-10.39,7.15-19.36S153.9,273.76,159.49,281.12Z" transform="translate(-102.51 -238.07)"/><path class="cls-4" d="M117.08,274s9.41,9.18,11.53,15.93,2.39,10,3.59,11.36,9.64,2.14,9,16.93l-3.88-.16a20.75,20.75,0,0,0-9.53-15.28c-5.41-3.32-5-12.87-4.58-15.9C123.4,285.5,118.72,276.23,117.08,274Z" transform="translate(-102.51 -238.07)"/><path class="cls-5" d="M117.08,274s-.06,1.87,2.56,5.08a10.62,10.62,0,0,1,2.61,8.08c0,2.56-4,8.28,1.74,13.9s5.63,4.33,8.3,6.72c4.12,3.68,5,10.28,5,10.28l3.88.16c-.1-.5-1.15-13.38-4.74-14.71-6.32-2.35-12.61-4.57-13.12-14.77s-2.44-9.34-3.67-11.14S117.08,274,117.08,274Z" transform="translate(-102.51 -238.07)"/></svg>