<svg id="Layer_1" data-name="Layer 1" xmlns="http://www.w3.org/2000/svg" viewBox="0 0 83 83"><defs><style>.cls-1{fill:#eda620;}.cls-2{fill:#eae3d6;}.cls-3{fill:#2d9e9e;}.cls-4{fill:#562c0f;}.cls-5{fill:#b78055;}</style></defs><path class="cls-1" d="M144,321.07a41.5,41.5,0,1,0-41.5-41.5A41.5,41.5,0,0,0,144,321.07Z" transform="translate(-102.51 -238.07)"/><path class="cls-2" d="M144,318.64a39.08,39.08,0,1,0-39.07-39.07A39.07,39.07,0,0,0,144,318.64Z" transform="translate(-102.51 -238.07)"/><path class="cls-3" d="M159.45,269.77H128.57v7.36h30.88Z" transform="translate(-102.51 -238.07)"/><path class="cls-3" d="M159.45,282H128.57v7.35h30.88Z" transform="translate(-102.51 -238.07)"/><path class="cls-4" d="M172.78,286c-1.83-.71-7.84,10.93-11.29,13.88s-5.9,2-7.51,1.61,7.2-2.61,9.34-4.72-.46-2.91-.46-2.91c-3.19,1.82-9.39,3.82-14.62,6s-5.6,5.78-6.39,7.65c-.32.8-3.21,5.34-6.39,10.27a39.19,39.19,0,0,0,12.55.74c2.47-5.33,5.84-8.55,8-9.65,3.26-1.61,8-1.39,11.86-8.33S174.61,286.68,172.78,286Z" transform="translate(-102.51 -238.07)"/><path class="cls-5" d="M150.65,241.06a39.68,39.68,0,0,0-12.59-.12c-1.93,4.37-4.26,7.51-5.88,8.47-3,1.81-7.67,1.91-10.92,8.91s-5.61,13.86-3.79,14.41,6.88-11.16,10-14.26,5.6-2.34,7.18-2.08-6.81,3-8.74,5.23.64,2.8.64,2.8c3-2,8.87-4.35,13.81-6.79s5-6,5.68-7.86C146.3,249.09,148.25,245.44,150.65,241.06Z" transform="translate(-102.51 -238.07)"/></svg>