<svg id="Layer_1" data-name="Layer 1" xmlns="http://www.w3.org/2000/svg" viewBox="0 0 94 36"><defs><style>.cls-1{fill:#fff;}.cls-2{fill:#d62128;}</style></defs><path class="cls-1" d="M268,378.4a9,9,0,0,1,3.47.63,7.46,7.46,0,0,1,2.59,1.75l-2.77,2.74a4.38,4.38,0,0,0-1.48-1,4.79,4.79,0,0,0-2-.39,4.62,4.62,0,0,0-1.8.35,4.41,4.41,0,0,0-1.42,1,4.74,4.74,0,0,0-.93,1.52,5.88,5.88,0,0,0-.32,2,5.71,5.71,0,0,0,.36,2.1,4.55,4.55,0,0,0,1,1.54,4.12,4.12,0,0,0,1.43.95,4.59,4.59,0,0,0,1.73.33,4.51,4.51,0,0,0,2.75-.75,3.63,3.63,0,0,0,1.36-2.21h-4v-3h7.81q0,.33.06.63c0,.2,0,.4,0,.6a8.87,8.87,0,0,1-.65,3.52,7.92,7.92,0,0,1-1.73,2.63,7.46,7.46,0,0,1-2.52,1.62,8.08,8.08,0,0,1-3,.57,9.5,9.5,0,0,1-3.4-.61,8.1,8.1,0,0,1-4.57-4.4,9.51,9.51,0,0,1,0-6.91,7.73,7.73,0,0,1,1.79-2.7,8,8,0,0,1,2.73-1.76A9.43,9.43,0,0,1,268,378.4Z" transform="translate(-259.38 -378.4)"/><path class="cls-1" d="M289.8,395.11H277.73V378.7h3.89v12.78h8.18Z" transform="translate(-259.38 -378.4)"/><path class="cls-1" d="M316.4,378.7a7.71,7.71,0,0,1,4.67,1.19,4.06,4.06,0,0,1,1.58,3.46,3.88,3.88,0,0,1-.17,1.14,3.7,3.7,0,0,1-.47,1,3.28,3.28,0,0,1-.71.78,3.6,3.6,0,0,1-.89.56,4.12,4.12,0,0,1,1,.56,3.66,3.66,0,0,1,.82.8,3.76,3.76,0,0,1,.55,1.05,3.35,3.35,0,0,1,.21,1.19,4.2,4.2,0,0,1-1.55,3.49,7.43,7.43,0,0,1-4.64,1.21h-7.41V378.7Zm-3.12,9.8v3.33h3.32a3.38,3.38,0,0,0,1.75-.37,1.39,1.39,0,0,0,.63-1.3,1.36,1.36,0,0,0-.63-1.28,3.37,3.37,0,0,0-1.75-.38Zm0-6.5v3.23h3a4.51,4.51,0,0,0,.94-.08,2,2,0,0,0,.74-.27,1.38,1.38,0,0,0,.46-.5,1.67,1.67,0,0,0,.16-.78,1.6,1.6,0,0,0-.16-.75,1.23,1.23,0,0,0-.46-.5,2,2,0,0,0-.74-.27,4.51,4.51,0,0,0-.94-.08Z" transform="translate(-259.38 -378.4)"/><path class="cls-1" d="M340.17,395.11H336l-1.24-3.44h-6.46l-1.24,3.44h-4l6.24-16.41h4.64Zm-10.59-7h4l-2-5.54Z" transform="translate(-259.38 -378.4)"/><path class="cls-1" d="M353.38,395.11H341.31V378.7h3.88v12.78h8.19Z" transform="translate(-259.38 -378.4)"/><path class="cls-1" d="M270.33,397.38a9.22,9.22,0,0,1,2.24.27,8.37,8.37,0,0,1,2,.77,7.5,7.5,0,0,1,1.7,1.24,7.72,7.72,0,0,1,1.28,1.67l-3.41,2a4.34,4.34,0,0,0-1.63-1.61,4.46,4.46,0,0,0-2.24-.56,4.61,4.61,0,0,0-1.79.35,4.22,4.22,0,0,0-1.42,1,4.51,4.51,0,0,0-.93,1.52,5.09,5.09,0,0,0-.34,1.92,5.46,5.46,0,0,0,.36,2,4.55,4.55,0,0,0,1,1.49,4.36,4.36,0,0,0,1.43.91,4.73,4.73,0,0,0,1.72.32,4.58,4.58,0,0,0,2.23-.55,4.83,4.83,0,0,0,1.7-1.61l3.19,2.27a7.91,7.91,0,0,1-1.3,1.52,9,9,0,0,1-1.63,1.15,8.31,8.31,0,0,1-1.94.71,9.73,9.73,0,0,1-5.68-.37,7.87,7.87,0,0,1-4.48-4.45,9.8,9.8,0,0,1,0-6.86,8.18,8.18,0,0,1,1.77-2.69,8.09,8.09,0,0,1,2.71-1.76A9.28,9.28,0,0,1,270.33,397.38Z" transform="translate(-259.38 -378.4)"/><path class="cls-1" d="M283.16,414.09h-3.89V397.68h3.89Z" transform="translate(-259.38 -378.4)"/><path class="cls-1" d="M298,401.32h-4.81v12.77h-3.89V401.32h-4.82v-3.64H298Z" transform="translate(-259.38 -378.4)"/><path class="cls-1" d="M303.17,414.09h-3.89V397.68h3.89Z" transform="translate(-259.38 -378.4)"/><path class="cls-1" d="M318.22,400.75l-8,9.82h8v3.52H305.06V411l8-9.81h-8v-3.53h13.15Z" transform="translate(-259.38 -378.4)"/><path class="cls-1" d="M332.58,414.09H320.11V397.68h12.42v3.53H324v2.84h8v3.51h-8v3h8.59Z" transform="translate(-259.38 -378.4)"/><path class="cls-1" d="M349.81,414.09h-3.74l-7.42-10v10h-3.88V397.68h3.72l7.42,10v-10h3.9Z" transform="translate(-259.38 -378.4)"/><path class="cls-2" d="M299,378.4a9,9,0,0,1,3.45.64,8.31,8.31,0,0,1,2.72,1.77,8,8,0,0,1,1.77,2.7,9.35,9.35,0,0,1,0,6.8,7.88,7.88,0,0,1-1.77,2.69,8.2,8.2,0,0,1-2.72,1.79,9.21,9.21,0,0,1-3.45.63,9.31,9.31,0,0,1-3.47-.63,8.26,8.26,0,0,1-2.71-1.79,8,8,0,0,1-1.78-2.69,9.49,9.49,0,0,1,0-6.8,8.19,8.19,0,0,1,1.78-2.7,8.37,8.37,0,0,1,2.71-1.77A9.12,9.12,0,0,1,299,378.4Zm0,3.75a4.79,4.79,0,0,0-1.84.35,4.17,4.17,0,0,0-1.43,1,4.51,4.51,0,0,0-.93,1.52,5.13,5.13,0,0,0-.34,1.92,5.22,5.22,0,0,0,.34,1.93,4.42,4.42,0,0,0,.93,1.5,4.22,4.22,0,0,0,1.43,1,5,5,0,0,0,1.84.34,4.91,4.91,0,0,0,1.82-.34,4,4,0,0,0,1.43-1,4.29,4.29,0,0,0,.94-1.5,5.22,5.22,0,0,0,.34-1.93,5.13,5.13,0,0,0-.34-1.92,4.38,4.38,0,0,0-.94-1.52,4,4,0,0,0-1.43-1A4.72,4.72,0,0,0,299,382.15Z" transform="translate(-259.38 -378.4)"/></svg>