<svg id="Layer_1" data-name="Layer 1" xmlns="http://www.w3.org/2000/svg" xmlns:xlink="http://www.w3.org/1999/xlink" viewBox="0 0 196.69 185.15"><defs><style>.cls-1{fill:#eae3d6;}.cls-2,.cls-3{opacity:0.6;}.cls-3,.cls-4,.cls-5,.cls-6{fill:#fff;isolation:isolate;}.cls-4{opacity:0.37;}.cls-5{opacity:0.48;}.cls-6{opacity:0.5;}.cls-7{mask:url(#mask);}.cls-8{fill:#321700;}.cls-9{fill:#804727;}.cls-10{fill:#0b1c3a;}.cls-11{fill:#3671b8;}.cls-12{fill:none;stroke:#231f20;stroke-linecap:round;stroke-width:0.32px;}.cls-13{fill:#48484a;}.cls-14{fill:#3065a4;}.cls-15{fill:#336bae;}</style><mask id="mask" x="-25.79" y="0" width="223.21" height="185.15" maskUnits="userSpaceOnUse"><g transform="translate(-42.61 -13.6)"><g id="mask1"><path class="cls-1" d="M147.45,198.75a92.58,92.58,0,1,0,0-185.15c-223.37,0-92.57,41.45-92.57,92.57A92.57,92.57,0,0,0,147.45,198.75Z"/></g></g></mask></defs><path class="cls-1" d="M146.72,198.75a92.58,92.58,0,1,0-92.58-92.58A92.57,92.57,0,0,0,146.72,198.75Z" transform="translate(-42.61 -13.6)"/><g class="cls-2"><path class="cls-3" d="M226.92,61.83H156.56v74h70.36Z" transform="translate(-42.61 -13.6)"/></g><path class="cls-4" d="M155,65.85l5.18-7.15,3,1.25L155,68.88Z" transform="translate(-42.61 -13.6)"/><path class="cls-5" d="M153.19,130.48,155,128l7.32,8.93-1.78.89Z" transform="translate(-42.61 -13.6)"/><path class="cls-6" d="M220.66,61.68l1.86-1.3,6.43,8-1.69,1.43Z" transform="translate(-42.61 -13.6)"/><g class="cls-7"><path class="cls-8" d="M88.58,54.29c-.75-2.18-1.5-4.91-3.74-5.46-1.35-.33-2.77.32-4.15.12-1.57-.22-2.73-1.47-4-2.4A92.17,92.17,0,0,0,55.77,93.3c1.9.55,4.27.76,4.4,2.57.1,1.46-.78,2.94-.33,4.34.7,2.18,3.82,2.2,6,1.39s4.62-2,6.57-.77c-.57,2.34,1.51,4.66,3.85,5.24s4.78-.07,7.09-.73a3.45,3.45,0,0,0,1.94-1c.46-.59.93-1.68.41-2.28-3.38-3.76.88-4.33-1-8.28-1.52-3.28-6.38-1.82-2.92-4.65,2.42-1.57,1.63-3.7.43-5.17s-2.85-3.37-1.82-5c1.21-1.88,4.33-.5,6.31-1.55,3.45-1.84.45-7.25,1.8-10.12.85-1.82,2.7-2.11,3.88-3.7A7.87,7.87,0,0,0,93.57,59C93.29,56.67,89.34,56.47,88.58,54.29Z" transform="translate(-42.61 -13.6)"/><path class="cls-9" d="M149.73,166.79c.23,4.29-24.47,25.07-26.84,28.66l-17.4-5S128,168.22,128,166.11c.12-4-6.31-14.07-8.68-17.33-3.41-4.71-4.49-10.94-8.51-15.15a4.83,4.83,0,0,1-1.54-2.24,3.8,3.8,0,0,1,.21-1.8c1.62-5.37,5.65-9.69,10.32-12.77,4.29-2.85,6.88.68,10.31,6.49C136.06,133.35,149.08,154.54,149.73,166.79Z" transform="translate(-42.61 -13.6)"/><path class="cls-10" d="M128,117.94a39.9,39.9,0,0,0-7.93-7.08c-3.23-2.65-10.2-5.44-10.2-5.44-1,4.63,2.18,5.82-14.77,14.06-4.34,2.1-31.62-21.75-31.62-21.75s-2.15.8-6.75,2.28c0,0-13.63,3.57-14.11,9s5.68,28.65,5.68,28.65,1.42,28.44,9.92,51.62h50.05c-.32-2.3.36-9.8.67-14.2.28-4.18,5.87-9.37,8.14-12.88,5.73-8.83,2.28-15.06,2-18.14C118.33,132.85,128,117.94,128,117.94Z" transform="translate(-42.61 -13.6)"/><path class="cls-8" d="M81.14,50.68c-1.8-6.43,7.37-13.51,14.11-10.35,1.23.57,7.72,5.66,9,6,4.12,1,8.85-2.33,12.47-.11s3.44,8.47,7.44,9.74c1.67.54,3.77,0,5,1.24,2.38,2.3-1.68,6-1.47,9.28.14,2.25,2.22,3.78,3.91,5.26a8.59,8.59,0,0,1,2.19,2.82,2.38,2.38,0,0,1,.19,1.06,2.49,2.49,0,0,1-.29,1,2.31,2.31,0,0,1-.73.79,2.42,2.42,0,0,1-1,.4l-3.52.51c1.51,2.82,3.08,5.83,2.84,9s-3,6.41-6.18,5.79c.33,2.88-.08,6-1.89,8.26s-5.3,3.33-7.77,1.81c-1.72-1.07-3.93-3.18-5.22-1.62.79,2.1,3.86,2.9,2.36,6.29-4.36,1.26-9,.9-12.21-2.3,1.22,1.64-1,3.31-3,3.19s-3.54-2.19-3.7-4.23-13.2,5.86-8.26-7.41c.71-1.91,12.25-1.82,12.84-3.78C99.89,88,96.6,82,98.76,76.88c.46-1.1,1.16-2.09,1.68-3.17,1.63-3.36,1.43-7.28,1.18-11-.25-4-5,.16-6.74-3.37s-7.67-1.88-11.6-1.49" transform="translate(-42.61 -13.6)"/><path class="cls-9" d="M74.4,87.26s7.2,11.15,4.77,21.37L96,138.2l6.52-28S95.24,105,97.8,97.64,74.4,87.26,74.4,87.26Z" transform="translate(-42.61 -13.6)"/><path class="cls-11" d="M65.73,91.26a11,11,0,0,0-4.38,7.28,8.37,8.37,0,0,0,2.27,6.52c.74.78,1.63,1.41,2.35,2.21,3.42,3.74,2.13,9.64,3.35,14.56a14.4,14.4,0,0,0,12.49,10.6,6.54,6.54,0,0,1,2.46.43c1.67.83,2,3.08,3.4,4.36,1.69,1.6,4.35,1.29,6.64.88,3.48-.62,7.07-1.29,10-3.21s5.18-5.47,4.47-8.94c-.44-2.17-2-4.09-2-6.31a23,23,0,0,1,.67-3.91c.2-1.31,0-2.85-1.09-3.61-.63-.45-1.52-.62-1.85-1.31-.24-.5-.09-1.12-.3-1.63a1.71,1.71,0,0,0-2.43-.57,4,4,0,0,0-1.51,2.33,14.67,14.67,0,0,0-.6,5.78,16.76,16.76,0,0,1,.27,4.11,3.22,3.22,0,0,1-2.52,2.88,3.74,3.74,0,0,1-3-1.57c-4-4.64-3.21-12-7.21-16.64-2.85-3.29-8-5-8.75-9.33C78,93.35,80.73,88.34,77,87,73.9,85.91,68,89.4,65.73,91.26Z" transform="translate(-42.61 -13.6)"/><path class="cls-9" d="M73.38,77.54c3.89,9.79,8.51,20.24,19.5,24.06a8.25,8.25,0,0,0,2.83.89,5.63,5.63,0,0,0,2.89-1.25,30.92,30.92,0,0,0,5.12-45.91s-8-10.66-23.18.8C70.74,63.56,73.38,77.54,73.38,77.54Z" transform="translate(-42.61 -13.6)"/><path class="cls-8" d="M87.65,57.26a10.7,10.7,0,0,0-1.81,1.53c-1.39,1.91.63,4.6,2.85,5.41s4.81.78,6.7,2.21C98.81,69,98.3,75,102,77.08c3.1,1.76,7-.38,10.54.26a3.56,3.56,0,0,1,2.11,1.08c.41.49.61,1.14,1,1.65,1.51,2.14,5.24,1.26,6.51-1s.68-5.17-.32-7.59-2.43-4.72-2.85-7.31c-.37-2.33.07-4.86-1-6.94-1-1.79-2.85-2.85-4.71-3.62a58.94,58.94,0,0,0-10.39-2.85l-5.69-1.19C94.7,49,89,47.32,87.89,50,87,52.24,90.72,54.6,87.65,57.26Z" transform="translate(-42.61 -13.6)"/><path class="cls-12" d="M97.12,77.49a1.93,1.93,0,0,1-1.77,0c-.93-.3-2.45-1.92-2.23-2.84" transform="translate(-42.61 -13.6)"/><path class="cls-12" d="M98,77.88a2,2,0,0,1-1.86-2.59" transform="translate(-42.61 -13.6)"/><path class="cls-12" d="M98.47,78.08c-.67.15-1-1.36-.81-1.87" transform="translate(-42.61 -13.6)"/><path class="cls-12" d="M106.78,79.69a1.65,1.65,0,0,0,1.45.78c.84.1,3.42-1.13,3.61-2.06" transform="translate(-42.61 -13.6)"/><path class="cls-12" d="M105.94,79.7a1.88,1.88,0,0,0,2.6-1.57" transform="translate(-42.61 -13.6)"/><path class="cls-12" d="M105.43,79.67c.49.41,1.39-.81,1.45-1.35" transform="translate(-42.61 -13.6)"/><path class="cls-13" d="M81.62,83.86s15-.46,18.9.4c2.39.52,2.71-.06,4.12.42,1.85.62,1.54,1.14,3.13,2.83a8.21,8.21,0,0,1,1.28,1.71s-8,14.76-14,13.33C87.43,100.76,80.25,91.27,81.62,83.86Z" transform="translate(-42.61 -13.6)"/><path class="cls-8" d="M86.72,77.39c-2,1.06-5.1-.33-6.31,1.56-1,1.6.62,3.5,1.82,5s2,3.6-.43,5.17c-3.46,2.82,1.4,1.36,2.91,4.65,1.84,4-2.42,4.52,1,8.28.52.58.07,1.64-.41,2.28a3.34,3.34,0,0,1-1.94,1c-2.31.65-4.76,1.32-7.1.73s-4.42-2.91-3.84-5.24c-1.95-1.22-4.42,0-6.57.76s-5.27.8-6-1.39c-.45-1.39.43-2.88.33-4.34-.22-2.91-6.27-1.65-6.75-4.42a6.74,6.74,0,0,1,1-2.71,6.51,6.51,0,0,1,2.06-2c-.84-2.36-3.5-3.4-5.73-4.54S46.2,78.82,47,76.43c.95-3,5.5-2.89,7.34-5.41,1.48-2,.67-4.82,0-7.23s-.79-5.53,1.33-6.86c1.86-1.16,10.53-1.18,12.48-.17,1-3.34-4.11-5.79-1.74-8.36s6.39-4,9.46-2.32c1.66.91,3,2.63,4.82,2.89,1.38.2,2.8-.45,4.15-.12,2.24.55,3,3.28,3.74,5.46s4.71,2.38,5,4.67a7.87,7.87,0,0,1-1.16,4.61c-1.18,1.59-3,1.89-3.89,3.7C87.17,70.14,90.17,75.56,86.72,77.39Z" transform="translate(-42.61 -13.6)"/><path class="cls-14" d="M99.32,113.18c.68,2.85-1.59,4.81.29,10.34.66,2,.48,6.06-2.9,7.54-1.89.82-3.71.19-5.35,1.42-3.47,2.59-4.27,2.05-4.67,2.34-1.21.85,3,.81,4.1,1.77A6.3,6.3,0,0,0,95,137.67c1.55,0,3.26-.2,4.33-1.33s1.21-3.08,2.28-4.33a14.35,14.35,0,0,1,1.22-1.11,8.75,8.75,0,0,0,2.52-5.6,26.41,26.41,0,0,0-.38-6.27c-.48-3.34-4.72-10.87-6.55-13.53C97.6,108.33,98.63,110.33,99.32,113.18Z" transform="translate(-42.61 -13.6)"/><path class="cls-15" d="M106.73,108.24a21.8,21.8,0,0,0,5.93-.11c2.35-.25,4.56,4.79,5.22,6.69,1.17,3.33.77,7.74,1.05,11.26s.52,7.29-1,10.51a17,17,0,0,1-3.8,4.93c-3.76,3.65-8.49,6.77-13.73,6.87s-10.78-3.79-10.9-9a16.4,16.4,0,0,1-12.78-4c-1.51-1.35-2.65-4-1-5.15.93-.63,2.18-.3,3.25,0a26,26,0,0,1,7.52,3.36,9.53,9.53,0,0,0,2,1.33c1.55.63,3.3.11,4.88-.42a21.84,21.84,0,0,0,6.17-2.8A7.42,7.42,0,0,0,102.9,126c0-3.07-2.33-5.52-2.66-8.52-.16-1.52.49-3.1.12-4.6s-1.73-2.48-2-4c-.5-3.06,0-3.41,0-3.41C100.08,104.91,103.14,107.83,106.73,108.24Z" transform="translate(-42.61 -13.6)"/><path class="cls-11" d="M109,114.3c-.25,8,10.17,6-1.42,22.33-1.68,2.36,2.8,3.76-2.42,8.4-3.4,3-5.78,2.9-5.22,3.37,1,.85,6.17-.86,9.11-2.22,4.1-1.91,8.11-4.71,10-8.83a18.2,18.2,0,0,0,1.31-6.62,57.38,57.38,0,0,0-1.22-15.07c-.74-3.39-2.41-8.33-6.4-7.67a18.77,18.77,0,0,1-4.18.37l-1.74-.13S109.1,110,109,114.3Z" transform="translate(-42.61 -13.6)"/><path class="cls-8" d="M86.72,77.39c-2,1.06-5.1-.33-6.31,1.56-1,1.6.62,3.5,1.82,5s2,3.6-.43,5.17c-3.46,2.82,1.4,1.36,2.91,4.65,1.84,4-2.42,4.52,1,8.28.52.58.07,1.64-.41,2.28a3.34,3.34,0,0,1-1.94,1c-2.31.65-4.76,1.32-7.1.73s-4.42-2.91-3.84-5.24c-1.95-1.22-4.42,0-6.57.76s-5.27.8-6-1.39c-.45-1.39.43-2.88.33-4.34-.22-2.91-6.27-1.65-6.75-4.42a6.74,6.74,0,0,1,1-2.71,6.51,6.51,0,0,1,2.06-2c-.84-2.36-3.5-3.4-5.73-4.54S46.2,78.82,47,76.43c.95-3,5.5-2.89,7.34-5.41,1.48-2,.67-4.82,0-7.23s-.79-5.53,1.33-6.86c1.86-1.16,10.53-1.18,12.48-.17,1-3.34-4.11-5.79-1.74-8.36s6.39-4,9.46-2.32c1.66.91,3,2.63,4.82,2.89,1.38.2,2.8-.45,4.15-.12,2.24.55,3,3.28,3.74,5.46s4.71,2.38,5,4.67a7.87,7.87,0,0,1-1.16,4.61c-1.18,1.59-3,1.89-3.89,3.7C87.17,70.14,90.17,75.56,86.72,77.39Z" transform="translate(-42.61 -13.6)"/></g></svg>