<svg id="Layer_1" data-name="Layer 1" xmlns="http://www.w3.org/2000/svg" xmlns:xlink="http://www.w3.org/1999/xlink" viewBox="0 0 83 83"><defs><style>.cls-1{fill:#eae3d6;}.cls-2{fill:#3671b8;}.cls-3{fill:#eda620;}.cls-4{mask:url(#mask);}.cls-5{mask:url(#mask-2);}.cls-6,.cls-7{fill:#2d9e9e;}.cls-7{opacity:0.72;isolation:isolate;}</style><mask id="mask" x="8.99" y="11.34" width="63.36" height="62.76" maskUnits="userSpaceOnUse"><g transform="translate(-94.06 -144.95)"><g id="mask0"><path class="cls-1" d="M134.74,219.06a31.38,31.38,0,1,0-31.68-31.38A31.53,31.53,0,0,0,134.74,219.06Z"/></g></g></mask><mask id="mask-2" x="10.2" y="11.56" width="66.59" height="59.89" maskUnits="userSpaceOnUse"><g transform="translate(-94.06 -144.95)"><g id="mask1"><path class="cls-2" d="M112.34,207c-8.32-10-9.49-21.11-3.7-32.59,5.62-11.16,17.58-17.32,30.28-15.68a29.5,29.5,0,0,1,25.59,24.61c0,.23.06.45.09.68a24.79,24.79,0,0,1-.31,8.24,33.44,33.44,0,0,1-8.78,17s-7.19,7.31-21.85,7.1S112.34,207,112.34,207Z"/></g></g></mask></defs><path class="cls-3" d="M135.56,228a41.5,41.5,0,1,0-41.5-41.5A41.5,41.5,0,0,0,135.56,228Z" transform="translate(-94.06 -144.95)"/><path class="cls-1" d="M135.56,225.53a39.08,39.08,0,1,0-39.07-39.08A39.08,39.08,0,0,0,135.56,225.53Z" transform="translate(-94.06 -144.95)"/><g class="cls-4"><path class="cls-2" d="M112.34,207c-8.32-10-9.49-21.11-3.7-32.59,5.62-11.16,17.58-17.32,30.28-15.68a29.5,29.5,0,0,1,25.59,24.61c0,.23.06.45.09.68a24.79,24.79,0,0,1-.31,8.24,33.44,33.44,0,0,1-8.78,17s-7.19,7.31-21.85,7.1S112.34,207,112.34,207Z" transform="translate(-94.06 -144.95)"/><path class="cls-2" d="M112.34,207c-8.32-10-9.49-21.11-3.7-32.59,5.62-11.16,17.58-17.32,30.28-15.68a29.5,29.5,0,0,1,25.59,24.61c0,.23.06.45.09.68a24.79,24.79,0,0,1-.31,8.24,33.44,33.44,0,0,1-8.78,17s-7.19,7.31-21.85,7.1S112.34,207,112.34,207Z" transform="translate(-94.06 -144.95)"/></g><g class="cls-5"><path class="cls-6" d="M170.86,181.91,161.43,179c.61,3.12,2.76,1.93,5.17,3.16-3.86,3.07-4.92,5.45-7.29.16-4.95-6.4-1.32,1.14.55,4,.92,1.06,1.74.73,3.39.75-1.16,3.78-5.42,4.68-4,9,.13.38.06,1.16-.18,1.31-2.58,1.47-2.48,4.52-4,6.61-3.85,5-7.37-4.7-6.14-8.05.24-1.32-1.21-3-1.42-4.39a2.54,2.54,0,0,0-3.05-2.78c-10.9,3.43-7.1-13.89,1.88-12.33,2.1-.45,2.33,3.55,5.41,1.68,1.59-.58,6.4,2.12,5.15-1.79-1.28-.07-3.22.68-2.86-2.23-2.37,2.06-3.25,0-5.38-1.66-1.07.71.5,1.47.9,2.23-.7.55-1.64-1.24-2.69-1.88-1.68,1.61-3.25,2.88-5.69,3.26-.36-1.43-.36-2.27,1.12-2.38s2.22-.69.94-1.84c1.5-.84,3.46-3.92,5.17-2.54,1.51-.31,7.11-2.78,3-3.08,0-5.05-1.4,4.13-5.16.88.47-3.19,8.76-5.56,8.18-2.31.51.14,1.06.47,1.53.38C165.38,159.75,169.26,175,170.86,181.91Z" transform="translate(-94.06 -144.95)"/><path class="cls-6" d="M123.21,206.12c-1.76,2.27-2.88,4.87-.94,7.75-4.86-2.11-4.39-8.37-4.61-12.74-.28-3.83-6.66-5.73-4.24-10,2.4-3.06-2.49-3.36-4.14-5.35-1.81-1.25-5.61-1.22-4.94-4.27,1.33-5.9,3.43-13,8.66-16.46,2.54-.09,4.89-.35,6-3.74.44,1.74.49,3.24,2.41,2.84-1.85.86-8.28,2.18-4.79,4.52a22.17,22.17,0,0,0,1.95,1.18c.9-2.53,5.47-5.66,7-.09-1.78.88-6.82,1.06-2.83,2.68-4.78.4-6.63,4.63-9.28,7.71-2-2.88-7.44-.53-5.91,3.07.72,1.36,1.79,1,2.54-.14,1.37,2.75,2.77,5.56,6.58,4.23,2.31-.58,8.13,1.63,7.41,4.48,2.4.8,8,.62,5.47,4.47-1.06,1.7-.34,4-2.61,4.91C125.6,202.43,124.64,204.71,123.21,206.12Z" transform="translate(-94.06 -144.95)"/><path class="cls-6" d="M128.47,160.31c2.74-4.14,12.74-1.11,12.74-1.11-2.36,4-5.8,5.13-9.72,7-1.56.76-1.86-.56-1.65-1.67C131.4,161.22,129.29,162.24,128.47,160.31Z" transform="translate(-94.06 -144.95)"/><path class="cls-6" d="M120.4,162.61c2.95-2.51,3.83.12,6.32,1.94l-3.2,1.36C122.93,163.61,128,164.88,120.4,162.61Z" transform="translate(-94.06 -144.95)"/><path class="cls-6" d="M163,197.33,161.48,202C159.51,200.94,160.43,197.34,163,197.33Z" transform="translate(-94.06 -144.95)"/><path class="cls-7" d="M125.07,157.71c1.64,0,4.79-2,5.65-.81C129.08,157,125.43,159.76,125.07,157.71Z" transform="translate(-94.06 -144.95)"/><path class="cls-6" d="M143.19,167.87c.7.95,2.21,2.45.33,2.62-.31-1.52-.77-1.6-2-.56C140.84,169.24,142.64,168.63,143.19,167.87Z" transform="translate(-94.06 -144.95)"/></g></svg>