<svg width="417" height="418" viewBox="0 0 417 418" fill="none" xmlns="http://www.w3.org/2000/svg">
<g id="Group 1">
<g id="red-planet">
<g id="4-Environment-background-red 1" clip-path="url(#clip0)">
<path id="Vector" d="M208.34 398.19C313.003 398.19 397.85 313.343 397.85 208.68C397.85 104.017 313.003 19.17 208.34 19.17C103.677 19.17 18.83 104.017 18.83 208.68C18.83 313.343 103.677 398.19 208.34 398.19Z" fill="#F46256"/>
<g id="4-Environment-continents-orange 1">
<path id="Vector_2" d="M309.782 49.5823C295.72 52.1736 278.463 61.8912 276.761 73.2493C300.324 93.7816 309.354 35.8627 309.072 67.7322C334.482 69.5921 299.436 85.1821 289.988 87.1465C279.319 78.4634 267.021 97.8881 257.625 103.165C265.632 110.479 261.906 114.105 251.769 114.826C242.498 115.495 242.509 120.771 244.732 129.789C259.995 127.438 269.787 119.403 280.227 109.173C286.783 113.175 292.703 124.512 297.087 121.022C294.529 116.257 284.748 111.43 291.429 106.989C304.75 117.637 310.22 130.468 325.076 117.438C322.831 135.818 334.931 131.022 343.001 131.523C350.768 156.194 320.702 139.151 310.763 142.84C291.481 154.595 290.009 129.361 276.949 132.224C220.763 122.328 196.992 231.646 265.184 210.058C277.2 208.731 284.163 215.565 284.267 227.55C285.583 236.118 294.707 246.922 293.141 255.261C285.531 276.483 307.516 337.578 331.643 306.106C341.132 292.888 340.506 273.714 356.614 264.372C358.149 263.495 358.598 258.563 357.763 256.138C348.805 229.117 375.458 223.454 382.713 199.62C372.389 199.494 367.242 201.532 361.521 194.855C349.881 176.642 327.143 129.026 358.117 169.443C369.946 196.13 376.543 191.856 391.086 179.171C390.929 177.948 390.773 176.736 390.606 175.535C390.056 171.69 389.36 167.858 388.518 164.041C380.166 162.588 373.767 161.199 371.282 148.545L385.751 152.954C373.444 110.586 346.526 73.9587 309.782 49.5823V49.5823Z" fill="#F77A3C"/>
<path id="Vector_3" d="M114.717 44.8384C133.111 28.9664 138.686 45.5594 154.252 57.0533L134.218 65.632C130.554 51.1183 162.207 59.1431 114.717 44.8384Z" fill="#F77A3C"/>
<path id="Vector_4" d="M257.26 78.0454C261.645 83.9804 271.03 93.4891 259.348 94.5235C257.364 84.9836 254.514 84.482 247.123 91.0126C242.561 86.6554 253.825 82.7788 257.26 78.0454Z" fill="#F77A3C"/>
<path id="Vector_5" d="M41.1379 118.849C30.9279 139.315 24.1874 159.544 20.9163 179.537C27.9735 183.988 38.6637 185.858 45.178 190.414C55.4507 203.026 86.1329 204.865 71.0475 224.175C55.9309 251.405 95.7791 263.463 97.6165 287.632C98.9632 315.207 96.0297 354.715 126.42 367.985C114.299 349.835 121.304 333.419 132.276 319.115C141.223 310.191 147.257 295.813 155.588 287.569C169.765 281.519 165.276 267.308 171.874 256.556C187.679 232.252 152.665 233.401 137.653 228.344C142.152 210.393 105.77 196.464 91.3631 200.132C67.4981 208.491 58.7496 190.79 50.1578 173.435C45.5017 180.665 38.8098 182.839 34.3104 174.323C24.7267 151.575 58.7809 136.706 71.2668 154.992C87.845 135.505 99.4539 108.849 129.322 106.3C104.371 96.0595 135.878 94.9937 147.069 89.3826C137.673 54.2634 109.142 74.0121 103.494 89.9468C98.7753 87.1152 94.8291 85.1403 91.3422 82.5489C69.4294 67.6904 109.653 59.3626 121.179 53.9186C112.827 55.695 110.155 51.6198 108.38 45.2877C79.5092 63.0018 56.2059 88.4951 41.1379 118.849V118.849Z" fill="#F77A3C"/>
<path id="Vector_6" d="M114.717 44.5145C133.132 28.632 138.728 45.2459 154.252 56.6981L134.218 65.2767C130.554 50.7839 162.207 58.8297 114.717 44.5145Z" fill="#F77A3C"/>
<path id="Vector_7" d="M257.26 78.3902C261.645 84.3253 271.03 93.8339 259.348 94.8683C257.364 85.3284 254.514 84.8268 247.123 91.3575C242.561 87.0002 253.825 83.1759 257.26 78.3902Z" fill="#F77A3C"/>
<path id="Vector_8" d="M177.177 20.6385C172.307 22.5931 168.125 25.9494 165.161 30.2829C170.381 42.5396 183.493 36.0404 173.753 57.0011C172.448 64.0019 174.317 72.3089 184.088 67.5442C208.569 55.7472 230.023 48.0463 244.889 22.6656C244.889 22.6656 241.11 21.861 236.287 21.0774C234.387 20.7743 232.466 20.4818 230.534 20.231C212.815 17.8966 194.859 18.0337 177.177 20.6385V20.6385Z" fill="#F77A3C"/>
<path id="Vector_9" d="M369.048 291.362C373.571 282.501 377.481 273.34 380.751 263.944C366.73 264.602 360.936 282.836 369.048 291.362Z" fill="#F77A3C"/>
</g>
</g>
</g>
<g id="red-dots">
<g id="4-Environment-red-ring-of-dots 1" clip-path="url(#clip1)">
<path id="Vector_10" d="M179.92 2.68C179.757 2.66515 179.593 2.66515 179.43 2.68H179.08H178.67H178.44C177.512 2.74896 176.649 3.18384 176.041 3.88898C175.434 4.59411 175.131 5.51174 175.2 6.44C175.269 7.36826 175.704 8.23111 176.409 8.83872C177.114 9.44634 178.032 9.74896 178.96 9.68H179.45L180.4 9.54C181.328 9.479 182.194 9.05175 182.808 8.35224C183.421 7.65273 183.731 6.73826 183.67 5.81C183.609 4.88174 183.182 4.01574 182.482 3.40249C181.783 2.78925 180.868 2.479 179.94 2.54L179.92 2.68ZM152 8.53C151.679 8.52967 151.359 8.57342 151.05 8.66V8.66L150.05 8.93C149.24 9.16635 148.542 9.68769 148.085 10.3979C147.629 11.1082 147.445 11.9595 147.566 12.7949C147.688 13.6304 148.108 14.3936 148.748 14.944C149.388 15.4944 150.206 15.7949 151.05 15.79C151.388 15.7938 151.724 15.75 152.05 15.66L152.98 15.39C153.789 15.1541 154.485 14.6344 154.942 13.9262C155.398 13.2181 155.584 12.3691 155.465 11.535C155.346 10.701 154.93 9.93792 154.293 9.38591C153.657 8.8339 152.843 8.53 152 8.53V8.53ZM125.2 18.21C124.718 18.2079 124.241 18.3066 123.8 18.5V18.5H123.74L122.88 18.89C122.043 19.2739 121.392 19.9719 121.066 20.8329C120.74 21.6939 120.767 22.6485 121.14 23.49C121.419 24.1085 121.87 24.6336 122.439 25.0025C123.008 25.3713 123.672 25.5684 124.35 25.57C124.84 25.5693 125.324 25.4636 125.77 25.26L126.65 24.87C127.383 24.5452 127.982 23.9786 128.348 23.265C128.713 22.5513 128.822 21.7338 128.657 20.9492C128.492 20.1646 128.063 19.4605 127.441 18.9546C126.819 18.4488 126.042 18.1718 125.24 18.17L125.2 18.21ZM100 31.51C99.345 31.5139 98.7042 31.7009 98.15 32.05L97.84 32.24L97.4 32.51C96.615 33.006 96.0591 33.7935 95.8547 34.6993C95.6503 35.6051 95.814 36.555 96.31 37.34C96.8059 38.125 97.5934 38.6809 98.4992 38.8853C99.405 39.0897 100.355 38.926 101.14 38.43L101.96 37.92C102.579 37.4982 103.046 36.8897 103.294 36.1833C103.542 35.4769 103.558 34.7096 103.339 33.9936C103.12 33.2776 102.678 32.6504 102.077 32.2035C101.477 31.7567 100.749 31.5137 100 31.51V31.51ZM76.93 48.19C76.1147 48.1905 75.3255 48.4771 74.7 49L74.32 49.32L73.98 49.6C73.2929 50.1989 72.8665 51.0422 72.7916 51.9506C72.7166 52.8591 72.999 53.7609 73.5787 54.4643C74.1584 55.1677 74.9896 55.6172 75.8955 55.7173C76.8015 55.8173 77.7108 55.56 78.43 55L79.18 54.38C79.7337 53.9191 80.1316 53.2987 80.3196 52.6032C80.5076 51.9078 80.4764 51.1713 80.2303 50.4943C79.9842 49.8173 79.5352 49.2327 78.9445 48.8203C78.3539 48.4079 77.6504 48.1878 76.93 48.19V48.19ZM56.36 67.9C55.8716 67.898 55.3883 67.9995 54.9419 68.1977C54.4955 68.3959 54.0961 68.6864 53.77 69.05C53.63 69.19 53.5 69.34 53.36 69.49L53.3 69.56L53.23 69.63C52.6442 70.3257 52.3522 71.2221 52.4159 72.1294C52.4796 73.0367 52.894 73.8835 53.5712 74.4905C54.2485 75.0976 55.1354 75.4172 56.0442 75.3816C56.953 75.346 57.8123 74.9581 58.44 74.3L59.09 73.58C59.405 73.2372 59.6488 72.8352 59.8073 72.3975C59.9659 71.9598 60.036 71.4949 60.0137 71.0299C59.9914 70.5649 59.877 70.1089 59.6773 69.6884C59.4775 69.2678 59.1963 68.8911 58.85 68.58C58.2069 67.9965 57.3683 67.6754 56.5 67.68L56.36 67.9ZM38.71 90.26C38.14 90.2596 37.5785 90.3989 37.0747 90.6656C36.5709 90.9323 36.1401 91.3184 35.82 91.79L35.61 92.1L35.26 92.61C35.0028 92.99 34.8231 93.4171 34.7312 93.8666C34.6393 94.3162 34.6369 94.7795 34.7242 95.2299C34.8115 95.6804 34.9868 96.1093 35.24 96.4919C35.4933 96.8746 35.8195 97.2036 36.2 97.46C36.7887 97.8618 37.4874 98.0714 38.2 98.06C38.7738 98.0599 39.3389 97.9196 39.8461 97.6512C40.3533 97.3828 40.7872 96.9944 41.11 96.52L41.65 95.73C42.0072 95.2033 42.2144 94.5894 42.2496 93.954C42.2848 93.3186 42.1466 92.6855 41.8497 92.1226C41.5528 91.5597 41.1085 91.0881 40.5643 90.7583C40.02 90.4284 39.3964 90.2527 38.76 90.25L38.71 90.26ZM24.34 114.86C23.6893 114.859 23.0514 115.041 22.4983 115.384C21.9452 115.726 21.499 116.217 21.21 116.8V116.8C21.16 116.92 21.1 117.02 21.05 117.14L20.85 117.56C20.536 118.382 20.5433 119.292 20.8704 120.109C21.1975 120.926 21.8203 121.59 22.6149 121.969C23.4095 122.347 24.3174 122.412 25.1579 122.151C25.9984 121.89 26.7096 121.322 27.15 120.56L27.57 119.69C27.9788 118.857 28.0411 117.896 27.7431 117.017C27.4451 116.138 26.8112 115.413 25.98 115C25.4968 114.766 24.9671 114.643 24.43 114.64L24.34 114.86ZM13.57 141.23C12.8346 141.231 12.1181 141.463 11.5222 141.894C10.9262 142.324 10.4811 142.932 10.25 143.63V143.63C10.18 143.83 10.12 144.02 10.06 144.22V144.31L9.96999 144.6C9.68233 145.478 9.75448 146.434 10.1706 147.259C10.5868 148.084 11.3129 148.71 12.19 149C12.5352 149.114 12.8965 149.171 13.26 149.17C14.0009 149.171 14.723 148.937 15.3229 148.502C15.9229 148.068 16.3699 147.454 16.6 146.75L16.9 145.83C17.1846 144.947 17.109 143.987 16.6895 143.159C16.27 142.331 15.5406 141.703 14.66 141.41C14.307 141.3 13.9397 141.243 13.57 141.24V141.23ZM6.61999 168.85C5.80269 168.851 5.01169 169.139 4.38487 169.663C3.75805 170.188 3.33519 170.916 3.18999 171.72L3.12999 172.02L3.00999 172.73H2.99999C2.85215 173.638 3.06859 174.567 3.60228 175.316C4.13596 176.065 4.94373 176.573 5.84999 176.73C6.04949 176.75 6.2505 176.75 6.44999 176.73C7.27398 176.728 8.07117 176.437 8.70192 175.907C9.33268 175.377 9.75679 174.641 9.89999 173.83L10.07 172.88C10.2298 171.964 10.0194 171.022 9.48502 170.26C8.95066 169.499 8.13601 168.981 7.21999 168.82C7.01909 168.78 6.81479 168.76 6.60999 168.76L6.61999 168.85ZM3.61999 197.18C2.71722 197.182 1.85008 197.532 1.19972 198.159C0.549368 198.785 0.166102 199.638 0.129993 200.54V200.8V201C0.129993 201.16 0.129993 201.32 0.129993 201.48C0.103058 202.404 0.443826 203.301 1.07751 203.974C1.71119 204.647 2.58602 205.041 3.50999 205.07H3.61999C4.53048 205.071 5.40555 204.717 6.06046 204.085C6.71537 203.452 7.09887 202.59 7.12999 201.68V200.68C7.15975 199.751 6.82111 198.849 6.18794 198.169C5.55477 197.489 4.67842 197.086 3.74999 197.05L3.61999 197.18ZM4.61999 225.66H4.25999C3.80256 225.706 3.35876 225.842 2.95409 226.061C2.54942 226.279 2.19186 226.575 1.90194 226.932C1.61202 227.288 1.39546 227.699 1.2647 228.14C1.13394 228.581 1.09156 229.043 1.13999 229.5C1.13999 229.75 1.19999 229.99 1.21999 230.23V230.52C1.31592 231.373 1.72285 232.161 2.36299 232.733C3.00314 233.305 3.8316 233.62 4.68999 233.62C4.81647 233.63 4.94351 233.63 5.06999 233.62C5.99374 233.519 6.83986 233.056 7.42285 232.333C8.00584 231.609 8.27812 230.684 8.17999 229.76L8.07999 228.76C7.98649 227.899 7.5788 227.103 6.9349 226.523C6.29101 225.944 5.45613 225.622 4.58999 225.62L4.61999 225.66ZM9.49999 253.72C8.96804 253.718 8.44261 253.837 7.96384 254.069C7.48506 254.301 7.06562 254.639 6.73757 255.058C6.40951 255.476 6.18152 255.965 6.07102 256.485C5.96052 257.005 5.97043 257.544 6.09999 258.06C6.09999 258.2 6.16999 258.34 6.20999 258.48V258.54L6.32999 258.99V259.04C6.52299 259.79 6.9598 260.454 7.57169 260.928C8.18357 261.403 8.9358 261.66 9.70999 261.66C10.0029 261.661 10.295 261.628 10.58 261.56C11.478 261.327 12.2476 260.748 12.7214 259.951C13.1952 259.153 13.3349 258.2 13.11 257.3L12.88 256.36C12.6887 255.603 12.2505 254.932 11.6347 254.452C11.0189 253.972 10.2607 253.711 9.47999 253.71L9.49999 253.72ZM18.31 280.8C17.8608 280.803 17.4163 280.891 17 281.06C16.5757 281.231 16.1891 281.483 15.8624 281.803C15.5358 282.123 15.2754 282.504 15.0961 282.925C14.9169 283.346 14.8223 283.798 14.8178 284.255C14.8133 284.712 14.899 285.166 15.07 285.59L15.46 286.59C15.7263 287.227 16.1751 287.771 16.7498 288.154C17.3245 288.536 17.9996 288.74 18.69 288.74C19.1429 288.742 19.5916 288.653 20.01 288.48C20.8698 288.128 21.5547 287.449 21.9146 286.592C22.2745 285.735 22.2801 284.771 21.93 283.91L21.56 283.01C21.2959 282.365 20.8458 281.813 20.267 281.425C19.6882 281.037 19.0069 280.83 18.31 280.83V280.8ZM30.85 306.38C30.2385 306.383 29.6387 306.547 29.1106 306.856C28.5825 307.164 28.1446 307.605 27.8408 308.136C27.5369 308.667 27.3779 309.268 27.3795 309.879C27.3811 310.491 27.5434 311.091 27.85 311.62V311.62V311.68L28.28 312.42C28.786 313.146 29.5479 313.653 30.4125 313.839C31.2771 314.026 32.1804 313.878 32.9405 313.426C33.7007 312.974 34.2614 312.25 34.5099 311.401C34.7584 310.552 34.6763 309.641 34.28 308.85L33.8 308.02C33.4942 307.494 33.0567 307.057 32.5307 306.752C32.0046 306.447 31.4081 306.284 30.8 306.28L30.85 306.38ZM46.85 329.95C46.1965 329.952 45.5566 330.136 45.0027 330.483C44.4488 330.83 44.003 331.325 43.7158 331.912C43.4285 332.499 43.3114 333.154 43.3775 333.804C43.4436 334.454 43.6904 335.073 44.09 335.59L44.74 336.41C45.3157 337.131 46.1532 337.594 47.0695 337.699C47.9857 337.804 48.9063 337.542 49.63 336.97C49.9915 336.685 50.2932 336.332 50.5181 335.931C50.7429 335.529 50.8863 335.087 50.9402 334.63C50.9941 334.173 50.9573 333.71 50.832 333.267C50.7067 332.825 50.4953 332.411 50.21 332.05L49.61 331.29C49.2769 330.881 48.8557 330.552 48.3777 330.329C47.8998 330.106 47.3775 329.993 46.85 330V329.95ZM66 351.08C65.3055 351.082 64.6273 351.29 64.0517 351.679C63.476 352.067 63.0289 352.618 62.7673 353.262C62.5057 353.905 62.4414 354.611 62.5825 355.291C62.7237 355.971 63.0639 356.594 63.56 357.08V357.08L64.18 357.67L64.3 357.79C64.9726 358.423 65.8683 358.765 66.7918 358.741C67.7153 358.716 68.5918 358.328 69.23 357.66C69.5518 357.325 69.8044 356.93 69.9731 356.497C70.1418 356.064 70.2234 355.602 70.2132 355.137C70.203 354.673 70.1011 354.215 69.9135 353.79C69.7259 353.365 69.4563 352.981 69.12 352.66L68.42 352C67.7718 351.362 66.8995 351.003 65.99 351L66 351.08ZM87.86 369.36C87.1193 369.356 86.3964 369.586 85.7951 370.019C85.1939 370.452 84.7454 371.064 84.5142 371.767C84.283 372.471 84.281 373.23 84.5084 373.935C84.7359 374.64 85.1811 375.254 85.78 375.69L85.84 375.74L86.2 376L86.28 376.06H86.34L86.54 376.2C87.2959 376.74 88.2352 376.957 89.1513 376.804C90.0674 376.651 90.8853 376.141 91.425 375.385C91.9647 374.629 92.182 373.69 92.0292 372.774C91.8764 371.858 91.3659 371.04 90.61 370.5L89.83 369.94C89.2484 369.516 88.5498 369.282 87.83 369.27L87.86 369.36ZM112 384.45C111.22 384.448 110.462 384.707 109.846 385.185C109.23 385.663 108.792 386.333 108.6 387.089C108.408 387.845 108.474 388.643 108.788 389.357C109.101 390.071 109.644 390.66 110.33 391.03H110.39L110.71 391.2L110.8 391.25H110.87L111.13 391.39C111.948 391.781 112.886 391.839 113.746 391.553C114.606 391.266 115.321 390.657 115.741 389.853C116.161 389.05 116.253 388.115 115.997 387.245C115.741 386.375 115.158 385.638 114.37 385.19L113.51 384.73C113.007 384.468 112.448 384.331 111.88 384.33L112 384.45ZM138 396C137.174 395.991 136.371 396.276 135.735 396.804C135.099 397.332 134.671 398.068 134.527 398.882C134.383 399.695 134.533 400.534 134.949 401.248C135.365 401.961 136.021 402.504 136.8 402.78L137.61 403.08H137.69H137.75C138.122 403.214 138.515 403.282 138.91 403.28C139.737 403.283 140.538 402.994 141.172 402.463C141.806 401.931 142.231 401.193 142.372 400.378C142.514 399.564 142.362 398.725 141.944 398.012C141.527 397.298 140.87 396.756 140.09 396.48L139.18 396.16C138.799 396.037 138.4 395.983 138 396V396ZM165.38 403.84C164.518 403.843 163.687 404.165 163.047 404.743C162.408 405.321 162.004 406.115 161.913 406.973C161.823 407.83 162.052 408.691 162.557 409.39C163.062 410.089 163.807 410.577 164.65 410.76L165.46 410.93H165.53H165.65C165.88 410.978 166.115 411.001 166.35 411C167.218 411.001 168.055 410.679 168.699 410.097C169.344 409.516 169.749 408.715 169.836 407.852C169.923 406.988 169.686 406.123 169.171 405.424C168.657 404.725 167.901 404.243 167.05 404.07L166.05 403.87C165.813 403.822 165.572 403.798 165.33 403.8L165.38 403.84ZM193.6 407.84C192.672 407.807 191.768 408.144 191.089 408.777C190.409 409.41 190.008 410.287 189.975 411.215C189.942 412.143 190.279 413.047 190.912 413.726C191.545 414.406 192.422 414.807 193.35 414.84L194.2 414.9H194.59C195.518 414.928 196.42 414.586 197.096 413.949C197.772 413.312 198.167 412.433 198.195 411.505C198.223 410.577 197.881 409.675 197.244 408.999C196.607 408.323 195.728 407.928 194.8 407.9L193.8 407.83L193.6 407.84ZM223.07 407.84H222.83L221.83 407.9C221.37 407.914 220.918 408.019 220.499 408.209C220.08 408.398 219.702 408.668 219.387 409.003C218.752 409.68 218.411 410.582 218.44 411.51C218.469 412.438 218.866 413.317 219.543 413.953C220.22 414.588 221.122 414.929 222.05 414.9H222.27L223.04 414.85H223.29C224.218 414.816 225.095 414.414 225.727 413.733C226.359 413.052 226.694 412.148 226.66 411.22C226.626 410.292 226.224 409.415 225.543 408.783C224.862 408.151 223.958 407.816 223.03 407.85L223.07 407.84ZM251.29 403.84C251.048 403.838 250.807 403.862 250.57 403.91L249.62 404.11C248.71 404.297 247.912 404.838 247.401 405.613C246.89 406.389 246.708 407.335 246.895 408.245C247.082 409.155 247.623 409.953 248.398 410.464C249.174 410.975 250.12 411.157 251.03 410.97L251.56 410.86H251.62L252.02 410.78C252.863 410.597 253.608 410.109 254.113 409.41C254.618 408.711 254.847 407.85 254.757 406.993C254.666 406.135 254.262 405.341 253.623 404.763C252.983 404.185 252.152 403.863 251.29 403.86V403.84ZM278.7 396C278.294 395.998 277.891 396.069 277.51 396.21L276.6 396.54C275.827 396.82 275.178 397.364 274.766 398.075C274.354 398.786 274.205 399.62 274.346 400.429C274.486 401.239 274.908 401.974 275.536 402.504C276.164 403.034 276.958 403.327 277.78 403.33C278.186 403.332 278.589 403.261 278.97 403.12L279.67 402.87H279.75L279.93 402.81C280.722 402.539 281.39 401.993 281.814 401.271C282.238 400.55 282.389 399.7 282.241 398.877C282.092 398.053 281.653 397.31 281.003 396.782C280.354 396.254 279.537 395.977 278.7 396V396ZM304.7 384.41C304.128 384.408 303.564 384.549 303.06 384.82L302.21 385.27C301.517 385.633 300.966 386.218 300.644 386.931C300.323 387.644 300.249 388.445 300.436 389.204C300.622 389.964 301.058 390.639 301.673 391.123C302.288 391.606 303.048 391.869 303.83 391.87C304.391 391.874 304.943 391.74 305.44 391.48L305.8 391.29L306.23 391.06C306.92 390.693 307.467 390.106 307.785 389.392C308.102 388.678 308.171 387.878 307.981 387.12C307.792 386.362 307.354 385.689 306.737 385.209C306.121 384.729 305.361 384.469 304.58 384.47L304.7 384.41ZM328.87 369.32C328.152 369.331 327.454 369.561 326.87 369.98L326.08 370.55C325.484 370.982 325.04 371.591 324.809 372.29C324.578 372.989 324.573 373.743 324.794 374.445C325.015 375.147 325.451 375.762 326.041 376.202C326.631 376.643 327.344 376.887 328.08 376.9C328.8 376.897 329.5 376.666 330.08 376.24V376.24L330.37 376.02L330.46 375.96L330.83 375.7C331.425 375.263 331.866 374.649 332.091 373.946C332.315 373.243 332.312 372.487 332.082 371.786C331.851 371.085 331.404 370.475 330.806 370.043C330.208 369.61 329.488 369.379 328.75 369.38L328.87 369.32ZM350.75 351C349.841 351.005 348.969 351.364 348.32 352L347.62 352.67C347.125 353.155 346.785 353.776 346.643 354.454C346.502 355.132 346.564 355.837 346.823 356.479C347.083 357.122 347.527 357.673 348.099 358.063C348.672 358.453 349.347 358.664 350.04 358.67C350.937 358.661 351.794 358.302 352.43 357.67L352.86 357.26L352.91 357.21L352.98 357.15L353.16 356.98C353.655 356.495 353.996 355.873 354.137 355.194C354.278 354.515 354.215 353.809 353.955 353.166C353.694 352.523 353.249 351.972 352.675 351.583C352.1 351.194 351.424 350.984 350.73 350.98L350.75 351ZM369.86 329.87C369.329 329.869 368.806 329.989 368.328 330.219C367.85 330.449 367.43 330.785 367.1 331.2L366.5 331.96C365.921 332.687 365.653 333.614 365.758 334.537C365.862 335.461 366.328 336.306 367.055 336.885C367.782 337.465 368.709 337.732 369.632 337.628C370.556 337.523 371.401 337.057 371.98 336.33C372.19 336.05 372.41 335.78 372.62 335.51C372.902 335.15 373.11 334.737 373.233 334.296C373.356 333.856 373.39 333.395 373.334 332.941C373.279 332.486 373.134 332.048 372.908 331.649C372.683 331.251 372.381 330.901 372.02 330.62C371.407 330.131 370.644 329.866 369.86 329.87ZM385.86 306.29C385.252 306.294 384.655 306.457 384.129 306.762C383.603 307.067 383.166 307.504 382.86 308.03L382.37 308.86C381.905 309.664 381.776 310.618 382.01 311.517C382.244 312.415 382.822 313.185 383.62 313.66C384.158 313.971 384.768 314.137 385.39 314.14C385.996 314.139 386.592 313.979 387.118 313.678C387.644 313.376 388.082 312.943 388.39 312.42V312.42C388.56 312.13 388.73 311.85 388.89 311.56C389.199 311.031 389.363 310.429 389.366 309.816C389.369 309.204 389.211 308.601 388.906 308.068C388.602 307.536 388.163 307.094 387.634 306.785C387.104 306.476 386.503 306.312 385.89 306.31L385.86 306.29ZM398.4 280.71C397.703 280.708 397.021 280.915 396.442 281.303C395.863 281.692 395.413 282.244 395.15 282.89L394.78 283.79C394.43 284.651 394.435 285.615 394.795 286.472C395.155 287.329 395.84 288.008 396.7 288.36C397.118 288.533 397.567 288.622 398.02 288.62C398.71 288.62 399.385 288.416 399.96 288.034C400.535 287.651 400.984 287.107 401.25 286.47L401.64 285.47C401.966 284.619 401.946 283.675 401.583 282.839C401.22 282.003 400.544 281.343 399.7 281C399.285 280.827 398.84 280.738 398.39 280.74L398.4 280.71ZM407.2 253.62C406.418 253.623 405.66 253.886 405.044 254.368C404.429 254.849 403.991 255.522 403.8 256.28L403.57 257.21C403.343 258.112 403.483 259.067 403.959 259.865C404.435 260.664 405.209 261.241 406.11 261.47C406.391 261.54 406.68 261.577 406.97 261.58C407.744 261.578 408.495 261.32 409.107 260.846C409.718 260.372 410.155 259.709 410.35 258.96C410.43 258.63 410.52 258.28 410.6 257.96C410.709 257.516 410.73 257.055 410.66 256.603C410.591 256.151 410.434 255.718 410.197 255.327C409.96 254.936 409.649 254.595 409.28 254.325C408.912 254.054 408.494 253.859 408.05 253.75C407.772 253.679 407.487 253.642 407.2 253.64V253.62ZM412.11 225.62C411.245 225.623 410.411 225.944 409.769 226.524C409.127 227.104 408.721 227.9 408.63 228.76L408.52 229.76C408.472 230.218 408.514 230.681 408.644 231.122C408.775 231.563 408.992 231.975 409.281 232.332C409.571 232.69 409.929 232.987 410.333 233.206C410.738 233.425 411.182 233.563 411.64 233.61C411.766 233.62 411.894 233.62 412.02 233.61C412.878 233.608 413.706 233.289 414.344 232.716C414.982 232.142 415.387 231.353 415.48 230.5C415.48 230.39 415.48 230.28 415.48 230.17V230C415.48 229.82 415.48 229.65 415.53 229.47C415.622 228.55 415.345 227.631 414.76 226.914C414.175 226.198 413.33 225.743 412.41 225.65L412.11 225.62ZM413.06 197.13H412.94C412.012 197.164 411.136 197.564 410.503 198.242C409.869 198.921 409.53 199.822 409.56 200.75V201.75C409.591 202.658 409.973 203.519 410.626 204.151C411.279 204.784 412.151 205.138 413.06 205.14H413.17C414.095 205.111 414.971 204.717 415.606 204.045C416.241 203.372 416.584 202.475 416.56 201.55V201.39V201.15C416.56 200.94 416.56 200.73 416.56 200.52C416.526 199.617 416.144 198.762 415.493 198.136C414.842 197.509 413.974 197.159 413.07 197.16L413.06 197.13ZM410.06 168.81C409.854 168.791 409.646 168.791 409.44 168.81C408.527 168.976 407.717 169.495 407.185 170.256C406.653 171.016 406.443 171.956 406.6 172.87L406.77 173.87C406.911 174.683 407.334 175.421 407.965 175.953C408.596 176.485 409.395 176.778 410.22 176.78C410.421 176.78 410.622 176.76 410.82 176.72C411.727 176.566 412.537 176.058 413.071 175.309C413.605 174.559 413.821 173.628 413.67 172.72C413.67 172.59 413.67 172.47 413.6 172.34V172.27V172.2C413.6 172.04 413.55 171.88 413.52 171.72C413.373 170.918 412.949 170.192 412.322 169.67C411.696 169.147 410.906 168.861 410.09 168.86L410.06 168.81ZM403.06 141.19C402.69 141.188 402.322 141.245 401.97 141.36C401.532 141.503 401.127 141.73 400.778 142.03C400.428 142.329 400.141 142.695 399.933 143.105C399.725 143.516 399.6 143.963 399.565 144.422C399.53 144.881 399.586 145.343 399.73 145.78L400.03 146.7C400.26 147.404 400.707 148.018 401.307 148.452C401.907 148.887 402.629 149.121 403.37 149.12C403.734 149.122 404.095 149.065 404.44 148.95C404.877 148.81 405.281 148.586 405.631 148.29C405.981 147.993 406.268 147.63 406.477 147.223C406.686 146.815 406.813 146.369 406.849 145.912C406.886 145.456 406.832 144.996 406.69 144.56V144.56C406.6 144.3 406.51 144.04 406.43 143.77L406.37 143.6C406.137 142.906 405.693 142.304 405.099 141.876C404.505 141.449 403.792 141.22 403.06 141.22V141.19ZM392.28 114.82C391.692 114.826 391.116 114.98 390.603 115.267C390.09 115.554 389.658 115.965 389.345 116.463C389.033 116.961 388.85 117.529 388.815 118.115C388.779 118.702 388.891 119.288 389.14 119.82L389.56 120.69C389.967 121.525 390.689 122.165 391.568 122.468C392.447 122.771 393.41 122.712 394.245 122.305C395.08 121.898 395.72 121.176 396.023 120.297C396.326 119.418 396.267 118.455 395.86 117.62L395.79 117.48L395.55 117V116.95L395.44 116.72C395.157 116.126 394.712 115.623 394.157 115.269C393.602 114.916 392.958 114.725 392.3 114.72L392.28 114.82ZM377.91 90.22C377.274 90.2227 376.65 90.3984 376.106 90.7283C375.561 91.0581 375.117 91.5297 374.82 92.0926C374.523 92.6555 374.385 93.2886 374.42 93.924C374.456 94.5594 374.663 95.1733 375.02 95.7L375.56 96.5C375.89 96.9719 376.33 97.3556 376.843 97.6171C377.355 97.8787 377.925 98.0102 378.5 98C379.212 98.0038 379.908 97.7949 380.5 97.4C381.264 96.8805 381.791 96.0802 381.967 95.1736C382.143 94.267 381.954 93.3276 381.44 92.56L381.32 92.37V92.31V92.25V92.19V92.13L381.26 92.04L381.2 91.95C380.88 91.4816 380.45 91.0984 379.948 90.8335C379.446 90.5686 378.887 90.4301 378.32 90.43L377.91 90.22ZM360.28 67.85C359.41 67.8491 358.572 68.1737 357.93 68.76C357.245 69.3868 356.836 70.2586 356.791 71.1856C356.746 72.1127 357.069 73.0199 357.69 73.71L358.34 74.43C358.962 75.1196 359.832 75.5338 360.76 75.5816C361.687 75.6295 362.595 75.3069 363.285 74.685C363.975 74.0631 364.389 73.1927 364.437 72.2653C364.484 71.3379 364.162 70.4296 363.54 69.74L362.87 69C362.543 68.6414 362.144 68.3549 361.7 68.1586C361.256 67.9623 360.776 67.8606 360.29 67.86L360.28 67.85ZM339.7 48.15C338.981 48.153 338.28 48.3769 337.692 48.7914C337.104 49.2058 336.658 49.7909 336.414 50.4673C336.169 51.1437 336.138 51.8789 336.326 52.5734C336.513 53.2678 336.909 53.888 337.46 54.35L338.2 54.97C338.834 55.4921 339.629 55.7783 340.45 55.78C341.168 55.783 341.87 55.5642 342.459 55.1536C343.049 54.743 343.497 54.1605 343.743 53.4857C343.989 52.8108 344.021 52.0765 343.835 51.3829C343.648 50.6892 343.252 50.0701 342.7 49.61L342.53 49.46L342 49L341.93 48.95C341.303 48.4301 340.515 48.1438 339.7 48.14V48.15ZM316.59 31.48C315.819 31.4701 315.065 31.7147 314.447 32.176C313.828 32.6372 313.379 33.2894 313.168 34.0316C312.958 34.7738 312.998 35.5648 313.282 36.2821C313.566 36.9995 314.078 37.6032 314.74 38L315.56 38.51C316.345 39.006 317.295 39.1697 318.201 38.9653C319.107 38.7609 319.894 38.205 320.39 37.42C320.886 36.635 321.05 35.6851 320.845 34.7793C320.641 33.8735 320.085 33.086 319.3 32.59V32.59L318.46 32.07C317.906 31.7209 317.265 31.5339 316.61 31.53L316.59 31.48ZM291.39 18.18C290.592 18.1917 289.821 18.4753 289.206 18.9839C288.59 19.4925 288.166 20.1958 288.004 20.9776C287.842 21.7595 287.952 22.5732 288.315 23.2845C288.678 23.9958 289.272 24.5621 290 24.89L290.89 25.28C291.336 25.4813 291.821 25.5837 292.31 25.58C293.107 25.5773 293.88 25.3024 294.499 24.801C295.119 24.2996 295.549 23.6016 295.718 22.8225C295.887 22.0434 295.786 21.2299 295.429 20.5166C295.073 19.8033 294.484 19.233 293.76 18.9L292.81 18.48C292.369 18.2843 291.892 18.1822 291.41 18.18H291.39ZM264.59 8.52C263.744 8.5188 262.926 8.82411 262.288 9.37943C261.649 9.93475 261.234 10.7025 261.118 11.5406C261.002 12.3787 261.194 13.2304 261.657 13.9381C262.121 14.6458 262.825 15.1616 263.64 15.39L264.57 15.65C264.894 15.7477 265.231 15.7949 265.57 15.79C266.414 15.7949 267.232 15.4944 267.872 14.944C268.512 14.3936 268.932 13.6304 269.054 12.7949C269.175 11.9595 268.991 11.1082 268.535 10.3979C268.078 9.68769 267.381 9.16635 266.57 8.93L266.33 8.86L265.64 8.67C265.334 8.58268 265.018 8.53892 264.7 8.54L264.59 8.52ZM236.7 2.68C236.24 2.6498 235.779 2.71042 235.343 2.85841C234.907 3.00639 234.504 3.23885 234.158 3.54249C233.811 3.84614 233.528 4.21504 233.324 4.62812C233.121 5.0412 233 5.49038 232.97 5.95C232.94 6.40963 233 6.8707 233.148 7.3069C233.296 7.7431 233.529 8.14588 233.832 8.49224C234.136 8.8386 234.505 9.12177 234.918 9.32556C235.331 9.52936 235.78 9.6498 236.24 9.68L237.19 9.82C237.357 9.82995 237.523 9.82995 237.69 9.82C238.618 9.88896 239.536 9.58634 240.241 8.97872C240.946 8.37111 241.381 7.50826 241.45 6.58C241.519 5.65174 241.216 4.73411 240.609 4.02898C240.001 3.32384 239.138 2.88896 238.21 2.82H237.97H237.92L237.19 2.72C237.03 2.71007 236.87 2.71007 236.71 2.72L236.7 2.68ZM208.34 0.740002H207.34C206.412 0.740002 205.522 1.10875 204.865 1.76513C204.209 2.42151 203.84 3.31174 203.84 4.24C203.84 5.16826 204.209 6.0585 204.865 6.71488C205.522 7.37125 206.412 7.74 207.34 7.74H209.24C210.168 7.74 211.058 7.37125 211.715 6.71488C212.371 6.0585 212.74 5.16826 212.74 4.24C212.74 3.31174 212.371 2.42151 211.715 1.76513C211.058 1.10875 210.168 0.740002 209.24 0.740002H208.24H208.34Z" fill="#F46256"/>
</g>
</g>
<g id="blue-planet">
<path id="Vector_11" d="M60.69 338C6.04999 271.43 -1.60001 198.05 36.39 121.91C73.29 47.94 151.87 7.12 235.24 18C330.4 30.41 392.51 105.46 403.29 181.14C403.5 182.64 403.7 184.14 403.89 185.66C406.226 203.838 405.534 222.278 401.84 240.23C393.15 282.05 375.52 321.37 344.18 353.32C344.18 353.32 296.94 401.78 200.73 400.4C104.52 399.02 60.69 338 60.69 338Z" fill="#3671B8"/>
<path id="Vector_12" d="M318.4 48.78C303.65 51.5 285.52 61.69 283.76 73.6C308.48 95.13 317.94 34.39 317.65 67.82C344.31 69.82 307.54 86.11 297.65 88.18C286.46 79.07 273.6 99.44 263.73 104.97C272.14 112.59 268.22 116.45 257.59 117.2C247.86 117.9 247.87 123.44 250.21 132.9C266.21 130.43 276.49 122 287.47 111.28C294.35 115.47 300.56 127.36 305.15 123.7C302.47 118.7 292.21 113.64 299.22 108.98C313.22 120.15 318.97 133.61 334.52 119.98C332.17 139.25 344.86 134.26 353.31 134.75C361.47 160.62 329.92 142.75 319.5 146.62C299.28 158.94 297.74 132.48 284.04 135.48C225.1 125.11 200.16 239.75 271.69 217.11C284.3 215.72 291.6 222.88 291.69 235.45C293.07 244.45 302.6 255.77 301 264.52C293 286.68 316 350.81 341.31 317.81C351.31 303.94 350.61 283.81 367.52 274.04C369.12 273.12 369.6 267.95 368.72 265.4C359.32 237.07 387.28 231.13 394.89 206.13C384.06 206 378.66 208.13 372.66 201.13C360.45 182.03 336.6 132.13 369.09 174.48C381.5 202.48 388.42 197.98 403.67 184.68C403.51 183.407 403.34 182.137 403.16 180.87C402.59 176.87 401.86 172.81 401 168.79C392.29 167.26 385.53 165.79 382.92 152.53L398.1 157.19C385.191 112.764 356.952 74.3531 318.4 48.78Z" fill="#2D9E9E"/>
<path id="Vector_13" d="M113.78 43.81C133.1 27.16 138.92 44.58 155.26 56.59L134.26 65.59C130.4 50.39 163.59 58.78 113.78 43.81Z" fill="#2D9E9E"/>
<path id="Vector_14" d="M263.31 78.63C267.9 84.86 277.75 94.83 265.46 95.91C263.38 85.91 260.4 85.38 252.64 92.23C247.88 87.66 259.7 83.6 263.31 78.63Z" fill="#2D9E9E"/>
<path id="Vector_15" d="M36.61 121.43C25.89 142.89 18.82 164.103 15.4 185.07C22.8 189.74 33.99 191.69 40.84 196.48C51.62 209.7 83.75 211.63 68 231.89C52.15 260.43 94 273.09 95.86 298.43C97.27 327.35 94.2 368.79 126.07 382.7C113.35 363.7 120.7 346.45 132.21 331.45C141.6 322.09 147.92 307.02 156.67 298.37C171.53 292.02 166.83 277.12 173.75 265.84C190.33 240.36 153.6 241.56 137.85 236.23C142.58 217.41 104.4 202.8 89.29 206.63C64.29 215.39 55.08 196.83 46.08 178.63C41.19 186.21 34.17 188.5 29.45 179.56C19.39 155.7 55.12 140.12 68.21 159.29C85.61 138.85 97.75 110.89 129.12 108.22C102.91 97.48 136 96.36 147.64 90.48C137.83 53.65 107.86 74.36 101.93 91.07C96.99 88.07 92.84 86.07 89.19 83.31C66.26 67.77 108.48 59.04 120.57 53.31C111.82 55.17 109 50.89 107.13 44.26C76.8375 62.844 52.3964 89.5899 36.61 121.43Z" fill="#2D9E9E"/>
<path id="Vector_16" d="M113.78 43.51C133.1 26.86 138.92 44.28 155.26 56.29L134.26 65.29C130.4 50.09 163.59 58.48 113.78 43.51Z" fill="#2D9E9E"/>
<path id="Vector_17" d="M263.31 79C267.9 85.23 277.75 95.2 265.46 96.28C263.38 86.28 260.4 85.75 252.64 92.6C247.88 88 259.7 84 263.31 79Z" fill="#2D9E9E"/>
<path id="Vector_18" d="M179.3 18.43C174.191 20.4774 169.806 23.9963 166.7 28.54C172.13 41.39 185.92 34.54 175.7 56.54C174.33 63.88 176.29 72.6 186.54 67.6C212.22 55.23 234.77 47.85 250.32 21.23C250.32 21.23 246.85 20.17 241.32 18.87C239.32 18.55 237.32 18.24 235.32 17.98C216.716 15.5308 197.862 15.6823 179.3 18.43Z" fill="#2D9E9E"/>
<path id="Vector_19" d="M380.61 302.34C385.338 293.04 389.424 283.428 392.84 273.57C378.13 274.28 372.06 293.4 380.61 302.34Z" fill="#2D9E9E"/>
</g>
</g>
<defs>
<clipPath id="clip0">
<rect width="416.68" height="415.35" fill="white" transform="translate(0 1)"/>
</clipPath>
<clipPath id="clip1">
<rect width="416.68" height="415.35" fill="white"/>
</clipPath>
</defs>
</svg>
