<svg id="Layer_1" data-name="Layer 1" xmlns="http://www.w3.org/2000/svg" viewBox="0 0 83 83"><defs><style>.cls-1{fill:#eda620;}.cls-2{fill:#eae3d6;}.cls-3{fill:#0b1c3a;}.cls-4{fill:#b87352;}.cls-5{fill:#231f20;}.cls-6{fill:#b77251;}.cls-7{fill:#f37363;}.cls-8{fill:#fff;}.cls-9{fill:#f3f4f4;}.cls-10{fill:#c2c4c6;}.cls-11{fill:#464547;}.cls-12{fill:#3a2517;}.cls-13{fill:#d3232d;}</style></defs><path class="cls-1" d="M144,321.07a41.5,41.5,0,1,0-41.5-41.5A41.5,41.5,0,0,0,144,321.07Z" transform="translate(-102.51 -238.07)"/><path class="cls-2" d="M144,318.64a39.08,39.08,0,1,0-39.07-39.07A39.07,39.07,0,0,0,144,318.64Z" transform="translate(-102.51 -238.07)"/><path class="cls-3" d="M156.33,276.42s-.4-7.71-3.3-7.95-20.73-1.18-23.21.51-2.5,5.53-2.5,5.53Z" transform="translate(-102.51 -238.07)"/><path class="cls-4" d="M149.1,272.33c-5.31-1.94-2.87-7.44-2.87-7.44l-9.18-.11s1.19,6.47-7.26,7.46l10.82,13.58Z" transform="translate(-102.51 -238.07)"/><path class="cls-5" d="M129.82,272.92s.94-1.18,3.64-1c0,0-1.4,14.43-4.37,20.09a28.75,28.75,0,0,1-.53-7.83C128.94,280.59,129.17,273.94,129.82,272.92Z" transform="translate(-102.51 -238.07)"/><path class="cls-5" d="M153.42,272.12s-1.16-1-3.66-.35c0,0,1.39,14.13,4.37,19.78a28.65,28.65,0,0,0,.53-7.82C154.27,280.11,154.07,273.15,153.42,272.12Z" transform="translate(-102.51 -238.07)"/><path class="cls-6" d="M118.26,288.34l-2.12,4.34,9,13.08,2.79-3.48L123.42,293l1.11-6.29Z" transform="translate(-102.51 -238.07)"/><path class="cls-7" d="M148.23,271.82c-6,2-14.08.32-14.08.32-5,.41-7.38,2.91-8.87,4s-9.7,16.53-9.7,16.53l6.44,9.74,4.73-3.52-2.68-5.75,4.84-8.23a108.91,108.91,0,0,1,1.14,14.15,47.24,47.24,0,0,0-9.72,11.59,39.11,39.11,0,0,0,36.33,5.88c-4.69-11.2-10.13-14.89-10.13-14.89l8.77-17.16,5.26,4.24,2.65-9.3c-2.46-2.43-4.7-4.54-5.76-5.49C154.38,271.23,148.23,271.82,148.23,271.82Z" transform="translate(-102.51 -238.07)"/><path class="cls-3" d="M129.82,272.92s.94-1.18,3.64-1c0,0-1.4,14.43-4.37,20.09a28.75,28.75,0,0,1-.53-7.83C128.94,280.59,129.17,273.94,129.82,272.92Z" transform="translate(-102.51 -238.07)"/><path class="cls-3" d="M153.42,272.12s-1.16-1-3.66-.35c0,0,1.39,14.13,4.37,19.78a28.65,28.65,0,0,0,.53-7.82C154.27,280.11,154.07,273.15,153.42,272.12Z" transform="translate(-102.51 -238.07)"/><path class="cls-8" d="M142.69,288.1l15.05-4.21L150.69,305l-13.11,2.13Z" transform="translate(-102.51 -238.07)"/><path class="cls-9" d="M142.94,288.57l15.05-4.2-7.05,21.07-13.12,2.12Z" transform="translate(-102.51 -238.07)"/><path class="cls-10" d="M144,288.9l15-4.2-7,21.07-13.12,2.12Z" transform="translate(-102.51 -238.07)"/><path class="cls-5" d="M142.69,288.08a1.58,1.58,0,0,0,1.33.8l-5.12,19s-1.57.11-1.32-.8Z" transform="translate(-102.51 -238.07)"/><path class="cls-11" d="M145.75,294.35l.06-.21c0-.1,0-.12-.08-.1a.17.17,0,0,0-.1.06.19.19,0,0,0,0,.1l0,.11a.1.1,0,0,0,0,.13l.14.06a.09.09,0,0,1,.07,0,.18.18,0,0,1,.05.07.11.11,0,0,1,0,.08.25.25,0,0,1,0,.08l-.06.22a.59.59,0,0,1-.14.27.43.43,0,0,1-.26.13c-.21.06-.33,0-.26-.23l.06-.26.22-.06-.05.23c0,.1,0,.12.08.1a.21.21,0,0,0,.1-.06.23.23,0,0,0,.05-.1l0-.12c0-.08,0-.11,0-.14l-.14-.06-.07,0a.18.18,0,0,1,0-.07.19.19,0,0,1,0-.08.22.22,0,0,1,0-.08l.05-.2a.61.61,0,0,1,.15-.26.51.51,0,0,1,.26-.14c.18-.05.32,0,.25.23l-.06.25Z" transform="translate(-102.51 -238.07)"/><path class="cls-11" d="M146.6,293.61h0c.2-.06.32,0,.26.23l-.22.92a.52.52,0,0,1-.15.27.51.51,0,0,1-.26.14h0c-.2.05-.32,0-.26-.23l.22-.92a.49.49,0,0,1,.15-.27A.51.51,0,0,1,146.6,293.61Zm-.32,1.34a.26.26,0,0,0,.11-.07.37.37,0,0,0,.05-.11l.2-.83c0-.11,0-.13-.09-.11a.24.24,0,0,0-.11.06.37.37,0,0,0-.05.11l-.2.84c0,.11,0,.11.1.11Z" transform="translate(-102.51 -238.07)"/><path class="cls-11" d="M147.52,294.53a.5.5,0,0,1-.14.27.46.46,0,0,1-.26.15c-.21.06-.33,0-.27-.23l.22-.92a.61.61,0,0,1,.15-.26.52.52,0,0,1,.27-.15c.2-.05.32,0,.26.24l-.07.27-.22.06.06-.24c0-.1,0-.13-.08-.11a.26.26,0,0,0-.11.07.31.31,0,0,0-.05.1l-.2.84c0,.11,0,.13.09.11a.21.21,0,0,0,.1-.06.22.22,0,0,0,0-.11l.06-.27.23-.06Z" transform="translate(-102.51 -238.07)"/><path class="cls-11" d="M147.63,294.79l.37-1.53.22-.05-.37,1.53Z" transform="translate(-102.51 -238.07)"/><path class="cls-11" d="M148.56,294.23l-.24.07-.13.35-.22.05.62-1.59.28-.07-.12,1.46-.22.06Zm0-.2.07-.65-.25.71Z" transform="translate(-102.51 -238.07)"/><path class="cls-11" d="M149.43,294.32l-.56.15.37-1.53.22-.05-.33,1.29.34-.09Z" transform="translate(-102.51 -238.07)"/><path class="cls-11" d="M150.5,293.13l.05-.21c0-.1,0-.12-.08-.11a.21.21,0,0,0-.1.06.24.24,0,0,0-.05.1l0,.11c0,.08,0,.11,0,.13l.14.06.07,0s0,0,.06.06a.17.17,0,0,1,0,.16l-.06.22a.45.45,0,0,1-.14.27.51.51,0,0,1-.26.14c-.21,0-.33,0-.26-.24l.06-.26.22-.06,0,.23c0,.09,0,.12.08.11a.21.21,0,0,0,.1-.06.37.37,0,0,0,0-.11l0-.12c0-.08,0-.11,0-.14l-.13-.05-.08,0a.18.18,0,0,1-.05-.07.19.19,0,0,1,0-.08.31.31,0,0,1,0-.08l.05-.2a.51.51,0,0,1,.4-.4c.18,0,.32,0,.25.23l-.05.25Z" transform="translate(-102.51 -238.07)"/><path class="cls-11" d="M151.55,292.55l-.23.06L151,293.9l-.23.06.33-1.29-.23.06.06-.23.67-.17Z" transform="translate(-102.51 -238.07)"/><path class="cls-11" d="M152.09,293.34a.59.59,0,0,1-.14.27.54.54,0,0,1-.27.14c-.2.05-.32,0-.25-.24l.29-1.23.22,0-.28,1.18c0,.11,0,.13.08.11a.17.17,0,0,0,.1-.06.16.16,0,0,0,0-.11l.28-1.18.23-.06Z" transform="translate(-102.51 -238.07)"/><path class="cls-11" d="M153.18,292.22l-.21.89a.61.61,0,0,1-.15.27.54.54,0,0,1-.27.14l-.34.09.37-1.53.34-.09C153.12,291.94,153.24,292,153.18,292.22Zm-.32,0-.11,0-.27,1.09.12,0a.24.24,0,0,0,.11-.06.54.54,0,0,0,0-.11l.19-.81c0-.12,0-.14-.09-.12Z" transform="translate(-102.51 -238.07)"/><path class="cls-11" d="M153.08,293.38l.37-1.53.22-.06-.36,1.55Z" transform="translate(-102.51 -238.07)"/><path class="cls-11" d="M153.51,293.27l.36-1.53.59-.15-.05.22-.37.1-.1.42.31-.08-.05.22-.31.08-.11.44.38-.09-.06.22Z" transform="translate(-102.51 -238.07)"/><path class="cls-11" d="M154.9,292l0-.22c0-.09,0-.12-.08-.1a.18.18,0,0,0-.09.06.14.14,0,0,0-.05.1l0,.11c0,.08,0,.11.05.13l.14.06c.11.05.16.1.13.26l-.06.22a.5.5,0,0,1-.41.41c-.2.05-.32,0-.26-.24l.07-.27.22-.05-.06.23c0,.1,0,.13.08.11a.18.18,0,0,0,.1-.07.12.12,0,0,0,.05-.1l0-.12c0-.08,0-.11-.05-.13l-.13-.07s0,0-.08,0a.18.18,0,0,1-.05-.07.19.19,0,0,1,0-.08.31.31,0,0,1,0-.08l.05-.2a.51.51,0,0,1,.14-.26.6.6,0,0,1,.26-.14c.19-.05.33,0,.26.23l-.06.25Z" transform="translate(-102.51 -238.07)"/><path class="cls-8" d="M144.57,289.12,159.38,285l-6.93,20.73-12.91,2.09Z" transform="translate(-102.51 -238.07)"/><path class="cls-9" d="M144.82,289.59l14.8-4.14-6.93,20.73-12.91,2.09Z" transform="translate(-102.51 -238.07)"/><path class="cls-10" d="M145.88,289.91l14.81-4.14-6.94,20.73-12.9,2.1Z" transform="translate(-102.51 -238.07)"/><path class="cls-5" d="M144.57,289.1a1.52,1.52,0,0,0,1.3.79l-5,18.69s-1.54.1-1.29-.8Z" transform="translate(-102.51 -238.07)"/><path class="cls-6" d="M154.13,300.09a5.32,5.32,0,0,1-1.52,1.65c-.9.57-6.07,1.62-7,1.9s-1.92.95-1.92,1.43c0,0-.93.72-.48,1.19s.71.23.71.23-.11,1,.32,1.23a2,2,0,0,0,1.13,0s-.6.82,0,1.17a1.81,1.81,0,0,0,1.42,0s-.22,1.21.23,1.27,2,.22,2-.79c0,0,4.8-1.4,5.18-2.41a5.07,5.07,0,0,1,1.61-2.56,8.8,8.8,0,0,1,2.56-1.23" transform="translate(-102.51 -238.07)"/><path class="cls-7" d="M160.57,288.73l2.75,2.34-9.68,8.69,5,3.62s14.6-10.54,14.6-12.43c0-1.23-5.42-6.94-10-11.52" transform="translate(-102.51 -238.07)"/><path class="cls-12" d="M138.65,266s.79,4.32-3.62,7.7c0,0,1.21,6.9-2.74,7.43s-8.2-.06-9.22,4.31c0,0-9.16-3.05-1.18-12.05,6.06-6.83,5.72-4.37,7.7-13,2.55-11.12,7.43-16.3,14.25-15.39S161.9,257.6,148,271.81c0,0-3.85-1.51-2.45-5.32Z" transform="translate(-102.51 -238.07)"/><path class="cls-6" d="M135.63,258.51s-.61,9.51,6.23,10.15,7.58-10.13,7.58-10.13.41-1.13-1.44-2.34-5.86-3.19-5.41-6.87C142.59,249.32,138.91,255.64,135.63,258.51Z" transform="translate(-102.51 -238.07)"/><path class="cls-5" d="M137.14,258.8a1.31,1.31,0,0,0,.62-.06,4.1,4.1,0,0,1,.83-.23,3,3,0,0,1,.67-.05,2.31,2.31,0,0,1,.64.1,3.44,3.44,0,0,1,.78.35,1.37,1.37,0,0,0,.59.19.84.84,0,0,0-.12-.31.87.87,0,0,0-.24-.23,3.35,3.35,0,0,0-.88-.41,3.26,3.26,0,0,0-.76-.12,3.78,3.78,0,0,0-.75.05,5.05,5.05,0,0,0-.92.26.87.87,0,0,0-.28.19A.71.71,0,0,0,137.14,258.8Z" transform="translate(-102.51 -238.07)"/><path class="cls-5" d="M147.64,259.23a.86.86,0,0,0-.42-.48,4.2,4.2,0,0,0-.9-.32,4.57,4.57,0,0,0-.74-.12,3.21,3.21,0,0,0-.76.06,3.53,3.53,0,0,0-.91.33.75.75,0,0,0-.26.21.85.85,0,0,0-.15.3,1.35,1.35,0,0,0,.6-.13,3.5,3.5,0,0,1,.8-.29,2.39,2.39,0,0,1,.65-.06,3.53,3.53,0,0,1,.65.11,4,4,0,0,1,.81.3A1.13,1.13,0,0,0,147.64,259.23Z" transform="translate(-102.51 -238.07)"/><path class="cls-13" d="M144.44,263.86s-1.23-1.19-1.71-1.21c-.16,0-.46.41-.46.41a1.44,1.44,0,0,0-.64-.45c-.28-.05-1.58,1.06-1.58,1.06l2.11.18Z" transform="translate(-102.51 -238.07)"/><path class="cls-13" d="M144.44,263.86h-2.27l-2.11-.18a3.52,3.52,0,0,0,2.08,1.06A3.92,3.92,0,0,0,144.44,263.86Z" transform="translate(-102.51 -238.07)"/></svg>